<?xml version="1.0" encoding="UTF-8"?>
<!DOCTYPE svg PUBLIC "-//W3C//DTD SVG 1.1//EN" "http://www.w3.org/Graphics/SVG/1.1/DTD/svg11.dtd">
<svg xmlns="http://www.w3.org/2000/svg" version="1.1" width="244px" height="225px" style="shape-rendering:geometricPrecision; text-rendering:geometricPrecision; image-rendering:optimizeQuality; fill-rule:evenodd; clip-rule:evenodd" xmlns:xlink="http://www.w3.org/1999/xlink">
<g><path style="opacity:1" fill="#fdfdfd" d="M -0.5,-0.5 C 80.8333,-0.5 162.167,-0.5 243.5,-0.5C 243.5,74.5 243.5,149.5 243.5,224.5C 162.167,224.5 80.8333,224.5 -0.5,224.5C -0.5,149.5 -0.5,74.5 -0.5,-0.5 Z"/></g>
<g><path style="opacity:1" fill="#7d7d7d" d="M 159.5,22.5 C 153.833,21.1667 148.167,21.1667 142.5,22.5C 145.017,21.027 147.85,20.3603 151,20.5C 154.15,20.3603 156.983,21.027 159.5,22.5 Z"/></g>
<g><path style="opacity:1" fill="#9f9f9f" d="M 91.5,21.5 C 94.491,21.1663 96.8243,22.1663 98.5,24.5C 95.8427,24.0652 93.5093,23.0652 91.5,21.5 Z"/></g>
<g><path style="opacity:1" fill="#151515" d="M 91.5,21.5 C 93.5093,23.0652 95.8427,24.0652 98.5,24.5C 101.788,27.4493 105.121,30.4493 108.5,33.5C 110.731,37.2921 112.398,41.2921 113.5,45.5C 114.292,51.1302 114.625,56.7969 114.5,62.5C 114.5,63.1667 114.5,63.8333 114.5,64.5C 113.054,67.2542 112.054,70.2542 111.5,73.5C 103.881,89.4747 91.8811,94.4747 75.5,88.5C 75.0269,87.0937 74.0269,86.427 72.5,86.5C 68.7593,83.7631 65.7593,80.4298 63.5,76.5C 63.573,74.9731 62.9063,73.9731 61.5,73.5C 58.6429,64.0685 57.8096,54.4019 59,44.5C 59.8751,41.5989 61.0418,38.9323 62.5,36.5C 63.9063,36.0269 64.573,35.0269 64.5,33.5C 70.4377,23.072 79.4377,19.072 91.5,21.5 Z"/></g>
<g><path style="opacity:1" fill="#151515" d="M 159.5,22.5 C 174.938,30.7088 181.438,43.7088 179,61.5C 178.331,65.6714 177.164,69.6714 175.5,73.5C 173.75,74.6594 172.75,76.326 172.5,78.5C 163.089,91.3673 151.089,94.534 136.5,88C 131.072,83.0849 127.072,77.2516 124.5,70.5C 124.037,67.6697 123.371,65.003 122.5,62.5C 122.267,57.1053 122.6,51.772 123.5,46.5C 123.872,42.7029 125.206,39.3695 127.5,36.5C 128.906,36.0269 129.573,35.0269 129.5,33.5C 132.816,28.669 137.149,25.0024 142.5,22.5C 148.167,21.1667 153.833,21.1667 159.5,22.5 Z"/></g>
<g><path style="opacity:1" fill="#fafafa" d="M 93.5,28.5 C 93.9731,29.9063 94.9731,30.573 96.5,30.5C 101.302,33.6436 104.635,37.977 106.5,43.5C 106.259,45.8984 106.926,47.8984 108.5,49.5C 108.5,54.5 108.5,59.5 108.5,64.5C 106.874,67.6248 105.54,70.9581 104.5,74.5C 95.6516,86.9174 85.1516,88.5841 73,79.5C 66.0211,70.7237 63.1878,60.7237 64.5,49.5C 67.1952,46.4215 68.5285,42.7548 68.5,38.5C 69.7573,35.5726 71.7573,33.2393 74.5,31.5C 76.4044,31.2624 77.7377,30.2624 78.5,28.5C 83.3691,27.2492 88.3691,27.2492 93.5,28.5 Z"/></g>
<g><path style="opacity:1" fill="#a1a1a1" d="M 157.5,28.5 C 152.463,28.4126 147.463,28.746 142.5,29.5C 147.293,25.9421 152.293,25.6088 157.5,28.5 Z"/></g>
<g><path style="opacity:1" fill="#fbfbfb" d="M 157.5,28.5 C 163.897,31.2306 168.23,35.8973 170.5,42.5C 172.252,48.6808 172.919,55.0141 172.5,61.5C 172.5,61.8333 172.5,62.1667 172.5,62.5C 171.076,64.5145 170.41,66.8478 170.5,69.5C 169.833,70.8333 169.167,72.1667 168.5,73.5C 167.094,73.9731 166.427,74.9731 166.5,76.5C 160.802,83.5138 153.469,86.3471 144.5,85C 142.934,84.3918 141.6,83.5585 140.5,82.5C 140.027,81.0937 139.027,80.427 137.5,80.5C 128.329,69.1464 126.163,56.4798 131,42.5C 132.116,39.2444 133.949,36.5777 136.5,34.5C 139.089,33.5806 141.089,31.914 142.5,29.5C 147.463,28.746 152.463,28.4126 157.5,28.5 Z"/></g>
<g><path style="opacity:1" fill="#939393" d="M 78.5,28.5 C 77.7377,30.2624 76.4044,31.2624 74.5,31.5C 75.2623,29.7376 76.5956,28.7376 78.5,28.5 Z"/></g>
<g><path style="opacity:1" fill="#616161" d="M 93.5,28.5 C 95.0269,28.427 96.0269,29.0937 96.5,30.5C 94.9731,30.573 93.9731,29.9063 93.5,28.5 Z"/></g>
<g><path style="opacity:1" fill="#b2b2b2" d="M 142.5,29.5 C 141.089,31.914 139.089,33.5806 136.5,34.5C 137.911,32.086 139.911,30.4194 142.5,29.5 Z"/></g>
<g><path style="opacity:1" fill="#6e6e6e" d="M 64.5,33.5 C 64.573,35.0269 63.9063,36.0269 62.5,36.5C 62.427,34.9731 63.0937,33.9731 64.5,33.5 Z"/></g>
<g><path style="opacity:1" fill="#686868" d="M 129.5,33.5 C 129.573,35.0269 128.906,36.0269 127.5,36.5C 127.427,34.9731 128.094,33.9731 129.5,33.5 Z"/></g>
<g><path style="opacity:1" fill="#c4c4c4" d="M 68.5,38.5 C 68.5285,42.7548 67.1952,46.4215 64.5,49.5C 64.6667,45.3266 66,41.6599 68.5,38.5 Z"/></g>
<g><path style="opacity:1" fill="#727272" d="M 106.5,43.5 C 108.074,45.1016 108.741,47.1016 108.5,49.5C 106.926,47.8984 106.259,45.8984 106.5,43.5 Z"/></g>
<g><path style="opacity:1" fill="#6c6c6c" d="M 170.5,42.5 C 171.966,43.347 172.8,44.6803 173,46.5C 173.816,51.6842 173.65,56.6842 172.5,61.5C 172.919,55.0141 172.252,48.6808 170.5,42.5 Z"/></g>
<g><path style="opacity:1" fill="#878787" d="M 113.5,45.5 C 114.222,45.9175 114.722,46.5842 115,47.5C 115.816,52.6842 115.65,57.6842 114.5,62.5C 114.625,56.7969 114.292,51.1302 113.5,45.5 Z"/></g>
<g><path style="opacity:1" fill="#b2b2b2" d="M 123.5,46.5 C 122.6,51.772 122.267,57.1053 122.5,62.5C 121.35,57.6842 121.184,52.6842 122,47.5C 122.383,46.944 122.883,46.6107 123.5,46.5 Z"/></g>
<g><path style="opacity:1" fill="#6b6b6b" d="M 172.5,62.5 C 172.59,65.1522 171.924,67.4855 170.5,69.5C 170.41,66.8478 171.076,64.5145 172.5,62.5 Z"/></g>
<g><path style="opacity:1" fill="#8f8f8f" d="M 114.5,64.5 C 114.41,66.6963 114.077,68.863 113.5,71C 113.316,72.3756 112.649,73.2089 111.5,73.5C 112.054,70.2542 113.054,67.2542 114.5,64.5 Z"/></g>
<g><path style="opacity:1" fill="#b2b2b2" d="M 122.5,62.5 C 123.371,65.003 124.037,67.6697 124.5,70.5C 122.631,68.3647 121.964,65.6981 122.5,62.5 Z"/></g>
<g><path style="opacity:1" fill="#3d3d3d" d="M 108.5,64.5 C 108.322,67.2165 107.822,69.8832 107,72.5C 106.583,73.756 105.75,74.4226 104.5,74.5C 105.54,70.9581 106.874,67.6248 108.5,64.5 Z"/></g>
<g><path style="opacity:1" fill="#141414" d="M 61.5,89.5 C 61.427,91.0269 62.0937,92.0269 63.5,92.5C 67.1543,102.003 67.4877,111.67 64.5,121.5C 62.7497,122.659 61.7497,124.326 61.5,126.5C 58.0379,130.733 53.7046,133.733 48.5,135.5C 42.7362,135.563 37.0696,134.897 31.5,133.5C 28.9438,132.457 26.7772,130.79 25,128.5C 21.711,124.907 19.211,120.907 17.5,116.5C 17.5905,113.848 16.9238,111.515 15.5,109.5C 14.2984,104.311 14.2984,98.9773 15.5,93.5C 17.2451,91.9674 18.2451,89.9674 18.5,87.5C 26.8669,73.5534 38.2002,70.7201 52.5,79C 56.0845,82.0781 59.0845,85.5781 61.5,89.5 Z"/></g>
<g><path style="opacity:1" fill="#929292" d="M 61.5,73.5 C 62.9063,73.9731 63.573,74.9731 63.5,76.5C 62.0937,76.0269 61.427,75.0269 61.5,73.5 Z"/></g>
<g><path style="opacity:1" fill="#6b6b6b" d="M 168.5,73.5 C 168.573,75.0269 167.906,76.0269 166.5,76.5C 166.427,74.9731 167.094,73.9731 168.5,73.5 Z"/></g>
<g><path style="opacity:1" fill="#131313" d="M 219.5,88.5 C 220.892,94.7485 221.558,101.082 221.5,107.5C 221.5,108.833 221.5,110.167 221.5,111.5C 219.759,113.395 218.759,115.728 218.5,118.5C 211.121,133.525 199.455,138.692 183.5,134C 178.866,131.206 175.533,127.373 173.5,122.5C 173.88,120.302 173.213,118.635 171.5,117.5C 171.5,116.5 171.5,115.5 171.5,114.5C 171.653,108.155 171.986,101.822 172.5,95.5C 173.906,95.0269 174.573,94.0269 174.5,92.5C 182.14,76.3501 194.14,71.5168 210.5,78C 214.107,81.0977 217.107,84.5977 219.5,88.5 Z"/></g>
<g><path style="opacity:1" fill="#a2a2a2" d="M 175.5,73.5 C 175.408,75.8477 174.408,77.5144 172.5,78.5C 172.75,76.326 173.75,74.6594 175.5,73.5 Z"/></g>
<g><path style="opacity:1" fill="#8b8b8b" d="M 46.5,82.5 C 41.0386,80.9476 35.7052,81.281 30.5,83.5C 32.7586,81.2445 35.592,80.2445 39,80.5C 41.8211,80.4078 44.3211,81.0744 46.5,82.5 Z"/></g>
<g><path style="opacity:1" fill="#8b8b8b" d="M 137.5,80.5 C 139.027,80.427 140.027,81.0937 140.5,82.5C 138.973,82.573 137.973,81.9063 137.5,80.5 Z"/></g>
<g><path style="opacity:1" fill="#fafafa" d="M 46.5,82.5 C 51.8087,85.4548 55.4754,89.7881 57.5,95.5C 59.155,101.346 59.8217,107.346 59.5,113.5C 56.4968,128.501 47.8302,133.335 33.5,128C 28.7672,124.448 25.4338,119.948 23.5,114.5C 22.6591,107.535 22.3257,100.535 22.5,93.5C 22.5,93.1667 22.5,92.8333 22.5,92.5C 23.9063,92.0269 24.573,91.0269 24.5,89.5C 25.5222,86.4777 27.5222,84.4777 30.5,83.5C 35.7052,81.281 41.0386,80.9476 46.5,82.5 Z"/></g>
<g><path style="opacity:1" fill="#f9f9f9" d="M 209.5,85.5 C 210.08,87.7488 211.413,89.4154 213.5,90.5C 217.069,97.9135 217.402,105.58 214.5,113.5C 212.755,115.033 211.755,117.033 211.5,119.5C 207.051,125.723 201.051,129.39 193.5,130.5C 186.492,129.827 181.826,126.16 179.5,119.5C 177.958,110.727 178.291,102.06 180.5,93.5C 184.972,83.3585 192.639,79.3585 203.5,81.5C 205.901,82.3576 207.901,83.691 209.5,85.5 Z"/></g>
<g><path style="opacity:1" fill="#acacac" d="M 209.5,85.5 C 211.587,86.5846 212.92,88.2512 213.5,90.5C 211.413,89.4154 210.08,87.7488 209.5,85.5 Z"/></g>
<g><path style="opacity:1" fill="#616161" d="M 72.5,86.5 C 74.0269,86.427 75.0269,87.0937 75.5,88.5C 73.9731,88.573 72.9731,87.9063 72.5,86.5 Z"/></g>
<g><path style="opacity:1" fill="#919191" d="M 18.5,87.5 C 18.2451,89.9674 17.2451,91.9674 15.5,93.5C 15.7549,91.0326 16.7549,89.0326 18.5,87.5 Z"/></g>
<g><path style="opacity:1" fill="#717171" d="M 24.5,89.5 C 24.573,91.0269 23.9063,92.0269 22.5,92.5C 22.427,90.9731 23.0937,89.9731 24.5,89.5 Z"/></g>
<g><path style="opacity:1" fill="#818181" d="M 61.5,89.5 C 62.9063,89.9731 63.573,90.9731 63.5,92.5C 62.0937,92.0269 61.427,91.0269 61.5,89.5 Z"/></g>
<g><path style="opacity:1" fill="#777777" d="M 174.5,92.5 C 174.573,94.0269 173.906,95.0269 172.5,95.5C 172.427,93.9731 173.094,92.9731 174.5,92.5 Z"/></g>
<g><path style="opacity:1" fill="#151515" d="M 128.5,99.5 C 130.102,101.074 132.102,101.741 134.5,101.5C 137.428,102.817 140.428,104.15 143.5,105.5C 143.973,106.906 144.973,107.573 146.5,107.5C 153.674,113.509 160.007,120.342 165.5,128C 172.912,132.741 179.745,138.241 186,144.5C 188.372,147.91 190.205,151.577 191.5,155.5C 191.796,157.403 192.463,159.07 193.5,160.5C 194.423,169.894 193.09,178.894 189.5,187.5C 185.873,192.794 181.54,197.461 176.5,201.5C 173.279,201.896 170.612,203.229 168.5,205.5C 158.782,208.329 149.115,208.163 139.5,205C 138.167,204 136.833,203 135.5,202C 125.552,200.469 115.552,200.135 105.5,201C 92.9052,208.15 79.7385,209.317 66,204.5C 55.3411,199.019 48.1744,190.686 44.5,179.5C 43.1667,172.5 43.1667,165.5 44.5,158.5C 47.5959,148.302 53.5959,140.302 62.5,134.5C 64.0269,134.573 65.0269,133.906 65.5,132.5C 74.4735,123.861 83.4735,115.194 92.5,106.5C 94.0269,106.573 95.0269,105.906 95.5,104.5C 96.8333,103.833 98.1667,103.167 99.5,102.5C 102.746,101.946 105.746,100.946 108.5,99.5C 115.116,98.2932 121.782,98.2932 128.5,99.5 Z"/></g>
<g><path style="opacity:1" fill="#8e8e8e" d="M 128.5,99.5 C 130.898,99.2594 132.898,99.9261 134.5,101.5C 132.102,101.741 130.102,101.074 128.5,99.5 Z"/></g>
<g><path style="opacity:1" fill="#a5a5a5" d="M 108.5,99.5 C 105.746,100.946 102.746,101.946 99.5,102.5C 102.008,100.446 105.008,99.446 108.5,99.5 Z"/></g>
<g><path style="opacity:1" fill="#4a4a4a" d="M 219.5,88.5 C 222.427,94.6288 223.093,100.962 221.5,107.5C 221.558,101.082 220.892,94.7485 219.5,88.5 Z"/></g>
<g><path style="opacity:1" fill="#606060" d="M 95.5,104.5 C 95.0269,105.906 94.0269,106.573 92.5,106.5C 92.9731,105.094 93.9731,104.427 95.5,104.5 Z"/></g>
<g><path style="opacity:1" fill="#aeaeae" d="M 22.5,93.5 C 22.3257,100.535 22.6591,107.535 23.5,114.5C 20.0839,107.607 19.7506,100.607 22.5,93.5 Z"/></g>
<g><path style="opacity:1" fill="#fcfcfc" d="M 110.5,105.5 C 117.211,105.287 123.877,105.62 130.5,106.5C 132.509,108.065 134.843,109.065 137.5,109.5C 143.126,112.465 147.793,116.465 151.5,121.5C 152.08,123.749 153.413,125.415 155.5,126.5C 164.208,134.277 173.042,141.944 182,149.5C 187.543,158.439 189.043,168.105 186.5,178.5C 184.935,180.509 183.935,182.843 183.5,185.5C 180.14,189.527 176.473,193.194 172.5,196.5C 170.033,196.755 168.033,197.755 166.5,199.5C 156.769,202.648 147.436,201.982 138.5,197.5C 138.027,196.094 137.027,195.427 135.5,195.5C 126.207,194.582 116.873,194.248 107.5,194.5C 103.838,194.723 100.505,195.723 97.5,197.5C 95.9731,197.427 94.9731,198.094 94.5,199.5C 86.8958,201.892 79.2292,202.059 71.5,200C 69.5087,199.626 67.842,198.793 66.5,197.5C 65.7377,195.738 64.4044,194.738 62.5,194.5C 57.7661,191.097 54.0995,186.764 51.5,181.5C 51.5905,178.848 50.9238,176.515 49.5,174.5C 48.2541,156.16 55.9208,142.993 72.5,135C 80.2533,127.583 87.5866,119.917 94.5,112C 97.11,110.519 99.7766,109.352 102.5,108.5C 105.397,107.871 108.064,106.871 110.5,105.5 Z"/></g>
<g><path style="opacity:1" fill="#5a5a5a" d="M 130.5,106.5 C 133.491,106.166 135.824,107.166 137.5,109.5C 134.843,109.065 132.509,108.065 130.5,106.5 Z"/></g>
<g><path style="opacity:1" fill="#868686" d="M 143.5,105.5 C 145.027,105.427 146.027,106.094 146.5,107.5C 144.973,107.573 143.973,106.906 143.5,105.5 Z"/></g>
<g><path style="opacity:1" fill="#c4c4c4" d="M 180.5,93.5 C 178.291,102.06 177.958,110.727 179.5,119.5C 178.883,119.389 178.383,119.056 178,118.5C 176,111.5 176,104.5 178,97.5C 178.608,95.9336 179.442,94.6002 180.5,93.5 Z"/></g>
<g><path style="opacity:1" fill="#afafaf" d="M 57.5,95.5 C 58.793,96.842 59.6264,98.5087 60,100.5C 60.8136,105.02 60.647,109.354 59.5,113.5C 59.8217,107.346 59.155,101.346 57.5,95.5 Z"/></g>
<g><path style="opacity:1" fill="#858585" d="M 110.5,105.5 C 108.064,106.871 105.397,107.871 102.5,108.5C 104.617,106.345 107.284,105.345 110.5,105.5 Z"/></g>
<g><path style="opacity:1" fill="#474747" d="M 172.5,95.5 C 171.986,101.822 171.653,108.155 171.5,114.5C 170.837,112.359 170.503,110.025 170.5,107.5C 170.411,103.239 171.078,99.239 172.5,95.5 Z"/></g>
<g><path style="opacity:1" fill="#717171" d="M 15.5,109.5 C 16.9238,111.515 17.5905,113.848 17.5,116.5C 16.0762,114.485 15.4095,112.152 15.5,109.5 Z"/></g>
<g><path style="opacity:1" fill="#5c5c5c" d="M 221.5,111.5 C 221.241,114.272 220.241,116.605 218.5,118.5C 218.759,115.728 219.759,113.395 221.5,111.5 Z"/></g>
<g><path style="opacity:1" fill="#7b7b7b" d="M 214.5,113.5 C 214.245,115.967 213.245,117.967 211.5,119.5C 211.755,117.033 212.755,115.033 214.5,113.5 Z"/></g>
<g><path style="opacity:1" fill="#696969" d="M 171.5,117.5 C 173.213,118.635 173.88,120.302 173.5,122.5C 172.463,121.07 171.796,119.403 171.5,117.5 Z"/></g>
<g><path style="opacity:1" fill="#b1b1b1" d="M 151.5,121.5 C 153.587,122.585 154.92,124.251 155.5,126.5C 153.413,125.415 152.08,123.749 151.5,121.5 Z"/></g>
<g><path style="opacity:1" fill="#b2b2b2" d="M 64.5,121.5 C 64.4077,123.848 63.4077,125.514 61.5,126.5C 61.7497,124.326 62.7497,122.659 64.5,121.5 Z"/></g>
<g><path style="opacity:1" fill="#696969" d="M 65.5,132.5 C 65.0269,133.906 64.0269,134.573 62.5,134.5C 62.9731,133.094 63.9731,132.427 65.5,132.5 Z"/></g>
<g><path style="opacity:1" fill="#383838" d="M 31.5,133.5 C 37.0696,134.897 42.7362,135.563 48.5,135.5C 44.6888,136.645 40.6888,136.812 36.5,136C 34.5087,135.626 32.842,134.793 31.5,133.5 Z"/></g>
<g><path style="opacity:1" fill="#969696" d="M 191.5,155.5 C 193.213,156.635 193.88,158.302 193.5,160.5C 192.463,159.07 191.796,157.403 191.5,155.5 Z"/></g>
<g><path style="opacity:1" fill="#959595" d="M 44.5,158.5 C 43.1667,165.5 43.1667,172.5 44.5,179.5C 43.7784,179.082 43.2784,178.416 43,177.5C 42.8333,174.833 42.6667,172.167 42.5,169.5C 42.2942,165.531 42.9608,161.865 44.5,158.5 Z"/></g>
<g><path style="opacity:1" fill="#606060" d="M 49.5,174.5 C 50.9238,176.515 51.5905,178.848 51.5,181.5C 50.0762,179.485 49.4095,177.152 49.5,174.5 Z"/></g>
<g><path style="opacity:1" fill="#5c5c5c" d="M 186.5,178.5 C 186.834,181.491 185.834,183.824 183.5,185.5C 183.935,182.843 184.935,180.509 186.5,178.5 Z"/></g>
<g><path style="opacity:1" fill="#969696" d="M 193.5,160.5 C 194.653,166.319 194.819,172.319 194,178.5C 192.981,181.872 191.481,184.872 189.5,187.5C 193.09,178.894 194.423,169.894 193.5,160.5 Z"/></g>
<g><path style="opacity:1" fill="#989898" d="M 62.5,194.5 C 64.4044,194.738 65.7377,195.738 66.5,197.5C 64.5956,197.262 63.2623,196.262 62.5,194.5 Z"/></g>
<g><path style="opacity:1" fill="#555555" d="M 107.5,194.5 C 104.495,196.277 101.162,197.277 97.5,197.5C 100.505,195.723 103.838,194.723 107.5,194.5 Z"/></g>
<g><path style="opacity:1" fill="#818181" d="M 135.5,195.5 C 137.027,195.427 138.027,196.094 138.5,197.5C 136.973,197.573 135.973,196.906 135.5,195.5 Z"/></g>
<g><path style="opacity:1" fill="#6b6b6b" d="M 97.5,197.5 C 97.0269,198.906 96.0269,199.573 94.5,199.5C 94.9731,198.094 95.9731,197.427 97.5,197.5 Z"/></g>
<g><path style="opacity:1" fill="#696969" d="M 172.5,196.5 C 170.967,198.245 168.967,199.245 166.5,199.5C 168.033,197.755 170.033,196.755 172.5,196.5 Z"/></g>
<g><path style="opacity:1" fill="#acacac" d="M 176.5,201.5 C 174.388,203.771 171.721,205.104 168.5,205.5C 170.612,203.229 173.279,201.896 176.5,201.5 Z"/></g>
</svg>
