<?xml version="1.0" encoding="UTF-8"?>
<svg xmlns="http://www.w3.org/2000/svg" xmlns:xlink="http://www.w3.org/1999/xlink" width="500px" height="500px" viewBox="0 0 500 500" version="1.1">
<g id="surface1">
<path style=" stroke:none;fill-rule:evenodd;fill:rgb(99.607843%,99.607843%,99.607843%);fill-opacity:1;" d="M -0.355469 -0.355469 C 166.308594 -0.355469 332.976562 -0.355469 499.644531 -0.355469 C 499.644531 166.308594 499.644531 332.976562 499.644531 499.644531 C 332.976562 499.644531 166.308594 499.644531 -0.355469 499.644531 C -0.355469 332.976562 -0.355469 166.308594 -0.355469 -0.355469 Z M -0.355469 -0.355469 "/>
<path style=" stroke:none;fill-rule:evenodd;fill:rgb(68.235294%,59.607843%,50.196078%);fill-opacity:1;" d="M 360.355469 337.5 C 360.203125 338.699219 360.679688 339.414062 361.785156 339.644531 C 360.679688 352.011719 357.109375 363.675781 351.070312 374.644531 C 350.539062 375.953125 349.824219 377.140625 348.929688 378.214844 C 338.789062 393.710938 325.574219 405.855469 309.285156 414.644531 C 309.152344 416.453125 308.796875 418.121094 308.214844 419.644531 C 308.90625 413.40625 307.480469 407.691406 303.929688 402.5 C 318.449219 397.445312 330.710938 389.113281 340.714844 377.5 C 351.988281 362.4375 354.015625 346.246094 346.785156 328.929688 C 346.195312 328.296875 345.480469 328.058594 344.644531 328.214844 C 352.996094 349.953125 348.472656 368.644531 331.070312 384.285156 C 322.105469 391.449219 312.226562 397.042969 301.429688 401.070312 C 302.613281 404.644531 304.039062 408.214844 305.714844 411.785156 C 306.070312 413.4375 306.1875 415.101562 306.070312 416.785156 C 293.46875 422.8125 280.375 427.097656 266.785156 429.644531 C 264.296875 427.550781 263.105469 424.8125 263.214844 421.429688 C 265.996094 407.707031 268.972656 394.015625 272.144531 380.355469 C 278.027344 365.257812 284.691406 350.496094 292.144531 336.070312 C 297.136719 324.90625 299.28125 313.238281 298.570312 301.070312 C 298.488281 298.5625 297.652344 296.421875 296.070312 294.644531 C 297.703125 309.304688 295.4375 323.351562 289.285156 336.785156 C 284.046875 347.738281 278.808594 358.691406 273.570312 369.644531 C 271.621094 374.546875 269.953125 379.546875 268.570312 384.644531 C 266.339844 395.386719 263.960938 406.101562 261.429688 416.785156 C 260.425781 421.71875 261.257812 426.242188 263.929688 430.355469 C 250.042969 431.648438 236.234375 431.171875 222.5 428.929688 C 225.078125 380.710938 227.699219 332.496094 230.355469 284.285156 C 230.121094 281.546875 229.878906 278.808594 229.644531 276.070312 C 229.40625 276.191406 229.167969 276.308594 228.929688 276.429688 C 225.421875 328.019531 222.324219 379.566406 219.644531 431.070312 C 219.644531 430.355469 219.644531 429.644531 219.644531 428.929688 C 212.953125 429.195312 206.285156 429.789062 199.644531 430.714844 C 192.503906 431.070312 185.363281 431.191406 178.214844 431.070312 C 180.886719 426.957031 181.71875 422.433594 180.714844 417.5 C 177.019531 405.695312 173.6875 393.789062 170.714844 381.785156 C 166.109375 368.769531 161.109375 355.914062 155.714844 343.214844 C 150.304688 330.035156 147.328125 316.34375 146.785156 302.144531 C 146.882812 297.960938 147.121094 293.792969 147.5 289.644531 C 146.785156 289.644531 146.070312 289.644531 145.355469 289.644531 C 143 302.21875 143.832031 314.597656 147.855469 326.785156 C 154.242188 344.984375 160.90625 363.078125 167.855469 381.070312 C 171.546875 393.679688 175.117188 406.300781 178.570312 418.929688 C 179.6875 423.824219 178.378906 427.871094 174.644531 431.070312 C 160.894531 428.394531 147.5625 424.109375 134.644531 418.214844 C 134.074219 418.539062 133.835938 419.015625 133.929688 419.644531 C 133.117188 417.882812 133 415.976562 133.570312 413.929688 C 135.371094 409.382812 137.15625 404.859375 138.929688 400.355469 C 121.542969 395.652344 107.136719 386.367188 95.714844 372.5 C 86.191406 358.59375 85.121094 344.070312 92.5 328.929688 C 91.679688 328.050781 90.84375 328.050781 90 328.929688 C 81.914062 346.839844 84.296875 363.269531 97.144531 378.214844 C 108.09375 389.46875 121.070312 397.5625 136.070312 402.5 C 133.410156 406.675781 131.742188 411.199219 131.070312 416.070312 C 109.691406 405.527344 93.621094 389.574219 82.855469 368.214844 C 74.34375 349.414062 74.820312 330.84375 84.285156 312.5 C 83.558594 268.390625 86.890625 224.582031 94.285156 181.070312 C 100.214844 151.125 110.929688 123.03125 126.429688 96.785156 C 135.359375 80.710938 145.953125 65.832031 158.214844 52.144531 C 163.417969 48.308594 167.824219 49.140625 171.429688 54.644531 C 176.117188 63.1875 180.523438 71.878906 184.644531 80.714844 C 206.539062 79.183594 228.441406 79.304688 250.355469 81.070312 C 252.023438 80.832031 253.691406 80.59375 255.355469 80.355469 C 259.585938 70.109375 264.824219 60.464844 271.070312 51.429688 C 273.730469 49.320312 276.589844 49.082031 279.644531 50.714844 C 291.410156 62.953125 301.527344 76.40625 310 91.070312 C 330.210938 124.085938 343.070312 159.796875 348.570312 198.214844 C 353.632812 236.394531 355.300781 274.726562 353.570312 313.214844 C 356.933594 321.03125 359.195312 329.125 360.355469 337.5 Z M 360.355469 337.5 "/>
<path style=" stroke:none;fill-rule:evenodd;fill:rgb(10.196078%,10.588235%,18.039216%);fill-opacity:1;" d="M 274.644531 61.785156 C 277.574219 61.261719 280.074219 61.976562 282.144531 63.929688 C 286.460938 69.941406 288.960938 76.609375 289.644531 83.929688 C 288.929688 83.929688 288.214844 83.929688 287.5 83.929688 C 286.722656 77.429688 284.460938 71.476562 280.714844 66.070312 C 278.570312 63.214844 276.429688 63.214844 274.285156 66.070312 C 271.054688 72.433594 268.671875 79.097656 267.144531 86.070312 C 266.023438 88.738281 265.191406 88.738281 264.644531 86.070312 C 266.460938 77.273438 269.792969 69.175781 274.644531 61.785156 Z M 274.644531 61.785156 "/>
<path style=" stroke:none;fill-rule:evenodd;fill:rgb(9.411765%,9.803922%,17.647059%);fill-opacity:1;" d="M 161.070312 61.785156 C 164.738281 61.019531 167.476562 62.210938 169.285156 65.355469 C 172.722656 72.695312 175.222656 80.3125 176.785156 88.214844 C 176.070312 88.214844 175.355469 88.214844 174.644531 88.214844 C 173.027344 81.105469 170.765625 74.203125 167.855469 67.5 C 166.773438 64.367188 164.75 63.414062 161.785156 64.644531 C 157.273438 70.316406 154.417969 76.746094 153.214844 83.929688 C 152.5 83.929688 151.785156 83.929688 151.070312 83.929688 C 152.285156 75.550781 155.621094 68.167969 161.070312 61.785156 Z M 161.070312 61.785156 "/>
<path style=" stroke:none;fill-rule:evenodd;fill:rgb(9.803922%,10.196078%,17.647059%);fill-opacity:1;" d="M 224.644531 84.644531 C 234.785156 88.261719 239.070312 95.402344 237.5 106.070312 C 236.871094 100.042969 234.488281 94.683594 230.355469 90 C 228.089844 88.75 225.949219 87.320312 223.929688 85.714844 C 224.324219 85.441406 224.5625 85.082031 224.644531 84.644531 Z M 224.644531 84.644531 "/>
<path style=" stroke:none;fill-rule:evenodd;fill:rgb(9.803922%,10.196078%,18.039216%);fill-opacity:1;" d="M 216.070312 84.644531 C 222.421875 86.824219 226.824219 91.109375 229.285156 97.5 C 229.875 100.386719 229.757812 103.242188 228.929688 106.070312 C 227.921875 97.058594 223.398438 90.273438 215.355469 85.714844 C 215.753906 85.441406 215.992188 85.082031 216.070312 84.644531 Z M 216.070312 84.644531 "/>
<path style=" stroke:none;fill-rule:evenodd;fill:rgb(9.411765%,9.803922%,17.647059%);fill-opacity:1;" d="M 206.070312 84.644531 C 216.214844 88.261719 220.5 95.402344 218.929688 106.070312 C 218.296875 100.042969 215.917969 94.683594 211.785156 90 C 209.519531 88.75 207.378906 87.320312 205.355469 85.714844 C 205.753906 85.441406 205.992188 85.082031 206.070312 84.644531 Z M 206.070312 84.644531 "/>
<path style=" stroke:none;fill-rule:evenodd;fill:rgb(98.823529%,98.823529%,98.823529%);fill-opacity:1;" d="M 351.070312 374.644531 C 357.109375 363.675781 360.679688 352.011719 361.785156 339.644531 C 377.660156 331.265625 387.300781 318.167969 390.714844 300.355469 C 394.234375 282.6875 393.996094 265.066406 390 247.5 C 385.199219 229.046875 379.960938 210.710938 374.285156 192.5 C 368.1875 173.960938 366.996094 155.152344 370.714844 136.070312 C 373.800781 124.421875 380.585938 115.734375 391.070312 110 C 401.382812 107.953125 408.644531 111.644531 412.855469 121.070312 C 413.839844 127.554688 412.054688 133.152344 407.5 137.855469 C 402.523438 140.285156 398.121094 143.5 394.285156 147.5 C 392.25 150.78125 391.414062 154.355469 391.785156 158.214844 C 392.714844 171.304688 394.976562 184.164062 398.570312 196.785156 C 405.402344 216.167969 411.832031 235.691406 417.855469 255.355469 C 431.539062 315.632812 409.277344 355.394531 351.070312 374.644531 Z M 351.070312 374.644531 "/>
<path style=" stroke:none;fill-rule:evenodd;fill:rgb(8.627451%,9.411765%,17.254902%);fill-opacity:1;" d="M 206.785156 122.5 C 211.652344 122.492188 213.4375 124.875 212.144531 129.644531 C 210.054688 133.023438 207.675781 133.261719 205 130.355469 C 204.152344 127.328125 204.746094 124.707031 206.785156 122.5 Z M 206.785156 122.5 "/>
<path style=" stroke:none;fill-rule:evenodd;fill:rgb(8.627451%,9.411765%,17.254902%);fill-opacity:1;" d="M 239.644531 122.5 C 244.863281 122.617188 246.648438 125.238281 245 130.355469 C 242.621094 133.214844 240.238281 133.214844 237.855469 130.355469 C 237.007812 127.328125 237.605469 124.707031 239.644531 122.5 Z M 239.644531 122.5 "/>
<path style=" stroke:none;fill-rule:evenodd;fill:rgb(12.156863%,12.156863%,18.823529%);fill-opacity:1;" d="M 191.070312 153.214844 C 190.519531 153.675781 189.804688 153.914062 188.929688 153.929688 C 182.761719 152.980469 176.570312 152.265625 170.355469 151.785156 C 157.839844 150.070312 145.222656 148.40625 132.5 146.785156 C 132.5 146.070312 132.5 145.355469 132.5 144.644531 C 151.773438 146.960938 171.058594 149.222656 190.355469 151.429688 C 190.894531 151.90625 191.132812 152.503906 191.070312 153.214844 Z M 191.070312 153.214844 "/>
<path style=" stroke:none;fill-rule:evenodd;fill:rgb(10.588235%,10.588235%,18.039216%);fill-opacity:1;" d="M 276.070312 151.785156 C 269.675781 152.652344 263.246094 153.128906 256.785156 153.214844 C 256.722656 152.503906 256.960938 151.90625 257.5 151.429688 C 276.765625 148.859375 296.050781 146.714844 315.355469 145 C 316.308594 145.476562 316.308594 145.953125 315.355469 146.429688 C 302.152344 148.167969 289.054688 149.953125 276.070312 151.785156 Z M 276.070312 151.785156 "/>
<path style=" stroke:none;fill-rule:evenodd;fill:rgb(84.313725%,69.019608%,49.803922%);fill-opacity:1;" d="M 170.355469 151.785156 C 176.570312 152.265625 182.761719 152.980469 188.929688 153.929688 C 189.804688 153.914062 190.519531 153.675781 191.070312 153.214844 C 194.90625 156.601562 196.8125 160.886719 196.785156 166.070312 C 194.316406 169.851562 191.222656 173.066406 187.5 175.714844 C 187.875 176.207031 188.351562 176.566406 188.929688 176.785156 C 191.578125 175.464844 193.960938 173.796875 196.070312 171.785156 C 190.933594 183.210938 182.363281 186.664062 170.355469 182.144531 C 164.828125 178.824219 161.730469 173.945312 161.070312 167.5 C 170.34375 166.164062 179.628906 164.855469 188.929688 163.570312 C 189.527344 162.847656 189.765625 162.015625 189.644531 161.070312 C 180.59375 162.261719 171.546875 163.453125 162.5 164.644531 C 161.789062 164.664062 161.3125 164.308594 161.070312 163.570312 C 162.066406 157.839844 165.164062 153.914062 170.355469 151.785156 Z M 170.355469 151.785156 "/>
<path style=" stroke:none;fill-rule:evenodd;fill:rgb(84.313725%,68.627451%,49.803922%);fill-opacity:1;" d="M 276.070312 151.785156 C 278.929688 152.121094 281.191406 153.550781 282.855469 156.070312 C 284.566406 158.695312 285.636719 161.550781 286.070312 164.644531 C 277.429688 163.988281 268.855469 162.796875 260.355469 161.070312 C 258.4375 161.21875 257.964844 162.054688 258.929688 163.570312 C 267.964844 165 277.015625 166.308594 286.070312 167.5 C 283.363281 180.289062 275.507812 185.644531 262.5 183.570312 C 253.96875 180.210938 250.160156 174.140625 251.070312 165.355469 C 253.300781 171.160156 257.351562 174.972656 263.214844 176.785156 C 263.371094 175.945312 263.132812 175.230469 262.5 174.644531 C 256.644531 171.257812 253.070312 166.257812 251.785156 159.644531 C 252.109375 157.757812 252.945312 156.089844 254.285156 154.644531 C 254.867188 153.699219 255.703125 153.222656 256.785156 153.214844 C 263.246094 153.128906 269.675781 152.652344 276.070312 151.785156 Z M 276.070312 151.785156 "/>
<path style=" stroke:none;fill-rule:evenodd;fill:rgb(9.803922%,10.196078%,17.647059%);fill-opacity:1;" d="M 196.070312 171.785156 C 193.960938 173.796875 191.578125 175.464844 188.929688 176.785156 C 188.351562 176.566406 187.875 176.207031 187.5 175.714844 C 191.222656 173.066406 194.316406 169.851562 196.785156 166.070312 C 200.8125 158.792969 200.457031 151.648438 195.714844 144.644531 C 193.167969 142.097656 190.667969 139.597656 188.214844 137.144531 C 188.984375 136.039062 189.9375 136.039062 191.070312 137.144531 C 203.441406 147.101562 205.109375 158.648438 196.070312 171.785156 Z M 196.070312 171.785156 "/>
<path style=" stroke:none;fill-rule:evenodd;fill:rgb(9.411765%,9.803922%,17.647059%);fill-opacity:1;" d="M 221.070312 137.5 C 223.464844 137.382812 225.84375 137.5 228.214844 137.855469 C 230.625 138.59375 231.457031 140.140625 230.714844 142.5 C 229.554688 144.378906 228.125 146.042969 226.429688 147.5 C 225.402344 155.753906 228.855469 158.492188 236.785156 155.714844 C 238.378906 154.800781 239.570312 153.492188 240.355469 151.785156 C 241.628906 152.390625 241.988281 153.34375 241.429688 154.644531 C 237.835938 158.539062 233.433594 159.847656 228.214844 158.570312 C 226.925781 157.878906 225.734375 157.042969 224.644531 156.070312 C 220.144531 159.402344 215.382812 159.757812 210.355469 157.144531 C 208.988281 156.132812 208.039062 154.824219 207.5 153.214844 C 207.738281 152.5 208.214844 152.023438 208.929688 151.785156 C 211.261719 156.046875 214.832031 157.59375 219.644531 156.429688 C 220.917969 155.867188 221.988281 155.035156 222.855469 153.929688 C 224.207031 149.4375 223.015625 145.867188 219.285156 143.214844 C 218.453125 140.734375 219.050781 138.828125 221.070312 137.5 Z M 221.070312 137.5 "/>
<path style=" stroke:none;fill-rule:evenodd;fill:rgb(9.411765%,9.803922%,17.647059%);fill-opacity:1;" d="M 251.785156 159.644531 C 253.070312 166.257812 256.644531 171.257812 262.5 174.644531 C 263.132812 175.230469 263.371094 175.945312 263.214844 176.785156 C 257.351562 174.972656 253.300781 171.160156 251.070312 165.355469 C 246.578125 152.644531 250.148438 142.882812 261.785156 136.070312 C 262.5 136.308594 262.976562 136.785156 263.214844 137.5 C 254.589844 142.605469 250.78125 149.988281 251.785156 159.644531 Z M 251.785156 159.644531 "/>
<path style=" stroke:none;fill-rule:evenodd;fill:rgb(12.156863%,11.764706%,18.823529%);fill-opacity:1;" d="M 286.070312 164.644531 C 295.753906 166.382812 305.515625 167.808594 315.355469 168.929688 C 315.355469 169.644531 315.355469 170.355469 315.355469 171.070312 C 305.519531 170.480469 295.757812 169.292969 286.070312 167.5 C 277.015625 166.308594 267.964844 165 258.929688 163.570312 C 257.964844 162.054688 258.4375 161.21875 260.355469 161.070312 C 268.855469 162.796875 277.429688 163.988281 286.070312 164.644531 Z M 286.070312 164.644531 "/>
<path style=" stroke:none;fill-rule:evenodd;fill:rgb(12.156863%,11.764706%,18.431373%);fill-opacity:1;" d="M 161.070312 167.5 C 152.511719 168.6875 143.9375 169.878906 135.355469 171.070312 C 131.730469 170.554688 131.730469 169.722656 135.355469 168.570312 C 144.570312 167.6875 153.617188 166.378906 162.5 164.644531 C 171.546875 163.453125 180.59375 162.261719 189.644531 161.070312 C 189.765625 162.015625 189.527344 162.847656 188.929688 163.570312 C 179.628906 164.855469 170.34375 166.164062 161.070312 167.5 Z M 161.070312 167.5 "/>
<path style=" stroke:none;fill-rule:evenodd;fill:rgb(7.843137%,8.627451%,16.470588%);fill-opacity:1;" d="M 231.070312 190.355469 C 232.304688 190.601562 232.660156 191.316406 232.144531 192.5 C 227.9375 196.472656 224.011719 196.234375 220.355469 191.785156 C 220.714844 191.546875 221.070312 191.308594 221.429688 191.070312 C 224.976562 194.140625 228.191406 193.902344 231.070312 190.355469 Z M 231.070312 190.355469 "/>
<path style=" stroke:none;fill-rule:evenodd;fill:rgb(10.980392%,12.156863%,19.215686%);fill-opacity:1;" d="M 348.929688 378.214844 C 349.824219 377.140625 350.539062 375.953125 351.070312 374.644531 C 409.277344 355.394531 431.539062 315.632812 417.855469 255.355469 C 411.832031 235.691406 405.402344 216.167969 398.570312 196.785156 C 394.976562 184.164062 392.714844 171.304688 391.785156 158.214844 C 391.414062 154.355469 392.25 150.78125 394.285156 147.5 C 398.121094 143.5 402.523438 140.285156 407.5 137.855469 C 412.054688 133.152344 413.839844 127.554688 412.855469 121.070312 C 408.644531 111.644531 401.382812 107.953125 391.070312 110 C 380.585938 115.734375 373.800781 124.421875 370.714844 136.070312 C 366.996094 155.152344 368.1875 173.960938 374.285156 192.5 C 379.960938 210.710938 385.199219 229.046875 390 247.5 C 393.996094 265.066406 394.234375 282.6875 390.714844 300.355469 C 387.300781 318.167969 377.660156 331.265625 361.785156 339.644531 C 360.679688 339.414062 360.203125 338.699219 360.355469 337.5 C 372.636719 331.519531 381.089844 321.996094 385.714844 308.929688 C 391.617188 290.128906 392.570312 271.082031 388.570312 251.785156 C 382.296875 228.429688 375.867188 205.097656 369.285156 181.785156 C 365.128906 165.320312 365.128906 148.890625 369.285156 132.5 C 373.023438 121.386719 380.046875 113.175781 390.355469 107.855469 C 398.933594 105.796875 406.195312 108.054688 412.144531 114.644531 C 416.398438 121.738281 416.398438 128.882812 412.144531 136.070312 C 406.636719 140.601562 401.164062 145.125 395.714844 149.644531 C 394.277344 159.179688 394.511719 168.703125 396.429688 178.214844 C 401.796875 199.796875 408.464844 220.984375 416.429688 241.785156 C 426.621094 270.257812 426.382812 298.589844 415.714844 326.785156 C 406.546875 344.523438 393.09375 357.976562 375.355469 367.144531 C 366.695312 371.238281 357.886719 374.925781 348.929688 378.214844 Z M 348.929688 378.214844 "/>
<path style=" stroke:none;fill-rule:evenodd;fill:rgb(10.588235%,11.372549%,18.431373%);fill-opacity:1;" d="M 222.5 428.929688 C 222.464844 434.289062 223.773438 439.289062 226.429688 443.929688 C 231.953125 448.226562 236.359375 447.273438 239.644531 441.070312 C 240.800781 442.253906 241.632812 443.679688 242.144531 445.355469 C 244.570312 448.003906 247.546875 448.835938 251.070312 447.855469 C 254.066406 446.269531 255.257812 443.769531 254.644531 440.355469 C 256.703125 441.632812 258.847656 442.945312 261.070312 444.285156 C 267.027344 445.234375 269.765625 442.734375 269.285156 436.785156 C 268.136719 434.089844 266.347656 431.945312 263.929688 430.355469 C 261.257812 426.242188 260.425781 421.71875 261.429688 416.785156 C 263.960938 406.101562 266.339844 395.386719 268.570312 384.644531 C 269.953125 379.546875 271.621094 374.546875 273.570312 369.644531 C 278.808594 358.691406 284.046875 347.738281 289.285156 336.785156 C 295.4375 323.351562 297.703125 309.304688 296.070312 294.644531 C 297.652344 296.421875 298.488281 298.5625 298.570312 301.070312 C 299.28125 313.238281 297.136719 324.90625 292.144531 336.070312 C 284.691406 350.496094 278.027344 365.257812 272.144531 380.355469 C 268.972656 394.015625 265.996094 407.707031 263.214844 421.429688 C 263.105469 424.8125 264.296875 427.550781 266.785156 429.644531 C 268.707031 431.566406 270.375 433.710938 271.785156 436.070312 C 281.648438 436.402344 290.933594 434.140625 299.644531 429.285156 C 304.160156 426.320312 306.304688 422.152344 306.070312 416.785156 C 306.1875 415.101562 306.070312 413.4375 305.714844 411.785156 C 304.039062 408.214844 302.613281 404.644531 301.429688 401.070312 C 312.226562 397.042969 322.105469 391.449219 331.070312 384.285156 C 348.472656 368.644531 352.996094 349.953125 344.644531 328.214844 C 345.480469 328.058594 346.195312 328.296875 346.785156 328.929688 C 354.015625 346.246094 351.988281 362.4375 340.714844 377.5 C 330.710938 389.113281 318.449219 397.445312 303.929688 402.5 C 307.480469 407.691406 308.90625 413.40625 308.214844 419.644531 C 307.21875 425.765625 303.886719 430.171875 298.214844 432.855469 C 289.863281 436.824219 281.054688 438.847656 271.785156 438.929688 C 271.253906 443.863281 268.519531 446.480469 263.570312 446.785156 C 261.089844 446.796875 258.828125 446.082031 256.785156 444.644531 C 251.765625 452.621094 246.050781 453.097656 239.644531 446.070312 C 233.566406 450.476562 228.207031 449.761719 223.570312 443.929688 C 222.804688 441.988281 221.972656 440.082031 221.070312 438.214844 C 217.777344 447.167969 212.0625 449.308594 203.929688 444.644531 C 200.207031 449.964844 195.445312 451.277344 189.644531 448.570312 C 188.128906 447.335938 187.058594 445.789062 186.429688 443.929688 C 181.855469 447.695312 177.332031 447.695312 172.855469 443.929688 C 171.847656 442.394531 171.253906 440.726562 171.070312 438.929688 C 160.472656 439.1875 150.472656 436.925781 141.070312 432.144531 C 134.550781 428.742188 131.21875 423.382812 131.070312 416.070312 C 131.742188 411.199219 133.410156 406.675781 136.070312 402.5 C 121.070312 397.5625 108.09375 389.46875 97.144531 378.214844 C 84.296875 363.269531 81.914062 346.839844 90 328.929688 C 90.84375 328.050781 91.679688 328.050781 92.5 328.929688 C 85.121094 344.070312 86.191406 358.59375 95.714844 372.5 C 107.136719 386.367188 121.542969 395.652344 138.929688 400.355469 C 137.15625 404.859375 135.371094 409.382812 133.570312 413.929688 C 133 415.976562 133.117188 417.882812 133.929688 419.644531 C 134.214844 423.160156 135.878906 425.894531 138.929688 427.855469 C 148.917969 434.164062 159.871094 437.140625 171.785156 436.785156 C 172.347656 434.707031 173.300781 432.804688 174.644531 431.070312 C 178.378906 427.871094 179.6875 423.824219 178.570312 418.929688 C 175.117188 406.300781 171.546875 393.679688 167.855469 381.070312 C 160.90625 363.078125 154.242188 344.984375 147.855469 326.785156 C 143.832031 314.597656 143 302.21875 145.355469 289.644531 C 146.070312 289.644531 146.785156 289.644531 147.5 289.644531 C 147.121094 293.792969 146.882812 297.960938 146.785156 302.144531 C 147.328125 316.34375 150.304688 330.035156 155.714844 343.214844 C 161.109375 355.914062 166.109375 368.769531 170.714844 381.785156 C 173.6875 393.789062 177.019531 405.695312 180.714844 417.5 C 181.71875 422.433594 180.886719 426.957031 178.214844 431.070312 C 174.230469 433.582031 172.921875 437.152344 174.285156 441.785156 C 179.292969 445.914062 183.699219 445.203125 187.5 439.644531 C 187.917969 439.792969 188.277344 440.03125 188.570312 440.355469 C 189.179688 447.144531 192.628906 449.167969 198.929688 446.429688 C 201.101562 444.578125 202.648438 442.3125 203.570312 439.644531 C 208.40625 447.242188 213.171875 447.242188 217.855469 439.644531 C 219.121094 436.917969 219.71875 434.0625 219.644531 431.070312 C 222.324219 379.566406 225.421875 328.019531 228.929688 276.429688 C 229.167969 276.308594 229.40625 276.191406 229.644531 276.070312 C 229.878906 278.808594 230.121094 281.546875 230.355469 284.285156 C 227.699219 332.496094 225.078125 380.710938 222.5 428.929688 Z M 222.5 428.929688 "/>
<path style=" stroke:none;fill-rule:evenodd;fill:rgb(98.039216%,98.039216%,98.039216%);fill-opacity:1;" d="M 222.5 428.929688 C 236.234375 431.171875 250.042969 431.648438 263.929688 430.355469 C 266.347656 431.945312 268.136719 434.089844 269.285156 436.785156 C 269.765625 442.734375 267.027344 445.234375 261.070312 444.285156 C 258.847656 442.945312 256.703125 441.632812 254.644531 440.355469 C 255.257812 443.769531 254.066406 446.269531 251.070312 447.855469 C 247.546875 448.835938 244.570312 448.003906 242.144531 445.355469 C 241.632812 443.679688 240.800781 442.253906 239.644531 441.070312 C 236.359375 447.273438 231.953125 448.226562 226.429688 443.929688 C 223.773438 439.289062 222.464844 434.289062 222.5 428.929688 Z M 222.5 428.929688 "/>
<path style=" stroke:none;fill-rule:evenodd;fill:rgb(98.431373%,98.039216%,98.039216%);fill-opacity:1;" d="M 219.644531 431.070312 C 219.71875 434.0625 219.121094 436.917969 217.855469 439.644531 C 213.171875 447.242188 208.40625 447.242188 203.570312 439.644531 C 202.648438 442.3125 201.101562 444.578125 198.929688 446.429688 C 192.628906 449.167969 189.179688 447.144531 188.570312 440.355469 C 188.277344 440.03125 187.917969 439.792969 187.5 439.644531 C 183.699219 445.203125 179.292969 445.914062 174.285156 441.785156 C 172.921875 437.152344 174.230469 433.582031 178.214844 431.070312 C 185.363281 431.191406 192.503906 431.070312 199.644531 430.714844 C 206.285156 429.789062 212.953125 429.195312 219.644531 428.929688 C 219.644531 429.644531 219.644531 430.355469 219.644531 431.070312 Z M 219.644531 431.070312 "/>
<path style=" stroke:none;fill-rule:evenodd;fill:rgb(97.647059%,97.647059%,97.647059%);fill-opacity:1;" d="M 174.644531 431.070312 C 173.300781 432.804688 172.347656 434.707031 171.785156 436.785156 C 159.871094 437.140625 148.917969 434.164062 138.929688 427.855469 C 135.878906 425.894531 134.214844 423.160156 133.929688 419.644531 C 133.835938 419.015625 134.074219 418.539062 134.644531 418.214844 C 147.5625 424.109375 160.894531 428.394531 174.644531 431.070312 Z M 174.644531 431.070312 "/>
<path style=" stroke:none;fill-rule:evenodd;fill:rgb(98.039216%,98.039216%,97.647059%);fill-opacity:1;" d="M 306.070312 416.785156 C 306.304688 422.152344 304.160156 426.320312 299.644531 429.285156 C 290.933594 434.140625 281.648438 436.402344 271.785156 436.070312 C 270.375 433.710938 268.707031 431.566406 266.785156 429.644531 C 280.375 427.097656 293.46875 422.8125 306.070312 416.785156 Z M 306.070312 416.785156 "/>
</g>
</svg>
