<?xml version="1.0" encoding="UTF-8"?>
<!DOCTYPE svg PUBLIC "-//W3C//DTD SVG 1.1//EN" "http://www.w3.org/Graphics/SVG/1.1/DTD/svg11.dtd">
<svg xmlns="http://www.w3.org/2000/svg" version="1.1" width="7972px" height="7972px" style="shape-rendering:geometricPrecision; text-rendering:geometricPrecision; image-rendering:optimizeQuality; fill-rule:evenodd; clip-rule:evenodd" xmlns:xlink="http://www.w3.org/1999/xlink">
<g><path style="opacity:0.206" fill="#fefefe" d="M -0.5,-0.5 C 2656.83,-0.5 5314.17,-0.5 7971.5,-0.5C 7971.5,2656.83 7971.5,5314.17 7971.5,7971.5C 5314.17,7971.5 2656.83,7971.5 -0.5,7971.5C -0.5,5314.17 -0.5,2656.83 -0.5,-0.5 Z"/></g>
<g><path style="opacity:1" fill="#a6a8a7" d="M 3890.5,1721.5 C 3610.02,1880.24 3329.36,2038.74 3048.5,2197C 3035.87,2203.89 3032.7,2213.73 3039,2226.5C 3044.21,2233.35 3051.04,2235.85 3059.5,2234C 3342.36,2074.74 3625.02,1915.24 3907.5,1755.5C 3945.76,1837.68 3982.09,1920.68 4016.5,2004.5C 3703.59,2095.41 3390.59,2186.24 3077.5,2277C 3064.17,2283.5 3061,2293.34 3068,2306.5C 3073.07,2312.75 3079.57,2315.25 3087.5,2314C 3403.45,2221.85 3719.45,2130.02 4035.5,2038.5C 4080.87,2127.95 4120.2,2219.95 4153.5,2314.5C 3799.83,2323.58 3446.17,2333.08 3092.5,2343C 3079.06,2347.72 3074.56,2356.89 3079,2370.5C 3081.55,2374.72 3085.05,2377.89 3089.5,2380C 3097.67,2380.17 3105.83,2380.33 3114,2380.5C 3465.18,2371.12 3816.34,2361.79 4167.5,2352.5C 4186.43,2405.79 4204.26,2459.45 4221,2513.5C 4248.7,2604.18 4276.2,2694.84 4303.5,2785.5C 4301.37,2790.15 4298.2,2794.15 4294,2797.5C 4257.71,2841.24 4231.38,2890.57 4215,2945.5C 4186.86,3041.92 4181.52,3139.59 4199,3238.5C 4199.71,3239.38 4200.54,3240.05 4201.5,3240.5C 4154.25,3305.01 4119.75,3376.01 4098,3453.5C 4072.9,3544.38 4059.4,3637.04 4057.5,3731.5C 4056.83,3739.83 4056.17,3748.17 4055.5,3756.5C 3936.56,3455.95 3802.4,3162.29 3653,2875.5C 3635.88,2843.58 3615.54,2813.91 3592,2786.5C 3568.35,2760.09 3539.51,2741.92 3505.5,2732C 3466.73,2725.36 3432.07,2734.36 3401.5,2759C 3373.68,2783.5 3352.84,2813 3339,2847.5C 3324.41,2885.36 3313.91,2924.36 3307.5,2964.5C 3218.3,2936.05 3126.97,2925.55 3033.5,2933C 2880.44,2945.69 2735.77,2987.36 2599.5,3058C 2530.5,3095.82 2468.16,3142.65 2412.5,3198.5C 2394.92,3157.84 2370.25,3122.01 2338.5,3091C 2313.03,3067.6 2283.03,3053.94 2248.5,3050C 2222.82,3047.75 2198.82,3053.09 2176.5,3066C 2145.91,3085.26 2121.41,3110.43 2103,3141.5C 2083.25,3174.34 2067.25,3209 2055,3245.5C 1933.17,3588.61 1829.5,3936.61 1744,4289.5C 1714.53,4180.09 1676.53,4073.76 1630,3970.5C 1594.43,3892.96 1549.09,3821.96 1494,3757.5C 1446.48,3703.53 1390.32,3661.36 1325.5,3631C 1304.22,3622.13 1282.55,3614.46 1260.5,3608C 1247.73,3603.1 1238.23,3606.6 1232,3618.5C 1228.84,3629.67 1232.34,3637.83 1242.5,3643C 1303,3658.42 1357.33,3685.75 1405.5,3725C 1458.11,3769.92 1502.28,3821.76 1538,3880.5C 1577.98,3946.78 1611.65,4016.11 1639,4088.5C 1673.43,4182.47 1703.43,4277.8 1729,4374.5C 1736.25,4384.92 1745.41,4387.08 1756.5,4381C 1759.79,4378.39 1762.29,4375.22 1764,4371.5C 1853.62,3986.44 1965.29,3607.78 2099,3235.5C 2111.41,3202.35 2127.74,3171.35 2148,3142.5C 2161.28,3125.22 2177.11,3110.72 2195.5,3099C 2221.47,3085.23 2248.14,3083.9 2275.5,3095C 2297.13,3104.95 2315.63,3119.12 2331,3137.5C 2354.06,3166.6 2372.22,3198.6 2385.5,3233.5C 2384.25,3233.42 2383.42,3232.76 2383,3231.5C 2241.16,3394.08 2183.16,3583.08 2209,3798.5C 2213.02,3832.31 2218.02,3865.98 2224,3899.5C 2245.49,4006.62 2265.82,4113.95 2285,4221.5C 2309.15,4359.7 2327.15,4498.7 2339,4638.5C 2345.45,4738.14 2351.45,4837.8 2357,4937.5C 2362.78,5040.65 2376.78,5142.65 2399,5243.5C 2432.33,5388.48 2495.66,5518.15 2589,5632.5C 2620.22,5670.89 2654.05,5706.89 2690.5,5740.5C 2686.07,5845.06 2680.73,5949.4 2674.5,6053.5C 2656.31,6048.89 2637.97,6044.73 2619.5,6041C 2564.51,6030.24 2509.51,6019.57 2454.5,6009C 2393.06,5997.31 2333.06,5980.64 2274.5,5959C 2141.43,5909.9 2039.59,5824.07 1969,5701.5C 1934.24,5639.65 1906.91,5574.65 1887,5506.5C 1860.85,5414.06 1842.51,5320.06 1832,5224.5C 1827.14,5183.22 1822.81,5141.89 1819,5100.5C 1811.27,5006.11 1802.94,4911.78 1794,4817.5C 1786.54,4742.64 1775.54,4668.3 1761,4594.5C 1748.33,4531.46 1729.33,4470.46 1704,4411.5C 1669.56,4333.44 1619.73,4266.94 1554.5,4212C 1495.29,4165.37 1430.62,4127.37 1360.5,4098C 1333.24,4086.08 1305.58,4075.25 1277.5,4065.5C 1252.82,3831.89 1221.32,3599.22 1183,3367.5C 1170.8,3297.29 1159.13,3226.96 1148,3156.5C 1147.46,3151.85 1146.29,3147.52 1144.5,3143.5C 1484.8,2955.35 1825.14,2767.18 2165.5,2579C 2177.07,2568.68 2177.4,2558.01 2166.5,2547C 2157.48,2542.04 2148.81,2542.71 2140.5,2549C 1806.63,2734.1 1472.63,2918.93 1138.5,3103.5C 1131.56,3051.85 1124.72,3000.18 1118,2948.5C 1111.8,2895.99 1107.47,2843.32 1105,2790.5C 1105.07,2787.01 1104.24,2784.01 1102.5,2781.5C 1445.26,2693.89 1788.26,2606.39 2131.5,2519C 2147.05,2516.05 2153.22,2506.88 2150,2491.5C 2147.74,2486.24 2143.91,2482.74 2138.5,2481C 2133.83,2480.33 2129.17,2480.33 2124.5,2481C 1784.34,2568.41 1444,2655.24 1103.5,2741.5C 1103.67,2726.83 1103.5,2712.16 1103,2697.5C 1094.27,2616.4 1088.77,2535.07 1086.5,2453.5C 1080.5,2453.5 1074.5,2453.5 1068.5,2453.5C 1416,2446.9 1763.67,2440.73 2111.5,2435C 2129.1,2435.4 2136.94,2426.9 2135,2409.5C 2132.89,2405.05 2129.72,2401.55 2125.5,2399C 2108.56,2397.85 2091.56,2397.35 2074.5,2397.5C 1744.83,2403.23 1415.17,2408.89 1085.5,2414.5C 1083.96,2218.84 1099.13,2024.51 1131,1831.5C 1158.88,1667.19 1192.88,1504.19 1233,1342.5C 1239.78,1318.27 1250.78,1296.27 1266,1276.5C 1295.72,1244.95 1330.89,1237.11 1371.5,1253C 1392.64,1262.15 1411.64,1274.49 1428.5,1290C 1444.43,1304.93 1459.27,1320.76 1473,1337.5C 1540.68,1426.19 1608.85,1514.53 1677.5,1602.5C 1783.65,1522.73 1898.98,1458.4 2023.5,1409.5C 2205.67,1453.81 2361.5,1543.14 2491,1677.5C 2494.67,1681.83 2498.33,1686.17 2502,1690.5C 2482.69,1631.25 2458.69,1573.92 2430,1518.5C 2389.18,1440.18 2332.01,1376.51 2258.5,1327.5C 2283.24,1320.06 2308.24,1313.4 2333.5,1307.5C 2364.53,1319.35 2393.53,1334.85 2420.5,1354C 2454.38,1379.2 2485.88,1407.37 2515,1438.5C 2531,1457.17 2547,1475.83 2563,1494.5C 2608.67,1554.17 2652,1615.5 2693,1678.5C 2691.92,1646.34 2687.25,1614.68 2679,1583.5C 2660.85,1508.72 2636.52,1436.06 2606,1365.5C 2590.23,1329.46 2570.07,1296.29 2545.5,1266C 2546.74,1265.77 2547.74,1265.27 2548.5,1264.5C 2569.79,1261.57 2591.13,1258.9 2612.5,1256.5C 2614.99,1256.3 2617.32,1256.8 2619.5,1258C 2667.29,1299.2 2713.45,1342.36 2758,1387.5C 2791.17,1423.33 2820.51,1461.99 2846,1503.5C 2859.03,1525.91 2869.36,1549.57 2877,1574.5C 2885.05,1603.08 2894.71,1631.08 2906,1658.5C 2910.16,1626.98 2911.49,1595.31 2910,1563.5C 2906.44,1484.88 2894.77,1407.55 2875,1331.5C 2866.57,1302.05 2856.07,1273.38 2843.5,1245.5C 2912.87,1246.7 2981.7,1253.03 3050,1264.5C 3074,1157.16 3098,1049.83 3122,942.5C 3130.37,907.021 3144.37,874.021 3164,843.5C 3199.56,794.15 3244.06,783.984 3297.5,813C 3313.82,824.309 3328.65,837.476 3342,852.5C 3526.06,1081.8 3686.73,1327.13 3824,1588.5C 3846.72,1632.61 3868.89,1676.94 3890.5,1721.5 Z"/></g>
<g><path style="opacity:1" fill="#14162b" d="M 3278.5,959.5 C 3296.2,958.012 3311.87,962.846 3325.5,974C 3334.78,982.274 3342.95,991.441 3350,1001.5C 3411.75,1097.34 3473.75,1193 3536,1288.5C 3541.64,1298.54 3540.14,1307.38 3531.5,1315C 3522.34,1320.29 3513.84,1319.46 3506,1312.5C 3443.67,1216.17 3381.33,1119.83 3319,1023.5C 3312.73,1014.44 3305.23,1006.61 3296.5,1000C 3288.31,995.541 3281.48,997.041 3276,1004.5C 3270.88,1013.07 3266.55,1022.07 3263,1031.5C 3230.49,1117.36 3200.16,1204.03 3172,1291.5C 3168.36,1303.41 3165.02,1315.41 3162,1327.5C 3156.01,1337.24 3147.51,1340.4 3136.5,1337C 3128.3,1332.1 3124.8,1324.93 3126,1315.5C 3143.46,1254.11 3163.13,1193.44 3185,1133.5C 3201.82,1085.7 3219.82,1038.37 3239,991.5C 3247.62,975.025 3260.79,964.358 3278.5,959.5 Z"/></g>
<g><path style="opacity:1" fill="#babcb9" d="M 2843.5,1245.5 C 2856.07,1273.38 2866.57,1302.05 2875,1331.5C 2894.77,1407.55 2906.44,1484.88 2910,1563.5C 2911.49,1595.31 2910.16,1626.98 2906,1658.5C 2894.71,1631.08 2885.05,1603.08 2877,1574.5C 2869.36,1549.57 2859.03,1525.91 2846,1503.5C 2820.51,1461.99 2791.17,1423.33 2758,1387.5C 2713.45,1342.36 2667.29,1299.2 2619.5,1258C 2617.32,1256.8 2614.99,1256.3 2612.5,1256.5C 2689.14,1247.49 2766.14,1243.82 2843.5,1245.5 Z"/></g>
<g><path style="opacity:1" fill="#b9bbb9" d="M 2548.5,1264.5 C 2547.74,1265.27 2546.74,1265.77 2545.5,1266C 2570.07,1296.29 2590.23,1329.46 2606,1365.5C 2636.52,1436.06 2660.85,1508.72 2679,1583.5C 2687.25,1614.68 2691.92,1646.34 2693,1678.5C 2652,1615.5 2608.67,1554.17 2563,1494.5C 2547,1475.83 2531,1457.17 2515,1438.5C 2485.88,1407.37 2454.38,1379.2 2420.5,1354C 2393.53,1334.85 2364.53,1319.35 2333.5,1307.5C 2404.26,1289.22 2475.92,1274.88 2548.5,1264.5 Z"/></g>
<g><path style="opacity:1" fill="#b9bbb9" d="M 2258.5,1327.5 C 2332.01,1376.51 2389.18,1440.18 2430,1518.5C 2458.69,1573.92 2482.69,1631.25 2502,1690.5C 2498.33,1686.17 2494.67,1681.83 2491,1677.5C 2361.5,1543.14 2205.67,1453.81 2023.5,1409.5C 2100.02,1377.44 2178.35,1350.1 2258.5,1327.5 Z"/></g>
<g><path style="opacity:1" fill="#14162b" d="M 1359.5,1376.5 C 1375.71,1375.38 1390.37,1379.55 1403.5,1389C 1409.33,1394.17 1415.17,1399.33 1421,1404.5C 1479.45,1469.28 1536.79,1534.95 1593,1601.5C 1607.15,1619.14 1620.82,1637.14 1634,1655.5C 1636.66,1673.16 1629.16,1681.66 1611.5,1681C 1608.05,1680.11 1605.05,1678.44 1602.5,1676C 1578.14,1643.3 1552.64,1611.47 1526,1580.5C 1487.24,1535.98 1448.24,1491.65 1409,1447.5C 1400.5,1437.67 1391.33,1428.5 1381.5,1420C 1371.99,1411.84 1363.49,1412.67 1356,1422.5C 1350.77,1431.53 1347.1,1441.2 1345,1451.5C 1322.8,1562.84 1300.47,1674.17 1278,1785.5C 1274.21,1797.65 1266.05,1802.48 1253.5,1800C 1243.46,1795.76 1239.3,1788.26 1241,1777.5C 1263.51,1664.46 1286.18,1551.46 1309,1438.5C 1312.72,1422.73 1319.39,1408.4 1329,1395.5C 1337.44,1386.21 1347.61,1379.87 1359.5,1376.5 Z"/></g>
<g><path style="opacity:1" fill="#14162b" d="M 3907.5,1755.5 C 3625.02,1915.24 3342.36,2074.74 3059.5,2234C 3051.04,2235.85 3044.21,2233.35 3039,2226.5C 3032.7,2213.73 3035.87,2203.89 3048.5,2197C 3329.36,2038.74 3610.02,1880.24 3890.5,1721.5C 3961.69,1681.16 4033.02,1640.99 4104.5,1601C 4124.44,1599.03 4132.27,1607.87 4128,1627.5C 4126.54,1629.96 4124.71,1632.13 4122.5,1634C 4050.81,1674.51 3979.14,1715.01 3907.5,1755.5 Z"/></g>
<g><path style="opacity:1" fill="#14162b" d="M 2946.5,1924.5 C 2964.85,1924.27 2983.19,1924.77 3001.5,1926C 3013.61,1929.71 3018.44,1937.87 3016,1950.5C 3013,1959 3007,1963.33 2998,1963.5C 2908.12,1957.68 2830.29,1985.18 2764.5,2046C 2755.46,2055.37 2746.8,2065.04 2738.5,2075C 2725.31,2081.98 2715.48,2078.81 2709,2065.5C 2708.33,2061.5 2708.33,2057.5 2709,2053.5C 2710.85,2048.98 2713.52,2044.98 2717,2041.5C 2778.14,1972.68 2854.64,1933.68 2946.5,1924.5 Z"/></g>
<g><path style="opacity:1" fill="#15172b" d="M 4035.5,2038.5 C 3719.45,2130.02 3403.45,2221.85 3087.5,2314C 3079.57,2315.25 3073.07,2312.75 3068,2306.5C 3061,2293.34 3064.17,2283.5 3077.5,2277C 3390.59,2186.24 3703.59,2095.41 4016.5,2004.5C 4105.92,1978.97 4195.25,1953.14 4284.5,1927C 4296.58,1924.62 4304.75,1929.12 4309,1940.5C 4310.45,1950.2 4306.95,1957.37 4298.5,1962C 4210.86,1987.66 4123.19,2013.16 4035.5,2038.5 Z"/></g>
<g><path style="opacity:1" fill="#14162b" d="M 2246.5,2076.5 C 2306.24,2073.21 2362.91,2084.71 2416.5,2111C 2427.17,2121.33 2427.17,2131.67 2416.5,2142C 2410.51,2145.77 2404.17,2146.43 2397.5,2144C 2315.9,2106.57 2233.57,2104.91 2150.5,2139C 2139.94,2143.9 2129.61,2149.23 2119.5,2155C 2110.36,2158.33 2102.53,2156.5 2096,2149.5C 2089.12,2136.16 2092.28,2125.99 2105.5,2119C 2149.57,2094.74 2196.57,2080.57 2246.5,2076.5 Z"/></g>
<g><path style="opacity:1" fill="#14162b" d="M 2617.5,2228.5 C 2636.5,2226.39 2654.5,2229.55 2671.5,2238C 2687.74,2252.52 2692.58,2270.35 2686,2291.5C 2679.12,2308.94 2669.45,2324.61 2657,2338.5C 2656.33,2339.5 2656.33,2340.5 2657,2341.5C 2697.77,2395.61 2737.77,2450.27 2777,2505.5C 2778.47,2519.69 2772.14,2527.69 2758,2529.5C 2751.37,2528.85 2746.04,2525.85 2742,2520.5C 2708.36,2474.69 2674.53,2429.03 2640.5,2383.5C 2631.14,2442.11 2621.98,2500.78 2613,2559.5C 2607.18,2572.65 2597.68,2576.15 2584.5,2570C 2578.35,2565.57 2575.69,2559.57 2576.5,2552C 2585.56,2487.08 2595.23,2422.25 2605.5,2357.5C 2605.17,2356.5 2604.83,2355.5 2604.5,2354.5C 2583.41,2345.57 2564.91,2332.91 2549,2316.5C 2528.69,2291.09 2531.52,2268.59 2557.5,2249C 2576.04,2237.65 2596.04,2230.82 2617.5,2228.5 Z"/></g>
<g><path style="opacity:1" fill="#16182d" d="M 4167.5,2352.5 C 3816.34,2361.79 3465.18,2371.12 3114,2380.5C 3105.83,2380.33 3097.67,2380.17 3089.5,2380C 3085.05,2377.89 3081.55,2374.72 3079,2370.5C 3074.56,2356.89 3079.06,2347.72 3092.5,2343C 3446.17,2333.08 3799.83,2323.58 4153.5,2314.5C 4211.5,2312.91 4269.5,2311.24 4327.5,2309.5C 4345.05,2308.23 4353.55,2316.23 4353,2333.5C 4350.3,2340.87 4345.13,2345.37 4337.5,2347C 4280.67,2348.81 4224.01,2350.64 4167.5,2352.5 Z"/></g>
<g><path style="opacity:1" fill="#16182c" d="M 1068.5,2453.5 C 1012.17,2454.7 955.834,2455.54 899.5,2456C 887.254,2451.59 882.754,2443.09 886,2430.5C 888.562,2424.94 892.728,2421.11 898.5,2419C 960.999,2417.65 1023.33,2416.15 1085.5,2414.5C 1415.17,2408.89 1744.83,2403.23 2074.5,2397.5C 2091.56,2397.35 2108.56,2397.85 2125.5,2399C 2129.72,2401.55 2132.89,2405.05 2135,2409.5C 2136.94,2426.9 2129.1,2435.4 2111.5,2435C 1763.67,2440.73 1416,2446.9 1068.5,2453.5 Z"/></g>
<g><path style="opacity:1" fill="#15172c" d="M 1102.5,2781.5 C 1041.12,2796.68 979.785,2812.18 918.5,2828C 905.288,2829.12 897.621,2823.12 895.5,2810C 896.2,2800.26 901.2,2793.93 910.5,2791C 974.981,2774.63 1039.31,2758.13 1103.5,2741.5C 1444,2655.24 1784.34,2568.41 2124.5,2481C 2129.17,2480.33 2133.83,2480.33 2138.5,2481C 2143.91,2482.74 2147.74,2486.24 2150,2491.5C 2153.22,2506.88 2147.05,2516.05 2131.5,2519C 1788.26,2606.39 1445.26,2693.89 1102.5,2781.5 Z"/></g>
<g><path style="opacity:1" fill="#15162b" d="M 1144.5,3143.5 C 1121.62,3156.21 1098.62,3168.71 1075.5,3181C 1064.6,3182.3 1057.1,3177.8 1053,3167.5C 1050.88,3158.92 1053.38,3152.09 1060.5,3147C 1086.39,3132.27 1112.39,3117.77 1138.5,3103.5C 1472.63,2918.93 1806.63,2734.1 2140.5,2549C 2148.81,2542.71 2157.48,2542.04 2166.5,2547C 2177.4,2558.01 2177.07,2568.68 2165.5,2579C 1825.14,2767.18 1484.8,2955.35 1144.5,3143.5 Z"/></g>
<g><path style="opacity:1" fill="#15172b" d="M 4055.5,3756.5 C 4055.78,3757.29 4056.28,3757.96 4057,3758.5C 4057.5,3749.51 4057.67,3740.51 4057.5,3731.5C 4059.4,3637.04 4072.9,3544.38 4098,3453.5C 4119.75,3376.01 4154.25,3305.01 4201.5,3240.5C 4249.1,3176.88 4309.77,3130.38 4383.5,3101C 4400.64,3098.15 4409.14,3105.32 4409,3122.5C 4407.76,3127.74 4404.93,3131.91 4400.5,3135C 4321.06,3166.61 4258.39,3218.45 4212.5,3290.5C 4179.77,3341.11 4154.61,3395.45 4137,3453.5C 4108.25,3552.69 4094.08,3654.02 4094.5,3757.5C 4095.45,3797.54 4096.95,3837.54 4099,3877.5C 4093.96,3888.43 4085.46,3892.6 4073.5,3890C 4069.39,3888.22 4066.22,3885.39 4064,3881.5C 3932.76,3539.38 3782.42,3206.05 3613,2881.5C 3595.77,2849.58 3573.93,2821.08 3547.5,2796C 3497.34,2755.25 3450.5,2758.75 3407,2806.5C 3384.97,2835.22 3369.31,2867.22 3360,2902.5C 3353.62,2928.07 3348.12,2953.74 3343.5,2979.5C 3328.17,3078.17 3326.34,3177.17 3338,3276.5C 3353.07,3392.16 3378.73,3505.49 3415,3616.5C 3453.87,3733.46 3496.87,3848.79 3544,3962.5C 3545.49,3972.34 3541.99,3979.84 3533.5,3985C 3522.09,3988.54 3513.59,3985.04 3508,3974.5C 3458.42,3854.74 3413.42,3733.4 3373,3610.5C 3353.05,3546.37 3336.05,3481.37 3322,3415.5C 3311.21,3360.52 3302.88,3305.19 3297,3249.5C 3288.52,3154.01 3292.02,3059.01 3307.5,2964.5C 3313.91,2924.36 3324.41,2885.36 3339,2847.5C 3352.84,2813 3373.68,2783.5 3401.5,2759C 3432.07,2734.36 3466.73,2725.36 3505.5,2732C 3539.51,2741.92 3568.35,2760.09 3592,2786.5C 3615.54,2813.91 3635.88,2843.58 3653,2875.5C 3802.4,3162.29 3936.56,3455.95 4055.5,3756.5 Z"/></g>
<g><path style="opacity:1" fill="#14162b" d="M 2855.5,2768.5 C 2877.53,2768.39 2885.36,2779.06 2879,2800.5C 2869.28,2838.1 2847.78,2866.93 2814.5,2887C 2773.19,2911.53 2728.86,2919.86 2681.5,2912C 2657.11,2906.73 2636.61,2894.89 2620,2876.5C 2615.34,2866.55 2617.17,2858.05 2625.5,2851C 2632.8,2846.4 2640.14,2846.4 2647.5,2851C 2662.57,2866.37 2680.91,2875.03 2702.5,2877C 2738.56,2878.98 2771.56,2869.98 2801.5,2850C 2826.93,2831.97 2841.77,2807.47 2846,2776.5C 2848.77,2773.22 2851.94,2770.55 2855.5,2768.5 Z"/></g>
<g><path style="opacity:1" fill="#babcb9" d="M 4303.5,2785.5 C 4397.73,3085.98 4519.56,3374.98 4669,3652.5C 4743.12,3783.07 4811.79,3916.73 4875,4053.5C 4984.45,4292.68 5060.95,4542.01 5104.5,4801.5C 5103.6,4800.79 5103.26,4799.79 5103.5,4798.5C 5031.1,4802.25 4962.1,4788.75 4896.5,4758C 4845.62,4733.41 4798.62,4703.08 4755.5,4667C 4666.73,4592.18 4596.56,4503.02 4545,4399.5C 4506.49,4315.82 4481.83,4228.15 4471,4136.5C 4465.32,4093.32 4461.32,4049.99 4459,4006.5C 4457.59,3960.82 4455.92,3915.16 4454,3869.5C 4449.13,3778.89 4424.8,3693.89 4381,3614.5C 4371,3596.5 4361,3578.5 4351,3560.5C 4325.42,3518.33 4300.08,3476 4275,3433.5C 4254.97,3398.78 4237.64,3362.78 4223,3325.5C 4218.38,3314.14 4214.88,3302.47 4212.5,3290.5C 4258.39,3218.45 4321.06,3166.61 4400.5,3135C 4404.93,3131.91 4407.76,3127.74 4409,3122.5C 4409.14,3105.32 4400.64,3098.15 4383.5,3101C 4309.77,3130.38 4249.1,3176.88 4201.5,3240.5C 4200.54,3240.05 4199.71,3239.38 4199,3238.5C 4181.52,3139.59 4186.86,3041.92 4215,2945.5C 4231.38,2890.57 4257.71,2841.24 4294,2797.5C 4298.2,2794.15 4301.37,2790.15 4303.5,2785.5 Z"/></g>
<g><path style="opacity:1" fill="#b9bbb8" d="M 3307.5,2964.5 C 3292.02,3059.01 3288.52,3154.01 3297,3249.5C 3302.88,3305.19 3311.21,3360.52 3322,3415.5C 3336.05,3481.37 3353.05,3546.37 3373,3610.5C 3413.42,3733.4 3458.42,3854.74 3508,3974.5C 3513.59,3985.04 3522.09,3988.54 3533.5,3985C 3541.99,3979.84 3545.49,3972.34 3544,3962.5C 3496.87,3848.79 3453.87,3733.46 3415,3616.5C 3378.73,3505.49 3353.07,3392.16 3338,3276.5C 3326.34,3177.17 3328.17,3078.17 3343.5,2979.5C 3344.12,2979.39 3344.62,2979.06 3345,2978.5C 3424.94,3012.36 3495.77,3059.52 3557.5,3120C 3648.93,3210.88 3719.1,3316.38 3768,3436.5C 3775.53,3454.75 3782.86,3473.09 3790,3491.5C 3822.2,3583.11 3854.2,3674.78 3886,3766.5C 3935.73,3897.62 3995.39,4023.95 4065,4145.5C 4123.38,4239.58 4175.05,4337.58 4220,4439.5C 4288.03,4598.96 4327.03,4765.3 4337,4938.5C 4339.16,4980.67 4339,5022.67 4336.5,5064.5C 4316.7,5023.57 4295.87,4983.23 4274,4943.5C 4255.05,4910.89 4233.39,4880.22 4209,4851.5C 4189.98,4830.61 4168.81,4812.44 4145.5,4797C 4091.86,4764.86 4036.19,4760.86 3978.5,4785C 3940.85,4804.99 3914.02,4834.82 3898,4874.5C 3886.42,4903.82 3878.75,4934.16 3875,4965.5C 3869.28,5025.14 3869.28,5084.81 3875,5144.5C 3893.21,5306.35 3929.55,5464.02 3984,5617.5C 3999.95,5661.75 4016.78,5705.75 4034.5,5749.5C 4033.22,5753.3 4030.89,5756.47 4027.5,5759C 3908.54,5870.65 3768.2,5941.99 3606.5,5973C 3493.62,5997.04 3379.62,6005.21 3264.5,5997.5C 3264.77,5995.9 3264.43,5994.57 3263.5,5993.5C 3247,5828.14 3212.16,5666.81 3159,5509.5C 3138.81,5451.45 3113.47,5395.78 3083,5342.5C 3062.66,5308.15 3037.83,5277.31 3008.5,5250C 2947.01,5198.85 2881.01,5192.52 2810.5,5231C 2771.99,5256.19 2744.49,5290.36 2728,5333.5C 2714.45,5369.37 2705.45,5406.37 2701,5444.5C 2698.73,5463.44 2697.07,5482.44 2696,5501.5C 2694.57,5581.2 2692.74,5660.87 2690.5,5740.5C 2654.05,5706.89 2620.22,5670.89 2589,5632.5C 2495.66,5518.15 2432.33,5388.48 2399,5243.5C 2376.78,5142.65 2362.78,5040.65 2357,4937.5C 2351.45,4837.8 2345.45,4738.14 2339,4638.5C 2327.15,4498.7 2309.15,4359.7 2285,4221.5C 2265.82,4113.95 2245.49,4006.62 2224,3899.5C 2218.02,3865.98 2213.02,3832.31 2209,3798.5C 2183.16,3583.08 2241.16,3394.08 2383,3231.5C 2383.42,3232.76 2384.25,3233.42 2385.5,3233.5C 2421.53,3326.48 2443.7,3422.81 2452,3522.5C 2460.25,3625.61 2458.92,3728.61 2448,3831.5C 2444.44,3860.84 2440.78,3890.18 2437,3919.5C 2422.79,4011.45 2405.12,4102.78 2384,4193.5C 2368.99,4255.87 2353.66,4318.21 2338,4380.5C 2336.71,4398.21 2344.88,4406.05 2362.5,4404C 2366.9,4402.22 2370.4,4399.39 2373,4395.5C 2402.66,4281.84 2429.33,4167.51 2453,4052.5C 2467.61,3973.61 2479.28,3894.27 2488,3814.5C 2494.62,3740.66 2496.95,3666.66 2495,3592.5C 2491.43,3475.66 2470.76,3361.99 2433,3251.5C 2426.65,3233.61 2419.82,3215.95 2412.5,3198.5C 2468.16,3142.65 2530.5,3095.82 2599.5,3058C 2735.77,2987.36 2880.44,2945.69 3033.5,2933C 3126.97,2925.55 3218.3,2936.05 3307.5,2964.5 Z"/></g>
<g><path style="opacity:1" fill="#15172b" d="M 2412.5,3198.5 C 2419.82,3215.95 2426.65,3233.61 2433,3251.5C 2470.76,3361.99 2491.43,3475.66 2495,3592.5C 2496.95,3666.66 2494.62,3740.66 2488,3814.5C 2479.28,3894.27 2467.61,3973.61 2453,4052.5C 2429.33,4167.51 2402.66,4281.84 2373,4395.5C 2370.4,4399.39 2366.9,4402.22 2362.5,4404C 2344.88,4406.05 2336.71,4398.21 2338,4380.5C 2353.66,4318.21 2368.99,4255.87 2384,4193.5C 2405.12,4102.78 2422.79,4011.45 2437,3919.5C 2440.78,3890.18 2444.44,3860.84 2448,3831.5C 2458.92,3728.61 2460.25,3625.61 2452,3522.5C 2443.7,3422.81 2421.53,3326.48 2385.5,3233.5C 2372.22,3198.6 2354.06,3166.6 2331,3137.5C 2315.63,3119.12 2297.13,3104.95 2275.5,3095C 2248.14,3083.9 2221.47,3085.23 2195.5,3099C 2177.11,3110.72 2161.28,3125.22 2148,3142.5C 2127.74,3171.35 2111.41,3202.35 2099,3235.5C 1965.29,3607.78 1853.62,3986.44 1764,4371.5C 1762.29,4375.22 1759.79,4378.39 1756.5,4381C 1745.41,4387.08 1736.25,4384.92 1729,4374.5C 1703.43,4277.8 1673.43,4182.47 1639,4088.5C 1611.65,4016.11 1577.98,3946.78 1538,3880.5C 1502.28,3821.76 1458.11,3769.92 1405.5,3725C 1357.33,3685.75 1303,3658.42 1242.5,3643C 1232.34,3637.83 1228.84,3629.67 1232,3618.5C 1238.23,3606.6 1247.73,3603.1 1260.5,3608C 1282.55,3614.46 1304.22,3622.13 1325.5,3631C 1390.32,3661.36 1446.48,3703.53 1494,3757.5C 1549.09,3821.96 1594.43,3892.96 1630,3970.5C 1676.53,4073.76 1714.53,4180.09 1744,4289.5C 1829.5,3936.61 1933.17,3588.61 2055,3245.5C 2067.25,3209 2083.25,3174.34 2103,3141.5C 2121.41,3110.43 2145.91,3085.26 2176.5,3066C 2198.82,3053.09 2222.82,3047.75 2248.5,3050C 2283.03,3053.94 2313.03,3067.6 2338.5,3091C 2370.25,3122.01 2394.92,3157.84 2412.5,3198.5 Z"/></g>
<g><path style="opacity:1" fill="#15172b" d="M 4355.5,6860.5 C 4366.94,6850.4 4379.28,6841.4 4392.5,6833.5C 4472.14,6859 4553.81,6869.5 4637.5,6865C 4739.46,6859.47 4838.46,6839.47 4934.5,6805C 5086.4,6749.24 5226.07,6672.58 5353.5,6575C 5579.36,6401.16 5749.86,6183.99 5865,5923.5C 5906.19,5830.6 5943.86,5736.27 5978,5640.5C 6024.89,5504.93 6074.22,5370.27 6126,5236.5C 6172.93,5118.97 6229.6,5006.64 6296,4899.5C 6345.74,4820.73 6402.74,4747.4 6467,4679.5C 6545.65,4597.15 6635.82,4530.65 6737.5,4480C 6760.82,4469.17 6784.49,4459.17 6808.5,4450C 6844.25,4438.19 6879.92,4426.19 6915.5,4414C 6945.62,4403.28 6972.95,4387.95 6997.5,4368C 7032.02,4335.27 7049.02,4294.93 7048.5,4247C 7047.81,4193.24 7029.64,4146.41 6994,4106.5C 6959.57,4069.41 6919.07,4040.91 6872.5,4021C 6762.57,3975.36 6648.91,3963.03 6531.5,3984C 6444.91,4000.2 6363.24,4029.86 6286.5,4073C 6168.37,4139.57 6068.53,4227.4 5987,4336.5C 5925.82,4419.81 5873.48,4508.81 5830,4603.5C 5783.11,4708.51 5743.11,4816.17 5710,4926.5C 5671.04,5060.71 5633.71,5195.38 5598,5330.5C 5566.21,5445.88 5529.21,5559.55 5487,5671.5C 5443.54,5785.09 5388.54,5892.42 5322,5993.5C 5245.33,6106.26 5151.5,6202.43 5040.5,6282C 4966.94,6333.94 4886.94,6373.44 4800.5,6400.5C 4811.7,6382.75 4823.36,6365.41 4835.5,6348.5C 4890.96,6327.77 4943.29,6301.27 4992.5,6269C 5117.55,6184.28 5221.39,6078.78 5304,5952.5C 5364.08,5856.67 5414.42,5755.67 5455,5649.5C 5493.93,5545.69 5528.27,5440.36 5558,5333.5C 5583.04,5242.65 5607.71,5151.65 5632,5060.5C 5662.43,4946.54 5698.1,4834.21 5739,4723.5C 5781.83,4608.58 5835.49,4499.25 5900,4395.5C 5947.7,4320.72 6003.2,4251.89 6066.5,4189C 6171,4089.04 6292.33,4016.04 6430.5,3970C 6518.49,3942.22 6608.49,3931.89 6700.5,3939C 6781.95,3946.49 6858.62,3969.49 6930.5,4008C 6982.04,4036.2 7023.21,4075.37 7054,4125.5C 7085.33,4181.17 7094,4240.17 7080,4302.5C 7064.48,4356.34 7032.31,4396.84 6983.5,4424C 6966.04,4433.39 6948.04,4441.73 6929.5,4449C 6894.93,4460.86 6860.26,4472.52 6825.5,4484C 6724.63,4522 6634.3,4576.66 6554.5,4648C 6463.22,4731.6 6385.39,4825.76 6321,4930.5C 6258.7,5032.43 6205.37,5139.09 6161,5250.5C 6149.47,5279.42 6138.14,5308.42 6127,5337.5C 6086.88,5446.54 6047.54,5555.87 6009,5665.5C 5971.22,5771.84 5928.55,5876.18 5881,5978.5C 5748.05,6259.79 5552.89,6487.96 5295.5,6663C 5187.33,6735.92 5071.66,6794.92 4948.5,6840C 4845.33,6877.17 4738.99,6898.17 4629.5,6903C 4535.28,6906.72 4443.94,6892.55 4355.5,6860.5 Z"/></g>
<g><path style="opacity:1" fill="#fefefe" d="M 4392.5,6833.5 C 4516.61,6738.23 4627.11,6628.9 4724,6505.5C 4750.49,6471.18 4775.99,6436.18 4800.5,6400.5C 4886.94,6373.44 4966.94,6333.94 5040.5,6282C 5151.5,6202.43 5245.33,6106.26 5322,5993.5C 5388.54,5892.42 5443.54,5785.09 5487,5671.5C 5529.21,5559.55 5566.21,5445.88 5598,5330.5C 5633.71,5195.38 5671.04,5060.71 5710,4926.5C 5743.11,4816.17 5783.11,4708.51 5830,4603.5C 5873.48,4508.81 5925.82,4419.81 5987,4336.5C 6068.53,4227.4 6168.37,4139.57 6286.5,4073C 6363.24,4029.86 6444.91,4000.2 6531.5,3984C 6648.91,3963.03 6762.57,3975.36 6872.5,4021C 6919.07,4040.91 6959.57,4069.41 6994,4106.5C 7029.64,4146.41 7047.81,4193.24 7048.5,4247C 7049.02,4294.93 7032.02,4335.27 6997.5,4368C 6972.95,4387.95 6945.62,4403.28 6915.5,4414C 6879.92,4426.19 6844.25,4438.19 6808.5,4450C 6784.49,4459.17 6760.82,4469.17 6737.5,4480C 6635.82,4530.65 6545.65,4597.15 6467,4679.5C 6402.74,4747.4 6345.74,4820.73 6296,4899.5C 6229.6,5006.64 6172.93,5118.97 6126,5236.5C 6074.22,5370.27 6024.89,5504.93 5978,5640.5C 5943.86,5736.27 5906.19,5830.6 5865,5923.5C 5749.86,6183.99 5579.36,6401.16 5353.5,6575C 5226.07,6672.58 5086.4,6749.24 4934.5,6805C 4838.46,6839.47 4739.46,6859.47 4637.5,6865C 4553.81,6869.5 4472.14,6859 4392.5,6833.5 Z"/></g>
<g><path style="opacity:1" fill="#b9bbb9" d="M 1277.5,4065.5 C 1305.58,4075.25 1333.24,4086.08 1360.5,4098C 1430.62,4127.37 1495.29,4165.37 1554.5,4212C 1619.73,4266.94 1669.56,4333.44 1704,4411.5C 1729.33,4470.46 1748.33,4531.46 1761,4594.5C 1775.54,4668.3 1786.54,4742.64 1794,4817.5C 1802.94,4911.78 1811.27,5006.11 1819,5100.5C 1822.81,5141.89 1827.14,5183.22 1832,5224.5C 1842.51,5320.06 1860.85,5414.06 1887,5506.5C 1906.91,5574.65 1934.24,5639.65 1969,5701.5C 2039.59,5824.07 2141.43,5909.9 2274.5,5959C 2333.06,5980.64 2393.06,5997.31 2454.5,6009C 2509.51,6019.57 2564.51,6030.24 2619.5,6041C 2637.97,6044.73 2656.31,6048.89 2674.5,6053.5C 2671.04,6113.85 2667.2,6174.18 2663,6234.5C 2650.24,6314.96 2634.91,6394.96 2617,6474.5C 2613.82,6477.06 2610.65,6476.9 2607.5,6474C 2576.87,6425.91 2547.37,6377.08 2519,6327.5C 2474.15,6255.28 2419.65,6190.78 2355.5,6134C 2254.97,6044.72 2139.64,5982.06 2009.5,5946C 1963.49,5934.75 1916.83,5930.08 1869.5,5932C 1799.67,5935.27 1737.34,5958.27 1682.5,6001C 1673.11,6008.39 1670.95,6017.56 1676,6028.5C 1681.74,6036.06 1689.24,6038.56 1698.5,6036C 1746.12,5997.7 1800.45,5975.7 1861.5,5970C 1919.84,5967.14 1976.84,5974.48 2032.5,5992C 2145.86,6028.98 2246.52,6086.98 2334.5,6166C 2378.71,6206.19 2418.54,6250.03 2454,6297.5C 2464.06,6311.9 2473.73,6326.56 2483,6341.5C 2511.16,6389.83 2539.83,6437.83 2569,6485.5C 2587.14,6514.54 2611.97,6522.04 2643.5,6508C 2646.76,6505.41 2649.26,6502.24 2651,6498.5C 2669.23,6416.23 2685.23,6333.56 2699,6250.5C 2701.88,6231.26 2703.88,6211.93 2705,6192.5C 2706.76,6150.8 2708.93,6109.14 2711.5,6067.5C 2712.43,6066.43 2712.77,6065.1 2712.5,6063.5C 2905.84,6112.7 3045.01,6227.36 3130,6407.5C 3197.59,6557.34 3207.59,6711 3160,6868.5C 3124.46,6980.9 3064.3,7077.4 2979.5,7158C 2980.06,7158.38 2980.39,7158.88 2980.5,7159.5C 2801.2,7139.68 2629.86,7091.84 2466.5,7016C 2228.57,6904.45 2021.4,6750.95 1845,6555.5C 1725.9,6423.01 1625.57,6277.35 1544,6118.5C 1474.28,5974.67 1423.28,5824.34 1391,5667.5C 1360.46,5512.6 1341.13,5356.27 1333,5198.5C 1329,5129.21 1326,5059.88 1324,4990.5C 1320.64,4838.14 1316.64,4685.81 1312,4533.5C 1304.5,4377.21 1293,4221.21 1277.5,4065.5 Z"/></g>
<g><path style="opacity:1" fill="#15172b" d="M 4336.5,5064.5 C 4366.33,5123.17 4396.83,5181.5 4428,5239.5C 4490.16,5352.49 4552.83,5465.16 4616,5577.5C 4663.91,5649.41 4714.91,5719.08 4769,5786.5C 4771.88,5788.03 4774.21,5787.36 4776,5784.5C 4777.16,5780.88 4778.16,5777.21 4779,5773.5C 4784.6,5723.3 4788.93,5672.97 4792,5622.5C 4810.73,5446.86 4875.4,5290.86 4986,5154.5C 5017.54,5115.96 5052.7,5081.13 5091.5,5050C 5096.56,5045.94 5101.89,5042.28 5107.5,5039C 5125.9,5036.42 5134.07,5044.25 5132,5062.5C 5130.35,5067.16 5127.52,5070.99 5123.5,5074C 5078.7,5108.46 5038.87,5147.96 5004,5192.5C 4886.5,5345.65 4826.16,5519.32 4823,5713.5C 4820.72,5739.28 4817.72,5764.95 4814,5790.5C 4810.21,5804.28 4802.04,5814.45 4789.5,5821C 4783.9,5823.2 4778.23,5825.2 4772.5,5827C 4767.17,5827.67 4761.83,5827.67 4756.5,5827C 4750.38,5823.21 4745.21,5818.38 4741,5812.5C 4688.35,5745.85 4638.02,5677.52 4590,5607.5C 4501.16,5452.15 4414.66,5295.49 4330.5,5137.5C 4307.69,5091.89 4284.86,5046.22 4262,5000.5C 4239.38,4955.91 4212.05,4914.58 4180,4876.5C 4164.31,4859.8 4147.14,4844.96 4128.5,4832C 4084.72,4804.69 4039.05,4801.03 3991.5,4821C 3965.04,4836.4 3945.88,4858.23 3934,4886.5C 3919.38,4923.05 3911.38,4961.05 3910,5000.5C 3907.14,5051.28 3908.47,5101.95 3914,5152.5C 3938.06,5349.07 3988.22,5538.73 4064.5,5721.5C 4119.22,5854.61 4182.72,5983.28 4255,6107.5C 4359.76,6285.57 4477.76,6454.23 4609,6613.5C 4610.98,6631.18 4603.15,6639.35 4585.5,6638C 4583.27,6637.44 4581.27,6636.44 4579.5,6635C 4386.85,6405.42 4225.02,6154.92 4094,5883.5C 4073.31,5839.13 4053.48,5794.46 4034.5,5749.5C 4016.78,5705.75 3999.95,5661.75 3984,5617.5C 3929.55,5464.02 3893.21,5306.35 3875,5144.5C 3869.28,5084.81 3869.28,5025.14 3875,4965.5C 3878.75,4934.16 3886.42,4903.82 3898,4874.5C 3914.02,4834.82 3940.85,4804.99 3978.5,4785C 4036.19,4760.86 4091.86,4764.86 4145.5,4797C 4168.81,4812.44 4189.98,4830.61 4209,4851.5C 4233.39,4880.22 4255.05,4910.89 4274,4943.5C 4295.87,4983.23 4316.7,5023.57 4336.5,5064.5 Z"/></g>
<g><path style="opacity:1" fill="#b9bbb8" d="M 4330.5,5137.5 C 4309.01,5336.97 4235.84,5514.31 4111,5669.5C 4095.72,5687.09 4080.22,5704.43 4064.5,5721.5C 3988.22,5538.73 3938.06,5349.07 3914,5152.5C 3908.47,5101.95 3907.14,5051.28 3910,5000.5C 3911.38,4961.05 3919.38,4923.05 3934,4886.5C 3945.88,4858.23 3965.04,4836.4 3991.5,4821C 4039.05,4801.03 4084.72,4804.69 4128.5,4832C 4147.14,4844.96 4164.31,4859.8 4180,4876.5C 4212.05,4914.58 4239.38,4955.91 4262,5000.5C 4284.86,5046.22 4307.69,5091.89 4330.5,5137.5 Z"/></g>
<g><path style="opacity:1" fill="#a6a8a7" d="M 4212.5,3290.5 C 4214.88,3302.47 4218.38,3314.14 4223,3325.5C 4237.64,3362.78 4254.97,3398.78 4275,3433.5C 4300.08,3476 4325.42,3518.33 4351,3560.5C 4361,3578.5 4371,3596.5 4381,3614.5C 4424.8,3693.89 4449.13,3778.89 4454,3869.5C 4455.92,3915.16 4457.59,3960.82 4459,4006.5C 4461.32,4049.99 4465.32,4093.32 4471,4136.5C 4481.83,4228.15 4506.49,4315.82 4545,4399.5C 4596.56,4503.02 4666.73,4592.18 4755.5,4667C 4798.62,4703.08 4845.62,4733.41 4896.5,4758C 4962.1,4788.75 5031.1,4802.25 5103.5,4798.5C 5103.26,4799.79 5103.6,4800.79 5104.5,4801.5C 5147.06,5052.72 5151.89,5304.72 5119,5557.5C 5086.22,5800.67 5011.56,6030 4895,6245.5C 4875.63,6280.19 4855.46,6314.35 4834.5,6348C 4834.73,6348.4 4835.06,6348.57 4835.5,6348.5C 4823.36,6365.41 4811.7,6382.75 4800.5,6400.5C 4775.99,6436.18 4750.49,6471.18 4724,6505.5C 4627.11,6628.9 4516.61,6738.23 4392.5,6833.5C 4379.28,6841.4 4366.94,6850.4 4355.5,6860.5C 4275.94,6915.81 4191.94,6964.31 4103.5,7006C 4016.42,7045.81 3926.42,7077.47 3833.5,7101C 3613.29,7156.29 3389.63,7180.45 3162.5,7173.5C 3166.42,7169.28 3168.92,7164.28 3170,7158.5C 3217.16,6964.54 3249.5,6767.88 3267,6568.5C 3279.34,6418.01 3281.68,6267.35 3274,6116.5C 3270.78,6075.47 3267.28,6034.47 3263.5,5993.5C 3264.43,5994.57 3264.77,5995.9 3264.5,5997.5C 3379.62,6005.21 3493.62,5997.04 3606.5,5973C 3768.2,5941.99 3908.54,5870.65 4027.5,5759C 4030.89,5756.47 4033.22,5753.3 4034.5,5749.5C 4053.48,5794.46 4073.31,5839.13 4094,5883.5C 4225.02,6154.92 4386.85,6405.42 4579.5,6635C 4581.27,6636.44 4583.27,6637.44 4585.5,6638C 4603.15,6639.35 4610.98,6631.18 4609,6613.5C 4477.76,6454.23 4359.76,6285.57 4255,6107.5C 4182.72,5983.28 4119.22,5854.61 4064.5,5721.5C 4080.22,5704.43 4095.72,5687.09 4111,5669.5C 4235.84,5514.31 4309.01,5336.97 4330.5,5137.5C 4414.66,5295.49 4501.16,5452.15 4590,5607.5C 4638.02,5677.52 4688.35,5745.85 4741,5812.5C 4745.21,5818.38 4750.38,5823.21 4756.5,5827C 4761.83,5827.67 4767.17,5827.67 4772.5,5827C 4778.23,5825.2 4783.9,5823.2 4789.5,5821C 4802.04,5814.45 4810.21,5804.28 4814,5790.5C 4817.72,5764.95 4820.72,5739.28 4823,5713.5C 4826.16,5519.32 4886.5,5345.65 5004,5192.5C 5038.87,5147.96 5078.7,5108.46 5123.5,5074C 5127.52,5070.99 5130.35,5067.16 5132,5062.5C 5134.07,5044.25 5125.9,5036.42 5107.5,5039C 5101.89,5042.28 5096.56,5045.94 5091.5,5050C 5052.7,5081.13 5017.54,5115.96 4986,5154.5C 4875.4,5290.86 4810.73,5446.86 4792,5622.5C 4788.93,5672.97 4784.6,5723.3 4779,5773.5C 4778.16,5777.21 4777.16,5780.88 4776,5784.5C 4774.21,5787.36 4771.88,5788.03 4769,5786.5C 4714.91,5719.08 4663.91,5649.41 4616,5577.5C 4552.83,5465.16 4490.16,5352.49 4428,5239.5C 4396.83,5181.5 4366.33,5123.17 4336.5,5064.5C 4339,5022.67 4339.16,4980.67 4337,4938.5C 4327.03,4765.3 4288.03,4598.96 4220,4439.5C 4175.05,4337.58 4123.38,4239.58 4065,4145.5C 3995.39,4023.95 3935.73,3897.62 3886,3766.5C 3854.2,3674.78 3822.2,3583.11 3790,3491.5C 3782.86,3473.09 3775.53,3454.75 3768,3436.5C 3719.1,3316.38 3648.93,3210.88 3557.5,3120C 3495.77,3059.52 3424.94,3012.36 3345,2978.5C 3344.62,2979.06 3344.12,2979.39 3343.5,2979.5C 3348.12,2953.74 3353.62,2928.07 3360,2902.5C 3369.31,2867.22 3384.97,2835.22 3407,2806.5C 3450.5,2758.75 3497.34,2755.25 3547.5,2796C 3573.93,2821.08 3595.77,2849.58 3613,2881.5C 3782.42,3206.05 3932.76,3539.38 4064,3881.5C 4066.22,3885.39 4069.39,3888.22 4073.5,3890C 4085.46,3892.6 4093.96,3888.43 4099,3877.5C 4096.95,3837.54 4095.45,3797.54 4094.5,3757.5C 4094.08,3654.02 4108.25,3552.69 4137,3453.5C 4154.61,3395.45 4179.77,3341.11 4212.5,3290.5 Z"/></g>
<g><path style="opacity:1" fill="#636572" d="M 4057.5,3731.5 C 4057.67,3740.51 4057.5,3749.51 4057,3758.5C 4056.28,3757.96 4055.78,3757.29 4055.5,3756.5C 4056.17,3748.17 4056.83,3739.83 4057.5,3731.5 Z"/></g>
<g><path style="opacity:1" fill="#15172c" d="M 3263.5,5993.5 C 3267.28,6034.47 3270.78,6075.47 3274,6116.5C 3281.68,6267.35 3279.34,6418.01 3267,6568.5C 3249.5,6767.88 3217.16,6964.54 3170,7158.5C 3168.92,7164.28 3166.42,7169.28 3162.5,7173.5C 3153.56,7179.14 3144.9,7178.8 3136.5,7172.5C 3131.74,7166.7 3130.24,7160.04 3132,7152.5C 3194.71,6897.62 3230.71,6638.95 3240,6376.5C 3243.95,6248.43 3239.12,6120.76 3225.5,5993.5C 3209.57,5839.36 3177.74,5688.7 3130,5541.5C 3112.71,5489.99 3091.71,5439.99 3067,5391.5C 3051.42,5361.61 3033.09,5333.61 3012,5307.5C 2993.62,5284.77 2971.45,5266.93 2945.5,5254C 2907.82,5239.48 2871.16,5241.81 2835.5,5261C 2812,5275.17 2793.17,5294 2779,5317.5C 2761.79,5348.45 2750.13,5381.45 2744,5416.5C 2736.98,5458.53 2733.31,5500.87 2733,5543.5C 2732.54,5620.54 2730.71,5697.54 2727.5,5774.5C 2723.32,5872.27 2717.99,5969.94 2711.5,6067.5C 2708.93,6109.14 2706.76,6150.8 2705,6192.5C 2703.88,6211.93 2701.88,6231.26 2699,6250.5C 2685.23,6333.56 2669.23,6416.23 2651,6498.5C 2649.26,6502.24 2646.76,6505.41 2643.5,6508C 2611.97,6522.04 2587.14,6514.54 2569,6485.5C 2539.83,6437.83 2511.16,6389.83 2483,6341.5C 2473.73,6326.56 2464.06,6311.9 2454,6297.5C 2418.54,6250.03 2378.71,6206.19 2334.5,6166C 2246.52,6086.98 2145.86,6028.98 2032.5,5992C 1976.84,5974.48 1919.84,5967.14 1861.5,5970C 1800.45,5975.7 1746.12,5997.7 1698.5,6036C 1689.24,6038.56 1681.74,6036.06 1676,6028.5C 1670.95,6017.56 1673.11,6008.39 1682.5,6001C 1737.34,5958.27 1799.67,5935.27 1869.5,5932C 1916.83,5930.08 1963.49,5934.75 2009.5,5946C 2139.64,5982.06 2254.97,6044.72 2355.5,6134C 2419.65,6190.78 2474.15,6255.28 2519,6327.5C 2547.37,6377.08 2576.87,6425.91 2607.5,6474C 2610.65,6476.9 2613.82,6477.06 2617,6474.5C 2634.91,6394.96 2650.24,6314.96 2663,6234.5C 2667.2,6174.18 2671.04,6113.85 2674.5,6053.5C 2680.73,5949.4 2686.07,5845.06 2690.5,5740.5C 2692.74,5660.87 2694.57,5581.2 2696,5501.5C 2697.07,5482.44 2698.73,5463.44 2701,5444.5C 2705.45,5406.37 2714.45,5369.37 2728,5333.5C 2744.49,5290.36 2771.99,5256.19 2810.5,5231C 2881.01,5192.52 2947.01,5198.85 3008.5,5250C 3037.83,5277.31 3062.66,5308.15 3083,5342.5C 3113.47,5395.78 3138.81,5451.45 3159,5509.5C 3212.16,5666.81 3247,5828.14 3263.5,5993.5 Z"/></g>
<g><path style="opacity:1" fill="#b9bbb8" d="M 3225.5,5993.5 C 3135.82,5984.41 3049.82,5961.58 2967.5,5925C 2880.33,5885.62 2800.33,5835.45 2727.5,5774.5C 2730.71,5697.54 2732.54,5620.54 2733,5543.5C 2733.31,5500.87 2736.98,5458.53 2744,5416.5C 2750.13,5381.45 2761.79,5348.45 2779,5317.5C 2793.17,5294 2812,5275.17 2835.5,5261C 2871.16,5241.81 2907.82,5239.48 2945.5,5254C 2971.45,5266.93 2993.62,5284.77 3012,5307.5C 3033.09,5333.61 3051.42,5361.61 3067,5391.5C 3091.71,5439.99 3112.71,5489.99 3130,5541.5C 3177.74,5688.7 3209.57,5839.36 3225.5,5993.5 Z"/></g>
<g><path style="opacity:1" fill="#a6a8a7" d="M 2727.5,5774.5 C 2800.33,5835.45 2880.33,5885.62 2967.5,5925C 3049.82,5961.58 3135.82,5984.41 3225.5,5993.5C 3239.12,6120.76 3243.95,6248.43 3240,6376.5C 3230.71,6638.95 3194.71,6897.62 3132,7152.5C 3130.24,7160.04 3131.74,7166.7 3136.5,7172.5C 3084.27,7170.81 3032.27,7166.47 2980.5,7159.5C 2980.39,7158.88 2980.06,7158.38 2979.5,7158C 3064.3,7077.4 3124.46,6980.9 3160,6868.5C 3207.59,6711 3197.59,6557.34 3130,6407.5C 3045.01,6227.36 2905.84,6112.7 2712.5,6063.5C 2712.77,6065.1 2712.43,6066.43 2711.5,6067.5C 2717.99,5969.94 2723.32,5872.27 2727.5,5774.5 Z"/></g>
</svg>
