<?xml version="1.0" encoding="UTF-8"?>
<!DOCTYPE svg PUBLIC "-//W3C//DTD SVG 1.1//EN" "http://www.w3.org/Graphics/SVG/1.1/DTD/svg11.dtd">
<svg xmlns="http://www.w3.org/2000/svg" version="1.1" width="7972px" height="7972px" style="shape-rendering:geometricPrecision; text-rendering:geometricPrecision; image-rendering:optimizeQuality; fill-rule:evenodd; clip-rule:evenodd" xmlns:xlink="http://www.w3.org/1999/xlink">
<g><path style="opacity:0.126" fill="#fefefe" d="M -0.5,-0.5 C 2656.83,-0.5 5314.17,-0.5 7971.5,-0.5C 7971.5,2656.83 7971.5,5314.17 7971.5,7971.5C 5314.17,7971.5 2656.83,7971.5 -0.5,7971.5C -0.5,5314.17 -0.5,2656.83 -0.5,-0.5 Z"/></g>
<g><path style="opacity:0.19" fill="#ae9881" d="M 5752.5,5388.5 C 5753.81,5402.13 5754.81,5415.8 5755.5,5429.5C 5757.53,5547.64 5738.7,5662.31 5699,5773.5C 5672.23,5847 5639.73,5917.33 5601.5,5984.5C 5590.15,6001.87 5579.15,6019.54 5568.5,6037.5C 5491.47,6155.44 5400.47,6262.27 5295.5,6358C 5182.24,6461.1 5058.58,6549.6 4924.5,6623.5C 4921.64,6596.41 4915.48,6570.07 4906,6544.5C 4901.06,6531.01 4895.72,6517.67 4890,6504.5C 4876.72,6475.47 4863.55,6446.47 4850.5,6417.5C 5000.48,6366.02 5137.82,6291.85 5262.5,6195C 5350.1,6126.08 5424.27,6045.25 5485,5952.5C 5555.91,5840.76 5596.25,5718.76 5606,5586.5C 5613.11,5466.05 5588.78,5352.38 5533,5245.5C 5527.74,5235.62 5519.57,5231.79 5508.5,5234C 5498.45,5238.28 5494.28,5245.78 5496,5256.5C 5548.92,5356.07 5572.92,5462.4 5568,5575.5C 5561.63,5694.33 5528.3,5804.99 5468,5907.5C 5416.38,5992.83 5352.55,6068.33 5276.5,6134C 5168.69,6225.12 5049.03,6297.79 4917.5,6352C 4883.48,6365.79 4849.14,6378.79 4814.5,6391C 4807.22,6396.84 4804.72,6404.34 4807,6413.5C 4825.28,6454.08 4843.62,6494.74 4862,6535.5C 4876.97,6570.36 4885.47,6606.7 4887.5,6644.5C 4688.59,6747.72 4478.59,6817.39 4257.5,6853.5C 4228.74,6827.65 4210.57,6795.65 4203,6757.5C 4201.07,6728.87 4203.4,6700.53 4210,6672.5C 4216.15,6648.88 4222.15,6625.22 4228,6601.5C 4258.65,6461.56 4288.98,6321.56 4319,6181.5C 4333.38,6115.58 4352.05,6050.91 4375,5987.5C 4406.48,5903.86 4441.82,5821.86 4481,5741.5C 4527.18,5649.02 4572.84,5556.35 4618,5463.5C 4656.96,5382.59 4690.62,5299.59 4719,5214.5C 4744.62,5135.42 4760.62,5054.42 4767,4971.5C 4772.61,4885.59 4764.95,4800.92 4744,4717.5C 4738.56,4708.01 4730.4,4704.51 4719.5,4707C 4711.47,4710.35 4707.47,4716.35 4707.5,4725C 4726.11,4804.13 4733.28,4884.3 4729,4965.5C 4723.16,5040.34 4709.5,5113.68 4688,5185.5C 4665.44,5256.85 4638.78,5326.52 4608,5394.5C 4554.21,5508.49 4498.88,5621.83 4442,5734.5C 4405.09,5810.66 4371.75,5888.32 4342,5967.5C 4320.56,6026.14 4302.56,6085.81 4288,6146.5C 4254.84,6298.12 4221.84,6449.79 4189,6601.5C 4182.86,6623.71 4177.2,6646.04 4172,6668.5C 4164.98,6697.44 4162.64,6726.77 4165,6756.5C 4169.94,6796.03 4185.44,6830.7 4211.5,6860.5C 4036.57,6883.79 3861.57,6884.29 3686.5,6862C 3661.38,6858.64 3636.38,6854.64 3611.5,6850C 3591.5,6849.5 3571.5,6849.33 3551.5,6849.5C 3551.5,6851.17 3551.5,6852.83 3551.5,6854.5C 3550.84,6852.7 3550.5,6850.7 3550.5,6848.5C 3595.78,6046.85 3640.61,5245.19 3685,4443.5C 3685.67,4435.83 3685.67,4428.17 3685,4420.5C 3680.52,4409.34 3672.35,4405.17 3660.5,4408C 3650.2,4412.76 3645.7,4420.92 3647,4432.5C 3602.91,5238.2 3558.07,6043.86 3512.5,6849.5C 3468.83,6849.49 3425.16,6849.32 3381.5,6849C 3205.1,6879.55 3027.76,6886.38 2849.5,6869.5C 2863.52,6852.15 2875.02,6833.15 2884,6812.5C 2895.12,6783.87 2899.12,6754.21 2896,6723.5C 2894.65,6711.39 2892.65,6699.39 2890,6687.5C 2880.81,6653.25 2870.81,6619.25 2860,6585.5C 2821.32,6442.12 2782.32,6298.78 2743,6155.5C 2713.91,6055.23 2680.25,5956.57 2642,5859.5C 2601.22,5756.61 2559.89,5653.94 2518,5551.5C 2471.04,5435.95 2430.04,5318.28 2395,5198.5C 2373.42,5119.29 2357.76,5038.96 2348,4957.5C 2340.03,4880.47 2339.7,4803.47 2347,4726.5C 2350.14,4696.82 2354.3,4667.32 2359.5,4638C 2357.42,4624.93 2349.76,4618.93 2336.5,4620C 2329,4622.17 2324.17,4627 2322,4634.5C 2303.52,4736.49 2299.18,4839.15 2309,4942.5C 2320.05,5041.07 2339.05,5138.07 2366,5233.5C 2397.41,5338.5 2433.41,5441.83 2474,5543.5C 2520.93,5658.62 2567.26,5773.95 2613,5889.5C 2647.16,5978.4 2677.83,6068.73 2705,6160.5C 2745.92,6309.76 2786.59,6459.1 2827,6608.5C 2837.85,6640.06 2847.18,6672.06 2855,6704.5C 2865.97,6755.95 2854.97,6801.95 2822,6842.5C 2816.29,6849.95 2810.12,6856.95 2803.5,6863.5C 2568.54,6835.29 2345.21,6768.29 2133.5,6662.5C 2133.46,6635.65 2136.96,6609.31 2144,6583.5C 2150.29,6563.26 2157.96,6543.59 2167,6524.5C 2185.8,6487.9 2203.8,6450.9 2221,6413.5C 2223.75,6402.18 2219.92,6394.01 2209.5,6389C 2039.36,6337.43 1883.03,6259.1 1740.5,6154C 1666.74,6098.24 1601.58,6033.74 1545,5960.5C 1469.87,5861.86 1422.87,5750.86 1404,5627.5C 1388.89,5512.82 1405.89,5403.48 1455,5299.5C 1462.32,5285.53 1469.65,5271.53 1477,5257.5C 1479.45,5246.56 1475.61,5238.73 1465.5,5234C 1456.92,5231.8 1449.76,5233.96 1444,5240.5C 1381.81,5347.4 1354.48,5462.73 1362,5586.5C 1374.02,5729.91 1422.68,5859.25 1508,5974.5C 1573.64,6060.48 1650.14,6135.31 1737.5,6199C 1833.81,6268.17 1937.14,6325.51 2047.5,6371C 2090.11,6388.26 2133.11,6404.42 2176.5,6419.5C 2154.38,6462.41 2133.88,6506.08 2115,6550.5C 2103.28,6580.39 2097.11,6611.39 2096.5,6643.5C 1871.22,6525.8 1677.06,6368.8 1514,6172.5C 1439.89,6081.36 1377.56,5982.36 1327,5875.5C 1281.52,5778.05 1251.18,5676.05 1236,5569.5C 1221.28,5458.54 1228.95,5349.2 1259,5241.5C 1268.19,5209.93 1278.19,5178.6 1289,5147.5C 1312.39,5085.32 1335.39,5022.99 1358,4960.5C 1358.67,4953.5 1358.67,4946.5 1358,4939.5C 1348.84,4801.98 1345.51,4664.32 1348,4526.5C 1350.6,4398 1356.6,4269.67 1366,4141.5C 1382.3,3932.28 1400.96,3723.28 1422,3514.5C 1441.43,3325.16 1467.76,3136.82 1501,2949.5C 1535.23,2761.59 1580.9,2576.59 1638,2394.5C 1663.71,2315.09 1692.21,2236.76 1723.5,2159.5C 1722.5,2158.83 1721.5,2158.17 1720.5,2157.5C 1787.25,1998.33 1861.75,1842.99 1944,1691.5C 2039.37,1514.35 2143.04,1342.68 2255,1176.5C 2309.68,1096.15 2368.02,1018.48 2430,943.5C 2465.76,900.401 2504.93,860.568 2547.5,824C 2595.95,786.845 2643.95,787.511 2691.5,826C 2713.99,846.149 2733.16,868.983 2749,894.5C 2821.29,1026.09 2887.46,1160.76 2947.5,1298.5C 2949.83,1298.83 2952.17,1299.17 2954.5,1299.5C 3272.82,1269.42 3591.48,1265.25 3910.5,1287C 3964.88,1291.06 4019.21,1295.39 4073.5,1300C 4130.72,1169.73 4192.88,1041.9 4260,916.5C 4276.94,885.22 4298.1,857.053 4323.5,832C 4342.86,813.986 4365.53,802.319 4391.5,797C 4412.75,794.851 4432.75,798.851 4451.5,809C 4458,812.75 4464.34,816.75 4470.5,821C 4500.2,845.365 4528.04,871.865 4554,900.5C 4616.34,970.559 4674.34,1043.89 4728,1120.5C 4934.36,1418.4 5112.7,1733.74 5263,2066.5C 5276.4,2097.3 5289.24,2128.3 5301.5,2159.5C 5299.83,2159.5 5298.17,2159.5 5296.5,2159.5C 5377.18,2370.38 5442.01,2586.04 5491,2806.5C 5550.96,3081.55 5592.29,3359.55 5615,3640.5C 5635.31,3893.08 5646.64,4146.08 5649,4399.5C 5650.55,4532.86 5649.22,4666.2 5645,4799.5C 5642.1,4862.2 5639.1,4924.86 5636,4987.5C 5654.05,5036.6 5672.38,5085.6 5691,5134.5C 5713.59,5195.16 5731.26,5257.16 5744,5320.5C 5747.95,5343.04 5750.79,5365.7 5752.5,5388.5 Z"/></g>
<g><path style="opacity:1" fill="#15162b" d="M 2603.5,983.5 C 2625.63,981.531 2645.63,987.031 2663.5,1000C 2685.67,1018.85 2702.51,1041.68 2714,1068.5C 2761.12,1173.85 2798.28,1282.68 2825.5,1395C 2823.58,1411.46 2814.58,1417.79 2798.5,1414C 2794.67,1411.5 2791.5,1408.33 2789,1404.5C 2761.98,1295.76 2725.98,1190.09 2681,1087.5C 2671.41,1064.59 2657.25,1045.09 2638.5,1029C 2619.65,1017.75 2601.99,1019.42 2585.5,1034C 2573.09,1047 2562.26,1061.16 2553,1076.5C 2502.91,1156.75 2468.91,1243.41 2451,1336.5C 2446.75,1347.88 2438.58,1352.38 2426.5,1350C 2416.98,1345.46 2412.81,1337.96 2414,1327.5C 2435.96,1215.3 2479.96,1112.97 2546,1020.5C 2557.89,1006.6 2572.06,995.766 2588.5,988C 2593.65,986.558 2598.65,985.058 2603.5,983.5 Z"/></g>
<g><path style="opacity:1" fill="#15162b" d="M 4416.5,983.5 C 4438.07,981.637 4457.73,986.804 4475.5,999C 4485.33,1007.5 4494.5,1016.67 4503,1026.5C 4566.29,1117.61 4608.62,1217.94 4630,1327.5C 4631.27,1338.46 4626.77,1345.96 4616.5,1350C 4604.8,1352.07 4596.97,1347.57 4593,1336.5C 4574.36,1240.21 4538.69,1150.87 4486,1068.5C 4477.7,1054.19 4467.2,1041.69 4454.5,1031C 4438.58,1019.27 4422.25,1018.6 4405.5,1029C 4387.18,1044.43 4373.35,1063.26 4364,1085.5C 4318.49,1188.69 4282.16,1295.03 4255,1404.5C 4249.19,1414.55 4240.69,1417.72 4229.5,1414C 4222.67,1410.17 4219,1404.34 4218.5,1396.5C 4244.53,1287.58 4280.03,1181.92 4325,1079.5C 4336.49,1050.66 4353.32,1025.5 4375.5,1004C 4387.62,993.941 4401.28,987.108 4416.5,983.5 Z"/></g>
<g><path style="opacity:1" fill="#15162b" d="M 3296.5,1352.5 C 3299.52,1352.34 3302.52,1352.5 3305.5,1353C 3392.55,1388.39 3454.05,1449.55 3490,1536.5C 3509.04,1582.72 3516.37,1630.72 3512,1680.5C 3505.46,1693.85 3495.63,1697.02 3482.5,1690C 3476.7,1685.22 3474.03,1679.06 3474.5,1671.5C 3477.28,1603.67 3458.78,1542.33 3419,1487.5C 3386.11,1441.98 3343.61,1408.81 3291.5,1388C 3282.53,1380.95 3280.36,1372.11 3285,1361.5C 3288.18,1357.46 3292.02,1354.46 3296.5,1352.5 Z"/></g>
<g><path style="opacity:1" fill="#15162b" d="M 3455.5,1352.5 C 3459.6,1352.23 3463.6,1352.73 3467.5,1354C 3540,1384.16 3595.16,1433.66 3633,1502.5C 3663.92,1558.77 3676.25,1618.77 3670,1682.5C 3664.19,1692.55 3655.69,1695.72 3644.5,1692C 3638.11,1688.56 3634.44,1683.22 3633.5,1676C 3636.49,1578.66 3601.49,1497.99 3528.5,1434C 3505.01,1414.58 3479.01,1399.25 3450.5,1388C 3442.76,1382.47 3439.93,1374.97 3442,1365.5C 3445.1,1359.56 3449.6,1355.23 3455.5,1352.5 Z"/></g>
<g><path style="opacity:1" fill="#14162b" d="M 3592.5,1352.5 C 3598.52,1351.96 3604.19,1353.13 3609.5,1356C 3693.05,1393.55 3752.22,1454.72 3787,1539.5C 3804.74,1584.54 3811.74,1631.21 3808,1679.5C 3803.71,1690.9 3795.54,1695.4 3783.5,1693C 3777.58,1690.08 3773.41,1685.58 3771,1679.5C 3774.1,1581.55 3739.26,1500.05 3666.5,1435C 3642.24,1414.69 3615.24,1398.69 3585.5,1387C 3578.46,1380.08 3576.62,1371.92 3580,1362.5C 3583.19,1357.84 3587.36,1354.5 3592.5,1352.5 Z"/></g>
<g><path style="opacity:1" fill="#15172c" d="M 5568.5,6037.5 C 5579.15,6019.54 5590.15,6001.87 5601.5,5984.5C 5739.7,5934.9 5873.7,5875.73 6003.5,5807C 6113.41,5748.07 6214.74,5677.07 6307.5,5594C 6413.97,5495.93 6501.8,5383.76 6571,5257.5C 6639.77,5122.43 6684.77,4979.76 6706,4829.5C 6724.03,4702.01 6728.7,4574.01 6720,4445.5C 6707.47,4266.6 6674.47,4091.6 6621,3920.5C 6602.8,3862.57 6583.8,3804.91 6564,3747.5C 6527.99,3645.47 6491.99,3543.47 6456,3441.5C 6410.69,3313.58 6370.02,3184.25 6334,3053.5C 6300.31,2927.05 6276.64,2798.72 6263,2668.5C 6256.88,2605.95 6254.88,2543.29 6257,2480.5C 6258.93,2407.82 6288.09,2348.98 6344.5,2304C 6379.49,2278.69 6415.82,2255.36 6453.5,2234C 6555.17,2172.17 6600.67,2081.67 6590,1962.5C 6577.6,1889.15 6540.1,1832.65 6477.5,1793C 6402.4,1746.54 6322.73,1736.54 6238.5,1763C 6192.23,1780.98 6150.89,1806.65 6114.5,1840C 6033.79,1918.19 5974.29,2010.35 5936,2116.5C 5900.52,2217.38 5881.18,2321.38 5878,2428.5C 5875.48,2521.58 5880.48,2614.25 5893,2706.5C 5904.05,2784.86 5918.72,2862.53 5937,2939.5C 5947.52,2981.24 5958.18,3022.9 5969,3064.5C 6015.97,3229.43 6064.97,3393.77 6116,3557.5C 6149.28,3667.6 6179.61,3778.6 6207,3890.5C 6236.31,4011.67 6256.97,4134.33 6269,4258.5C 6287.31,4449.35 6273.31,4637.68 6227,4823.5C 6209.31,4891.58 6186.64,4957.91 6159,5022.5C 6075.52,5208.82 5941.02,5344.48 5755.5,5429.5C 5754.81,5415.8 5753.81,5402.13 5752.5,5388.5C 5924.55,5305.28 6049.39,5176.28 6127,5001.5C 6189.17,4851.3 6225.17,4694.97 6235,4532.5C 6242.16,4410.05 6237.5,4288.05 6221,4166.5C 6208.42,4074.59 6191.08,3983.59 6169,3893.5C 6143.33,3789.15 6114.99,3685.48 6084,3582.5C 6045.36,3455.93 6007.02,3329.26 5969,3202.5C 5943.46,3114.99 5919.79,3026.99 5898,2938.5C 5869.07,2817.78 5850.4,2695.45 5842,2571.5C 5834.42,2454.05 5842.42,2337.72 5866,2222.5C 5892.14,2099.92 5942.81,1988.92 6018,1889.5C 6061.23,1832.25 6113.73,1785.75 6175.5,1750C 6264.16,1702.75 6355.16,1697.75 6448.5,1735C 6526.42,1767.25 6581.25,1822.42 6613,1900.5C 6640.95,1985.78 6633.95,2068.12 6592,2147.5C 6567.12,2191.71 6533.29,2227.55 6490.5,2255C 6465,2270.92 6439.33,2286.58 6413.5,2302C 6392.04,2315.46 6371.71,2330.46 6352.5,2347C 6322.63,2375.57 6304.46,2410.4 6298,2451.5C 6293.69,2485.7 6292.36,2520.03 6294,2554.5C 6298.58,2681.39 6314.91,2806.73 6343,2930.5C 6370.21,3048.33 6402.87,3164.66 6441,3279.5C 6459.81,3335.61 6478.81,3391.61 6498,3447.5C 6534.73,3550.37 6571.07,3653.37 6607,3756.5C 6640.55,3853.03 6670.21,3950.69 6696,4049.5C 6734,4202.53 6755.67,4357.86 6761,4515.5C 6767.3,4686.78 6748.3,4855.12 6704,5020.5C 6665.51,5163.12 6603.51,5294.12 6518,5413.5C 6428.38,5537.46 6321.21,5643.62 6196.5,5732C 6108.71,5793.26 6016.04,5846.92 5918.5,5893C 5803.98,5946.43 5687.31,5994.6 5568.5,6037.5 Z"/></g>
<g><path style="opacity:1" fill="#fefefe" d="M 5601.5,5984.5 C 5639.73,5917.33 5672.23,5847 5699,5773.5C 5738.7,5662.31 5757.53,5547.64 5755.5,5429.5C 5941.02,5344.48 6075.52,5208.82 6159,5022.5C 6186.64,4957.91 6209.31,4891.58 6227,4823.5C 6273.31,4637.68 6287.31,4449.35 6269,4258.5C 6256.97,4134.33 6236.31,4011.67 6207,3890.5C 6179.61,3778.6 6149.28,3667.6 6116,3557.5C 6064.97,3393.77 6015.97,3229.43 5969,3064.5C 5958.18,3022.9 5947.52,2981.24 5937,2939.5C 5918.72,2862.53 5904.05,2784.86 5893,2706.5C 5880.48,2614.25 5875.48,2521.58 5878,2428.5C 5881.18,2321.38 5900.52,2217.38 5936,2116.5C 5974.29,2010.35 6033.79,1918.19 6114.5,1840C 6150.89,1806.65 6192.23,1780.98 6238.5,1763C 6322.73,1736.54 6402.4,1746.54 6477.5,1793C 6540.1,1832.65 6577.6,1889.15 6590,1962.5C 6600.67,2081.67 6555.17,2172.17 6453.5,2234C 6415.82,2255.36 6379.49,2278.69 6344.5,2304C 6288.09,2348.98 6258.93,2407.82 6257,2480.5C 6254.88,2543.29 6256.88,2605.95 6263,2668.5C 6276.64,2798.72 6300.31,2927.05 6334,3053.5C 6370.02,3184.25 6410.69,3313.58 6456,3441.5C 6491.99,3543.47 6527.99,3645.47 6564,3747.5C 6583.8,3804.91 6602.8,3862.57 6621,3920.5C 6674.47,4091.6 6707.47,4266.6 6720,4445.5C 6728.7,4574.01 6724.03,4702.01 6706,4829.5C 6684.77,4979.76 6639.77,5122.43 6571,5257.5C 6501.8,5383.76 6413.97,5495.93 6307.5,5594C 6214.74,5677.07 6113.41,5748.07 6003.5,5807C 5873.7,5875.73 5739.7,5934.9 5601.5,5984.5 Z"/></g>
<g><path style="opacity:1" fill="#14162b" d="M 3324.5,1958.5 C 3358.45,1959.6 3381.45,1976.1 3393.5,2008C 3404.03,2042.74 3396.69,2073.07 3371.5,2099C 3354.18,2113.2 3334.51,2117.87 3312.5,2113C 3282.28,2101.09 3265.11,2078.92 3261,2046.5C 3258.08,2013.52 3269.91,1987.36 3296.5,1968C 3305.32,1962.89 3314.66,1959.73 3324.5,1958.5 Z"/></g>
<g><path style="opacity:1" fill="#14162b" d="M 3846.5,1958.5 C 3878.08,1958.25 3900.91,1972.25 3915,2000.5C 3927.54,2032.01 3924.2,2061.68 3905,2089.5C 3883.35,2114.12 3857.19,2120.62 3826.5,2109C 3803.64,2096.12 3790.14,2076.62 3786,2050.5C 3781.64,2018.24 3791.8,1991.74 3816.5,1971C 3825.74,1964.76 3835.74,1960.59 3846.5,1958.5 Z"/></g>
<g><path style="opacity:1" fill="#15162b" d="M 3135.5,2733.5 C 3103.22,2770.11 3065.89,2800.28 3023.5,2824C 3004.89,2828.06 2996.06,2820.56 2997,2801.5C 2998.38,2797.24 3000.88,2793.74 3004.5,2791C 3064.97,2758.03 3111.97,2711.53 3145.5,2651.5C 3201.23,2550.41 3201.4,2449.08 3146,2347.5C 3111.59,2288.59 3064.76,2242.26 3005.5,2208.5C 2999.91,2202.57 2998.08,2195.57 3000,2187.5C 3004.71,2178.23 3012.21,2174.4 3022.5,2176C 3106.24,2221.75 3166.07,2288.91 3202,2377.5C 3237.78,2474.79 3231.78,2569.46 3184,2661.5C 3170.04,2687.11 3153.88,2711.11 3135.5,2733.5 Z"/></g>
<g><path style="opacity:1" fill="#15162b" d="M 4015.5,2543.5 C 4026.2,2607.22 4052.7,2663.22 4095,2711.5C 4123.5,2744.02 4156.67,2770.52 4194.5,2791C 4204.79,2800.97 4205.13,2811.3 4195.5,2822C 4189.89,2825.21 4183.89,2826.21 4177.5,2825C 4107.62,2786.12 4053.45,2731.62 4015,2661.5C 4008.01,2647.86 4001.85,2633.86 3996.5,2619.5C 3963.42,2531.38 3966.25,2444.38 4005,2358.5C 4038.5,2288.32 4087.66,2231.82 4152.5,2189C 4160,2184.41 4167.67,2180.08 4175.5,2176C 4193.23,2174.73 4201.07,2182.9 4199,2200.5C 4197.88,2203.25 4196.38,2205.75 4194.5,2208C 4108.86,2256.74 4051.36,2328.24 4022,2422.5C 4010.92,2462.38 4008.75,2502.72 4015.5,2543.5 Z"/></g>
<g><path style="opacity:1" fill="#14162b" d="M 3577.5,2192.5 C 3604.51,2191.46 3630.51,2195.96 3655.5,2206C 3680.5,2219.5 3690.33,2240.33 3685,2268.5C 3681.14,2283.56 3674.14,2296.89 3664,2308.5C 3648.8,2324.57 3632.46,2339.24 3615,2352.5C 3603.76,2386.18 3603.76,2419.85 3615,2453.5C 3624.92,2477.42 3642.42,2492.92 3667.5,2500C 3714.87,2510.99 3758.87,2503.32 3799.5,2477C 3806.37,2471.79 3812.21,2465.63 3817,2458.5C 3820.46,2450.32 3823.46,2441.99 3826,2433.5C 3833.59,2424.84 3842.43,2423.34 3852.5,2429C 3860.58,2436.24 3862.75,2445.07 3859,2455.5C 3856.27,2465.62 3851.94,2474.95 3846,2483.5C 3822.59,2511.13 3793.09,2528.97 3757.5,2537C 3731.06,2542.59 3704.4,2543.93 3677.5,2541C 3638.55,2536.05 3608.55,2517.21 3587.5,2484.5C 3565.78,2518.05 3534.78,2536.88 3494.5,2541C 3443.76,2547.64 3397.09,2536.98 3354.5,2509C 3337.85,2497.02 3325.68,2481.52 3318,2462.5C 3314.92,2454.77 3313.92,2446.77 3315,2438.5C 3323.78,2423.78 3334.78,2421.78 3348,2432.5C 3348.75,2434.33 3349.75,2436 3351,2437.5C 3353.11,2452.87 3360.27,2465.37 3372.5,2475C 3409.29,2500.63 3449.96,2509.96 3494.5,2503C 3524.86,2498.93 3546.36,2483.1 3559,2455.5C 3571.72,2419.09 3571.38,2382.75 3558,2346.5C 3535.9,2330.8 3517.23,2311.8 3502,2289.5C 3491.32,2273.06 3488.32,2255.4 3493,2236.5C 3503.18,2216.97 3519.02,2204.47 3540.5,2199C 3552.79,2195.78 3565.13,2193.61 3577.5,2192.5 Z"/></g>
<g><path style="opacity:1" fill="#15162b" d="M 2768.5,2386.5 C 2850.45,2396.83 2932.45,2406.83 3014.5,2416.5C 3023.42,2417.91 3032.42,2419.07 3041.5,2420C 3054.36,2425.23 3058.36,2434.4 3053.5,2447.5C 3047.67,2455.91 3039.67,2459.07 3029.5,2457C 2920.88,2443.32 2812.21,2430.15 2703.5,2417.5C 2512.61,2393.4 2321.61,2369.9 2130.5,2347C 2119.84,2344.84 2113.84,2338.34 2112.5,2327.5C 2115.57,2312.63 2124.57,2306.79 2139.5,2310C 2349.17,2335.69 2558.83,2361.19 2768.5,2386.5 Z"/></g>
<g><path style="opacity:1" fill="#15162b" d="M 4437.5,2418.5 C 4331.14,2431.25 4224.81,2444.25 4118.5,2457.5C 4104.89,2455.99 4098.56,2448.32 4099.5,2434.5C 4103.35,2423.64 4111.02,2418.31 4122.5,2418.5C 4205.8,2408.17 4289.13,2398.17 4372.5,2388.5C 4585.5,2362.47 4798.5,2336.3 5011.5,2310C 5018.25,2309.12 5024.92,2309.46 5031.5,2311C 5041.86,2317.89 5044.36,2327.05 5039,2338.5C 5035.46,2343.52 5030.62,2346.36 5024.5,2347C 4828.82,2370.7 4633.16,2394.53 4437.5,2418.5 Z"/></g>
<g><path style="opacity:1" fill="#d6ae7f" d="M 3014.5,2416.5 C 2932.45,2406.83 2850.45,2396.83 2768.5,2386.5C 2845.78,2361.36 2920.78,2367.19 2993.5,2404C 3000.56,2408.19 3007.56,2412.36 3014.5,2416.5 Z"/></g>
<g><path style="opacity:1" fill="#d8b07f" d="M 4372.5,2388.5 C 4289.13,2398.17 4205.8,2408.17 4122.5,2418.5C 4127.26,2414.37 4132.93,2410.53 4139.5,2407C 4212.42,2368.24 4288.42,2360.91 4367.5,2385C 4369.76,2385.55 4371.43,2386.72 4372.5,2388.5 Z"/></g>
<g><path style="opacity:1" fill="#d8b07f" d="M 2703.5,2417.5 C 2812.21,2430.15 2920.88,2443.32 3029.5,2457C 3039.67,2459.07 3047.67,2455.91 3053.5,2447.5C 3059.74,2452.24 3065.58,2457.57 3071,2463.5C 3119.04,2516.76 3143.88,2579.43 3145.5,2651.5C 3111.97,2711.53 3064.97,2758.03 3004.5,2791C 3000.88,2793.74 2998.38,2797.24 2997,2801.5C 2996.06,2820.56 3004.89,2828.06 3023.5,2824C 3065.89,2800.28 3103.22,2770.11 3135.5,2733.5C 3109.27,2822.48 3053.61,2885.31 2968.5,2922C 2883.25,2954.84 2800.25,2949.84 2719.5,2907C 2632.82,2854.52 2584.49,2777.68 2574.5,2676.5C 2722.11,2655.2 2869.78,2634.03 3017.5,2613C 3026.65,2610.2 3031.65,2604.04 3032.5,2594.5C 3029.74,2579.44 3020.74,2573.27 3005.5,2576C 2861.85,2596.75 2718.19,2617.25 2574.5,2637.5C 2583.43,2543.71 2626.43,2470.37 2703.5,2417.5 Z"/></g>
<g><path style="opacity:1" fill="#d8b07f" d="M 4437.5,2418.5 C 4502.76,2463.66 4543.59,2525.33 4560,2603.5C 4561.98,2614.07 4563.14,2624.74 4563.5,2635.5C 4424.79,2615.99 4286.12,2596.16 4147.5,2576C 4133.35,2573.91 4125.02,2579.91 4122.5,2594C 4123.21,2603.76 4128.21,2610.09 4137.5,2613C 4279.65,2633.47 4421.65,2653.97 4563.5,2674.5C 4555.08,2776.21 4507.42,2853.38 4420.5,2906C 4337.4,2950.72 4252.06,2955.39 4164.5,2920C 4071.2,2875.94 4015.03,2803.11 3996,2701.5C 3992.04,2675.57 3991.54,2649.57 3994.5,2623.5C 3994.59,2621.67 3995.25,2620.33 3996.5,2619.5C 4001.85,2633.86 4008.01,2647.86 4015,2661.5C 4053.45,2731.62 4107.62,2786.12 4177.5,2825C 4183.89,2826.21 4189.89,2825.21 4195.5,2822C 4205.13,2811.3 4204.79,2800.97 4194.5,2791C 4156.67,2770.52 4123.5,2744.02 4095,2711.5C 4052.7,2663.22 4026.2,2607.22 4015.5,2543.5C 4035.05,2500.77 4063.05,2464.43 4099.5,2434.5C 4098.56,2448.32 4104.89,2455.99 4118.5,2457.5C 4224.81,2444.25 4331.14,2431.25 4437.5,2418.5 Z"/></g>
<g><path style="opacity:1" fill="#15162b" d="M 2574.5,2676.5 C 2427.78,2697.13 2281.12,2718.13 2134.5,2739.5C 2117.96,2735.42 2112.79,2725.42 2119,2709.5C 2122.56,2704.47 2127.39,2701.64 2133.5,2701C 2280.66,2679.95 2427.66,2658.79 2574.5,2637.5C 2718.19,2617.25 2861.85,2596.75 3005.5,2576C 3020.74,2573.27 3029.74,2579.44 3032.5,2594.5C 3031.65,2604.04 3026.65,2610.2 3017.5,2613C 2869.78,2634.03 2722.11,2655.2 2574.5,2676.5 Z"/></g>
<g><path style="opacity:1" fill="#15162b" d="M 4563.5,2635.5 C 4717.47,2657.61 4871.47,2679.78 5025.5,2702C 5038.66,2707.83 5042.16,2717.33 5036,2730.5C 5031.73,2736.13 5026.07,2739.13 5019,2739.5C 4867.18,2717.6 4715.35,2695.93 4563.5,2674.5C 4421.65,2653.97 4279.65,2633.47 4137.5,2613C 4128.21,2610.09 4123.21,2603.76 4122.5,2594C 4125.02,2579.91 4133.35,2573.91 4147.5,2576C 4286.12,2596.16 4424.79,2615.99 4563.5,2635.5 Z"/></g>
<g><path style="opacity:1" fill="#15162b" d="M 3693.5,3039.5 C 3710.67,3039.18 3718.17,3047.51 3716,3064.5C 3705.65,3086.51 3689.15,3102.01 3666.5,3111C 3622.39,3127.22 3580.73,3122.56 3541.5,3097C 3531.48,3089.65 3523.64,3080.48 3518,3069.5C 3515.82,3052.35 3523.32,3044.18 3540.5,3045C 3542.95,3045.72 3545.28,3046.72 3547.5,3048C 3559.97,3066.57 3577.3,3077.57 3599.5,3081C 3621.37,3084.89 3642.04,3081.56 3661.5,3071C 3666.92,3067.58 3671.76,3063.41 3676,3058.5C 3678.54,3053.24 3681.71,3048.41 3685.5,3044C 3688.1,3042.2 3690.77,3040.7 3693.5,3039.5 Z"/></g>
<g><path style="opacity:1" fill="#15172c" d="M 3551.5,6854.5 C 3555.91,6905.3 3564.74,6955.3 3578,7004.5C 3587.28,7035.75 3602.28,7063.75 3623,7088.5C 3659.07,7125.47 3701.57,7135.31 3750.5,7118C 3782.29,7104.95 3801.12,7081.45 3807,7047.5C 3813.44,7036.29 3822.61,7033.45 3834.5,7039C 3842.72,7045.93 3845.88,7054.77 3844,7065.5C 3858.31,7096.82 3880.14,7121.65 3909.5,7140C 3941.45,7157.82 3974.45,7160.16 4008.5,7147C 4043.88,7129.1 4061.88,7100.27 4062.5,7060.5C 4062.11,7052.15 4061.94,7043.82 4062,7035.5C 4068.53,7022.16 4078.36,7018.99 4091.5,7026C 4096,7029.84 4098.84,7034.67 4100,7040.5C 4119.73,7060.22 4142.23,7076.06 4167.5,7088C 4206.9,7102.25 4242.56,7095.92 4274.5,7069C 4292.74,7050.33 4302.07,7027.83 4302.5,7001.5C 4301.82,6975.29 4293.32,6951.95 4277,6931.5C 4256.04,6907.04 4234.2,6883.37 4211.5,6860.5C 4185.44,6830.7 4169.94,6796.03 4165,6756.5C 4162.64,6726.77 4164.98,6697.44 4172,6668.5C 4177.2,6646.04 4182.86,6623.71 4189,6601.5C 4221.84,6449.79 4254.84,6298.12 4288,6146.5C 4302.56,6085.81 4320.56,6026.14 4342,5967.5C 4371.75,5888.32 4405.09,5810.66 4442,5734.5C 4498.88,5621.83 4554.21,5508.49 4608,5394.5C 4638.78,5326.52 4665.44,5256.85 4688,5185.5C 4709.5,5113.68 4723.16,5040.34 4729,4965.5C 4733.28,4884.3 4726.11,4804.13 4707.5,4725C 4707.47,4716.35 4711.47,4710.35 4719.5,4707C 4730.4,4704.51 4738.56,4708.01 4744,4717.5C 4764.95,4800.92 4772.61,4885.59 4767,4971.5C 4760.62,5054.42 4744.62,5135.42 4719,5214.5C 4690.62,5299.59 4656.96,5382.59 4618,5463.5C 4572.84,5556.35 4527.18,5649.02 4481,5741.5C 4441.82,5821.86 4406.48,5903.86 4375,5987.5C 4352.05,6050.91 4333.38,6115.58 4319,6181.5C 4288.98,6321.56 4258.65,6461.56 4228,6601.5C 4222.15,6625.22 4216.15,6648.88 4210,6672.5C 4203.4,6700.53 4201.07,6728.87 4203,6757.5C 4210.57,6795.65 4228.74,6827.65 4257.5,6853.5C 4269.46,6866.63 4281.63,6879.63 4294,6892.5C 4307.23,6907.28 4318.23,6923.61 4327,6941.5C 4331.17,6950.35 4334.34,6959.51 4336.5,6969C 4434.53,6965.42 4530.53,6949.75 4624.5,6922C 4687.69,6902.91 4745.36,6873.57 4797.5,6834C 4823.54,6813.63 4845.7,6789.8 4864,6762.5C 4878.83,6736.52 4886.83,6708.52 4888,6678.5C 4888.79,6667.12 4888.62,6655.79 4887.5,6644.5C 4885.47,6606.7 4876.97,6570.36 4862,6535.5C 4843.62,6494.74 4825.28,6454.08 4807,6413.5C 4804.72,6404.34 4807.22,6396.84 4814.5,6391C 4849.14,6378.79 4883.48,6365.79 4917.5,6352C 5049.03,6297.79 5168.69,6225.12 5276.5,6134C 5352.55,6068.33 5416.38,5992.83 5468,5907.5C 5528.3,5804.99 5561.63,5694.33 5568,5575.5C 5572.92,5462.4 5548.92,5356.07 5496,5256.5C 5494.28,5245.78 5498.45,5238.28 5508.5,5234C 5519.57,5231.79 5527.74,5235.62 5533,5245.5C 5588.78,5352.38 5613.11,5466.05 5606,5586.5C 5596.25,5718.76 5555.91,5840.76 5485,5952.5C 5424.27,6045.25 5350.1,6126.08 5262.5,6195C 5137.82,6291.85 5000.48,6366.02 4850.5,6417.5C 4863.55,6446.47 4876.72,6475.47 4890,6504.5C 4895.72,6517.67 4901.06,6531.01 4906,6544.5C 4915.48,6570.07 4921.64,6596.41 4924.5,6623.5C 4926.71,6655.31 4925.55,6686.98 4921,6718.5C 4913.35,6753.47 4898.01,6784.47 4875,6811.5C 4836,6855.73 4790.17,6890.9 4737.5,6917C 4676.91,6946.31 4613.57,6967.64 4547.5,6981C 4478.8,6994.74 4409.47,7003.58 4339.5,7007.5C 4333.74,7072.83 4299.08,7113.66 4235.5,7130C 4195.52,7137.39 4158.52,7130.06 4124.5,7108C 4115.58,7101.96 4106.75,7095.79 4098,7089.5C 4079.65,7155.17 4036.32,7189.83 3968,7193.5C 3933.76,7193.53 3902.93,7183.36 3875.5,7163C 3855.39,7146.95 3837.89,7128.45 3823,7107.5C 3798.62,7139.79 3766.12,7158.29 3725.5,7163C 3664.67,7168 3616.5,7145.83 3581,7096.5C 3557.73,7061.29 3541.57,7022.95 3532.5,6981.5C 3522.84,7019.82 3506,7054.49 3482,7085.5C 3444.59,7126.53 3398.09,7143.7 3342.5,7137C 3307.85,7131.14 3279.19,7114.97 3256.5,7088.5C 3251.01,7096.13 3245.51,7103.8 3240,7111.5C 3215.3,7144.95 3182.8,7167.11 3142.5,7178C 3091.54,7188.81 3047.7,7175.97 3011,7139.5C 2996.7,7123.58 2986.53,7105.24 2980.5,7084.5C 2962.67,7100.59 2942.67,7113.42 2920.5,7123C 2870.09,7141.53 2823.42,7134.87 2780.5,7103C 2751.94,7078.04 2736.61,7046.54 2734.5,7008.5C 2640.41,7003.82 2547.41,6991.32 2455.5,6971C 2385.54,6954.91 2319.21,6929.57 2256.5,6895C 2210.68,6869.19 2170.84,6836.02 2137,6795.5C 2104.17,6750.19 2090.67,6699.53 2096.5,6643.5C 2097.11,6611.39 2103.28,6580.39 2115,6550.5C 2133.88,6506.08 2154.38,6462.41 2176.5,6419.5C 2133.11,6404.42 2090.11,6388.26 2047.5,6371C 1937.14,6325.51 1833.81,6268.17 1737.5,6199C 1650.14,6135.31 1573.64,6060.48 1508,5974.5C 1422.68,5859.25 1374.02,5729.91 1362,5586.5C 1354.48,5462.73 1381.81,5347.4 1444,5240.5C 1449.76,5233.96 1456.92,5231.8 1465.5,5234C 1475.61,5238.73 1479.45,5246.56 1477,5257.5C 1469.65,5271.53 1462.32,5285.53 1455,5299.5C 1405.89,5403.48 1388.89,5512.82 1404,5627.5C 1422.87,5750.86 1469.87,5861.86 1545,5960.5C 1601.58,6033.74 1666.74,6098.24 1740.5,6154C 1883.03,6259.1 2039.36,6337.43 2209.5,6389C 2219.92,6394.01 2223.75,6402.18 2221,6413.5C 2203.8,6450.9 2185.8,6487.9 2167,6524.5C 2157.96,6543.59 2150.29,6563.26 2144,6583.5C 2136.96,6609.31 2133.46,6635.65 2133.5,6662.5C 2131.61,6708.68 2145.78,6749.01 2176,6783.5C 2223.06,6832.54 2278.23,6869.7 2341.5,6895C 2387.83,6913.89 2435.5,6928.55 2484.5,6939C 2568.06,6955.99 2652.39,6966.15 2737.5,6969.5C 2742.28,6951.28 2749.78,6934.28 2760,6918.5C 2773.57,6899.43 2788.07,6881.1 2803.5,6863.5C 2810.12,6856.95 2816.29,6849.95 2822,6842.5C 2854.97,6801.95 2865.97,6755.95 2855,6704.5C 2847.18,6672.06 2837.85,6640.06 2827,6608.5C 2786.59,6459.1 2745.92,6309.76 2705,6160.5C 2677.83,6068.73 2647.16,5978.4 2613,5889.5C 2567.26,5773.95 2520.93,5658.62 2474,5543.5C 2433.41,5441.83 2397.41,5338.5 2366,5233.5C 2339.05,5138.07 2320.05,5041.07 2309,4942.5C 2299.18,4839.15 2303.52,4736.49 2322,4634.5C 2324.17,4627 2329,4622.17 2336.5,4620C 2349.76,4618.93 2357.42,4624.93 2359.5,4638C 2354.3,4667.32 2350.14,4696.82 2347,4726.5C 2339.7,4803.47 2340.03,4880.47 2348,4957.5C 2357.76,5038.96 2373.42,5119.29 2395,5198.5C 2430.04,5318.28 2471.04,5435.95 2518,5551.5C 2559.89,5653.94 2601.22,5756.61 2642,5859.5C 2680.25,5956.57 2713.91,6055.23 2743,6155.5C 2782.32,6298.78 2821.32,6442.12 2860,6585.5C 2870.81,6619.25 2880.81,6653.25 2890,6687.5C 2892.65,6699.39 2894.65,6711.39 2896,6723.5C 2899.12,6754.21 2895.12,6783.87 2884,6812.5C 2875.02,6833.15 2863.52,6852.15 2849.5,6869.5C 2829.74,6890.43 2811.24,6912.43 2794,6935.5C 2769.45,6970.77 2765.79,7008.1 2783,7047.5C 2801.99,7078.59 2829.82,7094.59 2866.5,7095.5C 2890.72,7095.04 2912.72,7087.87 2932.5,7074C 2947.51,7063.66 2961.34,7051.83 2974,7038.5C 2976.48,7033.61 2978.81,7028.61 2981,7023.5C 2988.39,7016.04 2996.89,7014.54 3006.5,7019C 3009.76,7021.59 3012.26,7024.76 3014,7028.5C 3010.83,7058.3 3017.83,7085.3 3035,7109.5C 3066.45,7142.77 3103.95,7151.93 3147.5,7137C 3171.22,7127.39 3191.05,7112.55 3207,7092.5C 3217.1,7079.97 3225.44,7066.3 3232,7051.5C 3234.47,7046.16 3234.97,7040.66 3233.5,7035C 3235.65,7021.2 3243.65,7015.53 3257.5,7018C 3263.36,7019.51 3267.53,7023.01 3270,7028.5C 3277.97,7062.81 3298.8,7085.31 3332.5,7096C 3394.71,7109.8 3441.21,7088.97 3472,7033.5C 3487.14,7003.41 3497.48,6971.74 3503,6938.5C 3507.74,6909 3510.91,6879.33 3512.5,6849.5C 3558.07,6043.86 3602.91,5238.2 3647,4432.5C 3645.7,4420.92 3650.2,4412.76 3660.5,4408C 3672.35,4405.17 3680.52,4409.34 3685,4420.5C 3685.67,4428.17 3685.67,4435.83 3685,4443.5C 3640.61,5245.19 3595.78,6046.85 3550.5,6848.5C 3550.5,6850.7 3550.84,6852.7 3551.5,6854.5 Z"/></g>
<g><path style="opacity:1" fill="#fefefe" d="M 4887.5,6644.5 C 4888.62,6655.79 4888.79,6667.12 4888,6678.5C 4886.83,6708.52 4878.83,6736.52 4864,6762.5C 4845.7,6789.8 4823.54,6813.63 4797.5,6834C 4745.36,6873.57 4687.69,6902.91 4624.5,6922C 4530.53,6949.75 4434.53,6965.42 4336.5,6969C 4334.34,6959.51 4331.17,6950.35 4327,6941.5C 4318.23,6923.61 4307.23,6907.28 4294,6892.5C 4281.63,6879.63 4269.46,6866.63 4257.5,6853.5C 4478.59,6817.39 4688.59,6747.72 4887.5,6644.5 Z"/></g>
<g><path style="opacity:1" fill="#fefefe" d="M 2133.5,6662.5 C 2345.21,6768.29 2568.54,6835.29 2803.5,6863.5C 2788.07,6881.1 2773.57,6899.43 2760,6918.5C 2749.78,6934.28 2742.28,6951.28 2737.5,6969.5C 2652.39,6966.15 2568.06,6955.99 2484.5,6939C 2435.5,6928.55 2387.83,6913.89 2341.5,6895C 2278.23,6869.7 2223.06,6832.54 2176,6783.5C 2145.78,6749.01 2131.61,6708.68 2133.5,6662.5 Z"/></g>
<g><path style="opacity:1" fill="#fefefe" d="M 3512.5,6849.5 C 3510.91,6879.33 3507.74,6909 3503,6938.5C 3497.48,6971.74 3487.14,7003.41 3472,7033.5C 3441.21,7088.97 3394.71,7109.8 3332.5,7096C 3298.8,7085.31 3277.97,7062.81 3270,7028.5C 3267.53,7023.01 3263.36,7019.51 3257.5,7018C 3243.65,7015.53 3235.65,7021.2 3233.5,7035C 3234.97,7040.66 3234.47,7046.16 3232,7051.5C 3225.44,7066.3 3217.1,7079.97 3207,7092.5C 3191.05,7112.55 3171.22,7127.39 3147.5,7137C 3103.95,7151.93 3066.45,7142.77 3035,7109.5C 3017.83,7085.3 3010.83,7058.3 3014,7028.5C 3012.26,7024.76 3009.76,7021.59 3006.5,7019C 2996.89,7014.54 2988.39,7016.04 2981,7023.5C 2978.81,7028.61 2976.48,7033.61 2974,7038.5C 2961.34,7051.83 2947.51,7063.66 2932.5,7074C 2912.72,7087.87 2890.72,7095.04 2866.5,7095.5C 2829.82,7094.59 2801.99,7078.59 2783,7047.5C 2765.79,7008.1 2769.45,6970.77 2794,6935.5C 2811.24,6912.43 2829.74,6890.43 2849.5,6869.5C 3027.76,6886.38 3205.1,6879.55 3381.5,6849C 3425.16,6849.32 3468.83,6849.49 3512.5,6849.5 Z"/></g>
<g><path style="opacity:1" fill="#fefefe" d="M 4211.5,6860.5 C 4234.2,6883.37 4256.04,6907.04 4277,6931.5C 4293.32,6951.95 4301.82,6975.29 4302.5,7001.5C 4302.07,7027.83 4292.74,7050.33 4274.5,7069C 4242.56,7095.92 4206.9,7102.25 4167.5,7088C 4142.23,7076.06 4119.73,7060.22 4100,7040.5C 4098.84,7034.67 4096,7029.84 4091.5,7026C 4078.36,7018.99 4068.53,7022.16 4062,7035.5C 4061.94,7043.82 4062.11,7052.15 4062.5,7060.5C 4061.88,7100.27 4043.88,7129.1 4008.5,7147C 3974.45,7160.16 3941.45,7157.82 3909.5,7140C 3880.14,7121.65 3858.31,7096.82 3844,7065.5C 3845.88,7054.77 3842.72,7045.93 3834.5,7039C 3822.61,7033.45 3813.44,7036.29 3807,7047.5C 3801.12,7081.45 3782.29,7104.95 3750.5,7118C 3701.57,7135.31 3659.07,7125.47 3623,7088.5C 3602.28,7063.75 3587.28,7035.75 3578,7004.5C 3564.74,6955.3 3555.91,6905.3 3551.5,6854.5C 3551.5,6852.83 3551.5,6851.17 3551.5,6849.5C 3571.5,6849.33 3591.5,6849.5 3611.5,6850C 3636.38,6854.64 3661.38,6858.64 3686.5,6862C 3861.57,6884.29 4036.57,6883.79 4211.5,6860.5 Z"/></g>
</svg>
