<?xml version="1.0" encoding="UTF-8"?>
<!DOCTYPE svg PUBLIC "-//W3C//DTD SVG 1.1//EN" "http://www.w3.org/Graphics/SVG/1.1/DTD/svg11.dtd">
<svg xmlns="http://www.w3.org/2000/svg" version="1.1" width="7972px" height="6378px" style="shape-rendering:geometricPrecision; text-rendering:geometricPrecision; image-rendering:optimizeQuality; fill-rule:evenodd; clip-rule:evenodd" xmlns:xlink="http://www.w3.org/1999/xlink">
<g><path style="opacity:0.127" fill="#fefefe" d="M -0.5,-0.5 C 2656.83,-0.5 5314.17,-0.5 7971.5,-0.5C 7971.5,2125.5 7971.5,4251.5 7971.5,6377.5C 5314.17,6377.5 2656.83,6377.5 -0.5,6377.5C -0.5,4251.5 -0.5,2125.5 -0.5,-0.5 Z"/></g>
<g><path style="opacity:1" fill="#f6b491" d="M 6129.5,3166.5 C 6124.99,3178.68 6120.66,3191.02 6116.5,3203.5C 6081.95,3297.24 6035.95,3384.57 5978.5,3465.5C 5969.53,3477.48 5960.53,3489.48 5951.5,3501.5C 5935.54,3521.46 5919.21,3541.13 5902.5,3560.5C 5898.18,3549 5889.85,3544.17 5877.5,3546C 5871.33,3548.17 5867.17,3552.33 5865,3558.5C 5864.5,3572.83 5864.33,3587.16 5864.5,3601.5C 5771.7,3697.56 5665.7,3775.56 5546.5,3835.5C 5474.71,3730.91 5375.04,3674.41 5247.5,3666C 5209.14,3664.1 5170.81,3661.77 5132.5,3659C 5014.97,3645 4920.13,3591.5 4848,3498.5C 4816.18,3454.55 4790.85,3406.88 4772,3355.5C 4754.86,3309.09 4739.53,3262.09 4726,3214.5C 4717.98,3202.43 4707.81,3200.26 4695.5,3208C 4689.94,3213.4 4688.11,3219.9 4690,3227.5C 4705.52,3282.73 4723.85,3337.06 4745,3390.5C 4769.92,3453.99 4805.25,3510.66 4851,3560.5C 4927.46,3639.47 5020.62,3684.97 5130.5,3697C 5165.47,3699.41 5200.47,3701.41 5235.5,3703C 5352.66,3707.72 5444.66,3757.56 5511.5,3852.5C 5410.48,3898.09 5305.14,3929.43 5195.5,3946.5C 5183.23,3948.75 5170.9,3950.75 5158.5,3952.5C 5111.31,3958.92 5063.98,3964.09 5016.5,3968C 4957.05,3972.01 4897.72,3975.18 4838.5,3977.5C 4822.15,3977.26 4805.81,3977.59 4789.5,3978.5C 4664.36,3979.97 4539.36,3984.8 4414.5,3993C 4317.74,4001.93 4221.74,4015.93 4126.5,4035C 4031.12,4055.51 3936.45,4078.85 3842.5,4105C 3797.81,4117.79 3753.14,4130.79 3708.5,4144C 3570.27,4186.74 3431.94,4229.08 3293.5,4271C 3125.75,4320.45 2955.75,4359.95 2783.5,4389.5C 2789.25,4377.91 2786.58,4368.75 2775.5,4362C 2765.46,4358.46 2757.29,4360.96 2751,4369.5C 2744.97,4379.58 2738.47,4389.24 2731.5,4398.5C 2630.3,4413.22 2528.63,4423.72 2426.5,4430C 2386.86,4432.01 2347.19,4433.18 2307.5,4433.5C 2374.75,4355.27 2407.25,4264.27 2405,4160.5C 2401.29,4123.71 2391.29,4088.71 2375,4055.5C 2365.8,4036.99 2355.8,4018.99 2345,4001.5C 2319.25,3963.01 2294.25,3924.01 2270,3884.5C 2249.64,3849.74 2236.64,3812.41 2231,3772.5C 2228.72,3731.88 2234.72,3692.55 2249,3654.5C 2265.17,3612.82 2286.5,3574.15 2313,3538.5C 2370.39,3463.1 2441.56,3404.6 2526.5,3363C 2534.81,3355.89 2536.65,3347.39 2532,3337.5C 2526.54,3329.53 2519.04,3326.69 2509.5,3329C 2416.41,3374.5 2338.91,3439 2277,3522.5C 2241.79,3570.58 2216.46,3623.58 2201,3681.5C 2187.67,3735.27 2190,3788.27 2208,3840.5C 2222.34,3877.18 2240.34,3911.85 2262,3944.5C 2277.67,3968.17 2293.33,3991.83 2309,4015.5C 2329.59,4046.68 2345.92,4080.02 2358,4115.5C 2367.94,4149.94 2370.28,4184.94 2365,4220.5C 2352.4,4305.37 2314.9,4376.71 2252.5,4434.5C 2122.24,4433.87 1992.9,4422.87 1864.5,4401.5C 1846.5,4398.5 1828.5,4395.5 1810.5,4392.5C 1710.7,4372.3 1613.04,4344.13 1517.5,4308C 1485.57,4295.03 1453.9,4281.53 1422.5,4267.5C 1411.52,4261.34 1400.18,4255.67 1388.5,4250.5C 1265.95,4188.27 1157.45,4106.93 1063,4006.5C 894.136,3817.74 803.469,3596.08 791,3341.5C 785.718,3194.76 812.052,3054.09 870,2919.5C 917.211,2725.19 970.544,2532.53 1030,2341.5C 1046.97,2287.92 1066.3,2235.26 1088,2183.5C 1095.38,2167.06 1104.05,2151.39 1114,2136.5C 1124.96,2123.76 1138.8,2119.26 1155.5,2123C 1177.9,2127.37 1198.9,2135.37 1218.5,2147C 1253.16,2167.66 1286.16,2190.66 1317.5,2216C 1350.39,2243.22 1382.39,2271.55 1413.5,2301C 1437.68,2325.35 1462.01,2349.51 1486.5,2373.5C 1611.91,2336.05 1739.91,2321.71 1870.5,2330.5C 1925.84,2248.97 1986.34,2171.3 2052,2097.5C 2084.97,2060.53 2120.47,2026.36 2158.5,1995C 2176.68,1980.4 2196.35,1968.07 2217.5,1958C 2224.64,1955.07 2231.97,1952.73 2239.5,1951C 2255.07,1947.97 2267.91,1952.47 2278,1964.5C 2285.05,1973.22 2291.72,1982.22 2298,1991.5C 2322.13,2032.09 2344.46,2073.75 2365,2116.5C 2428.8,2254.43 2488.47,2394.09 2544,2535.5C 2558.49,2536.77 2572.99,2536.27 2587.5,2534C 2644.44,2525.69 2699.11,2509.69 2751.5,2486C 2808.35,2459.58 2863.02,2429.58 2915.5,2396C 3028.16,2321.03 3142.16,2248.03 3257.5,2177C 3396.13,2092.67 3538.8,2015 3685.5,1944C 3813.45,1883.24 3944.78,1830.91 4079.5,1787C 4274.26,1723.92 4473.93,1687.58 4678.5,1678C 4869.6,1669.37 5057.26,1690.37 5241.5,1741C 5377.09,1779.5 5504.09,1836.5 5622.5,1912C 5818.36,2040.85 5968.53,2210.01 6073,2419.5C 6134.9,2547.1 6169.57,2681.77 6177,2823.5C 6180.75,2940.62 6164.91,3054.95 6129.5,3166.5 Z"/></g>
<g><path style="opacity:1" fill="#15172c" d="M 5951.5,3501.5 C 5960.53,3489.48 5969.53,3477.48 5978.5,3465.5C 6078.05,3472.53 6177.72,3475.7 6277.5,3475C 6447.38,3472.78 6607.71,3432.78 6758.5,3355C 6882.18,3289.32 6982.35,3197.82 7059,3080.5C 7139.32,2950.21 7172.98,2808.55 7160,2655.5C 7150.33,2553.16 7126.66,2454.16 7089,2358.5C 7053.87,2267.24 7012.54,2178.91 6965,2093.5C 6932.22,2035.83 6892.05,1983.67 6844.5,1937C 6823.77,1918.14 6801.44,1901.47 6777.5,1887C 6725.88,1862.16 6677.88,1867.83 6633.5,1904C 6608.8,1927.24 6593.96,1955.74 6589,1989.5C 6585.46,2022.02 6588.12,2054.02 6597,2085.5C 6608.52,2125.06 6624.52,2162.73 6645,2198.5C 6657.5,2220.17 6670.5,2241.5 6684,2262.5C 6712.26,2304.69 6741.26,2346.36 6771,2387.5C 6802.86,2432.51 6831.19,2479.85 6856,2529.5C 6876.58,2571.26 6891.58,2614.92 6901,2660.5C 6918.03,2749.27 6904.36,2832.94 6860,2911.5C 6820.36,2979.14 6767.19,3033.64 6700.5,3075C 6647.66,3107.19 6591.33,3131.85 6531.5,3149C 6472.06,3165.69 6411.73,3178.02 6350.5,3186C 6272.64,3196.32 6194.64,3202.16 6116.5,3203.5C 6120.66,3191.02 6124.99,3178.68 6129.5,3166.5C 6218.99,3163.02 6307.99,3154.52 6396.5,3141C 6466.32,3130.04 6533.98,3111.37 6599.5,3085C 6682.53,3051.28 6751.03,2998.78 6805,2927.5C 6874.9,2827.79 6888.9,2720.46 6847,2605.5C 6830.42,2561.67 6810.08,2519.67 6786,2479.5C 6775.33,2462.83 6764.67,2446.17 6754,2429.5C 6720.17,2381.85 6686.84,2333.85 6654,2285.5C 6626.68,2244.53 6602.68,2201.53 6582,2156.5C 6566.58,2120.56 6556.24,2083.23 6551,2044.5C 6543.29,1988.33 6556.62,1937.99 6591,1893.5C 6646.08,1834.77 6711.24,1819.94 6786.5,1849C 6830.29,1873.77 6869.13,1904.94 6903,1942.5C 6953.03,2000.84 6995.36,2064.51 7030,2133.5C 7070.67,2214.5 7106.67,2297.5 7138,2382.5C 7170.02,2472.56 7190.02,2565.23 7198,2660.5C 7211.7,2876.11 7145.37,3062.44 6999,3219.5C 6901.39,3320.02 6786.56,3394.52 6654.5,3443C 6560.8,3477.81 6464.13,3499.47 6364.5,3508C 6341.2,3509.85 6317.86,3511.18 6294.5,3512C 6179.99,3514.18 6065.65,3510.68 5951.5,3501.5 Z"/></g>
<g><path style="opacity:1" fill="#15162b" d="M 5253.5,1852.5 C 5257.58,1852.34 5261.58,1852.84 5265.5,1854C 5525.32,1934.6 5733.16,2085.77 5889,2307.5C 5971.64,2429.15 6030.14,2561.82 6064.5,2705.5C 6062.21,2719.14 6054.21,2725.31 6040.5,2724C 6034.64,2722.49 6030.47,2718.99 6028,2713.5C 5973.95,2492.8 5865.45,2304.3 5702.5,2148C 5573.08,2027.58 5423.08,1941.58 5252.5,1890C 5241.87,1885.24 5237.7,1877.08 5240,1865.5C 5243.1,1859.56 5247.6,1855.23 5253.5,1852.5 Z"/></g>
<g><path style="opacity:1" fill="#fefefe" d="M 5978.5,3465.5 C 6035.95,3384.57 6081.95,3297.24 6116.5,3203.5C 6194.64,3202.16 6272.64,3196.32 6350.5,3186C 6411.73,3178.02 6472.06,3165.69 6531.5,3149C 6591.33,3131.85 6647.66,3107.19 6700.5,3075C 6767.19,3033.64 6820.36,2979.14 6860,2911.5C 6904.36,2832.94 6918.03,2749.27 6901,2660.5C 6891.58,2614.92 6876.58,2571.26 6856,2529.5C 6831.19,2479.85 6802.86,2432.51 6771,2387.5C 6741.26,2346.36 6712.26,2304.69 6684,2262.5C 6670.5,2241.5 6657.5,2220.17 6645,2198.5C 6624.52,2162.73 6608.52,2125.06 6597,2085.5C 6588.12,2054.02 6585.46,2022.02 6589,1989.5C 6593.96,1955.74 6608.8,1927.24 6633.5,1904C 6677.88,1867.83 6725.88,1862.16 6777.5,1887C 6801.44,1901.47 6823.77,1918.14 6844.5,1937C 6892.05,1983.67 6932.22,2035.83 6965,2093.5C 7012.54,2178.91 7053.87,2267.24 7089,2358.5C 7126.66,2454.16 7150.33,2553.16 7160,2655.5C 7172.98,2808.55 7139.32,2950.21 7059,3080.5C 6982.35,3197.82 6882.18,3289.32 6758.5,3355C 6607.71,3432.78 6447.38,3472.78 6277.5,3475C 6177.72,3475.7 6078.05,3472.53 5978.5,3465.5 Z"/></g>
<g><path style="opacity:1" fill="#15162b" d="M 2230.5,2029.5 C 2241.95,2027.48 2250.45,2031.48 2256,2041.5C 2307.43,2127.02 2354.77,2215.02 2398,2305.5C 2410.44,2332.14 2422.1,2359.14 2433,2386.5C 2436.31,2404.52 2428.81,2413.35 2410.5,2413C 2406.21,2411.6 2402.71,2409.1 2400,2405.5C 2352.35,2292.19 2296.85,2183.19 2233.5,2078.5C 2161.68,2150.04 2091.35,2222.88 2022.5,2297C 2008.61,2303.59 1998.78,2299.76 1993,2285.5C 1991.97,2280.11 1992.97,2275.11 1996,2270.5C 2071.38,2189.78 2148.21,2110.28 2226.5,2032C 2228.07,2031.39 2229.4,2030.56 2230.5,2029.5 Z"/></g>
<g><path style="opacity:1" fill="#15162b" d="M 1142.5,2202.5 C 1146.51,2202.33 1150.51,2202.5 1154.5,2203C 1247.84,2264.92 1339.34,2329.42 1429,2396.5C 1435.97,2409.7 1432.81,2419.53 1419.5,2426C 1413.08,2427.3 1407.08,2426.3 1401.5,2423C 1321.47,2363.9 1240.31,2306.4 1158,2250.5C 1115.03,2366.4 1080.37,2484.73 1054,2605.5C 1048.48,2612.56 1041.31,2615.06 1032.5,2613C 1022.18,2608.54 1018.02,2600.7 1020,2589.5C 1035.78,2512.06 1055.78,2435.73 1080,2360.5C 1095.88,2310.75 1112.88,2261.42 1131,2212.5C 1133.82,2207.84 1137.65,2204.51 1142.5,2202.5 Z"/></g>
<g><path style="opacity:1" fill="#15162b" d="M 1925.5,2635.5 C 1955.94,2636.09 1974.1,2651.42 1980,2681.5C 1982.24,2704.13 1974.41,2722.3 1956.5,2736C 1925.97,2748.49 1903.8,2739.66 1890,2709.5C 1881.44,2684.58 1886.6,2663.08 1905.5,2645C 1911.6,2640.45 1918.27,2637.28 1925.5,2635.5 Z"/></g>
<g><path style="opacity:1" fill="#15162b" d="M 2521.5,2645.5 C 2533.48,2643.57 2541.65,2648.24 2546,2659.5C 2547.27,2668.7 2544.1,2675.87 2536.5,2681C 2386.74,2738.81 2237.08,2796.81 2087.5,2855C 2069.7,2855.54 2062.2,2847.04 2065,2829.5C 2067.56,2823.94 2071.73,2820.11 2077.5,2818C 2225.7,2760.72 2373.7,2703.22 2521.5,2645.5 Z"/></g>
<g><path style="opacity:1" fill="#15162b" d="M 1569.5,2659.5 C 1600.34,2660.84 1618.18,2676.84 1623,2707.5C 1624.98,2728.59 1617.81,2745.76 1601.5,2759C 1574.08,2772.75 1552.24,2766.58 1536,2740.5C 1524.32,2714.89 1527.82,2691.72 1546.5,2671C 1553.44,2665.53 1561.11,2661.69 1569.5,2659.5 Z"/></g>
<g><path style="opacity:1" fill="#16172b" d="M 1001.5,2791.5 C 1004.52,2791.34 1007.52,2791.5 1010.5,2792C 1164.79,2824.95 1319.12,2857.61 1473.5,2890C 1490.49,2895.15 1494.99,2905.65 1487,2921.5C 1480.22,2927.82 1472.38,2929.65 1463.5,2927C 1308.11,2894.2 1152.78,2861.2 997.5,2828C 985.846,2820.21 983.68,2810.38 991,2798.5C 994.154,2795.49 997.654,2793.16 1001.5,2791.5 Z"/></g>
<g><path style="opacity:1" fill="#15162b" d="M 2561.5,2807.5 C 2567.93,2807.13 2574.26,2807.63 2580.5,2809C 2590.86,2815.89 2593.36,2825.05 2588,2836.5C 2585.31,2840.19 2581.81,2842.69 2577.5,2844C 2414.51,2866.76 2251.51,2889.43 2088.5,2912C 2075.44,2914.55 2067.27,2909.39 2064,2896.5C 2063.86,2884.94 2069.36,2877.77 2080.5,2875C 2240.99,2852.62 2401.32,2830.12 2561.5,2807.5 Z"/></g>
<g><path style="opacity:1" fill="#15162b" d="M 1754.5,2823.5 C 1772.98,2822.05 1790.98,2824.22 1808.5,2830C 1829.85,2841.83 1836.02,2859.33 1827,2882.5C 1818.67,2898.51 1807.67,2912.51 1794,2924.5C 1786.56,2947.95 1786.9,2971.29 1795,2994.5C 1802.69,3012.27 1816.19,3022.1 1835.5,3024C 1863.72,3026.86 1889.39,3020.2 1912.5,3004C 1921.42,2997 1926.25,2987.84 1927,2976.5C 1931.71,2967.23 1939.21,2963.4 1949.5,2965C 1961.49,2969.82 1965.99,2978.65 1963,2991.5C 1957.71,3012.45 1945.88,3028.62 1927.5,3040C 1889.83,3062.97 1849.83,3068.3 1807.5,3056C 1794.8,3050.98 1783.8,3043.48 1774.5,3033.5C 1759.54,3053.83 1739.54,3066.33 1714.5,3071C 1678.79,3077.91 1645.12,3072.58 1613.5,3055C 1594.68,3043.85 1583.35,3027.52 1579.5,3006C 1583.77,2989.87 1593.77,2984.87 1609.5,2991C 1611.33,2992.83 1613.17,2994.67 1615,2996.5C 1618.02,3009.52 1625.52,3019.02 1637.5,3025C 1661.95,3036.24 1687.29,3038.57 1713.5,3032C 1731.16,3027.61 1742.66,3016.77 1748,2999.5C 1752.7,2980.34 1752.04,2961.34 1746,2942.5C 1743.66,2936.49 1741.33,2930.49 1739,2924.5C 1726.04,2915.21 1714.71,2904.21 1705,2891.5C 1692.21,2872.6 1694.04,2855.44 1710.5,2840C 1723.86,2830.83 1738.52,2825.33 1754.5,2823.5 Z"/></g>
<g><path style="opacity:1" fill="#15162b" d="M 2077.5,2935.5 C 2085.86,2935.53 2094.19,2936.03 2102.5,2937C 2257.81,2955.51 2413.14,2973.85 2568.5,2992C 2581.19,2994.23 2587.02,3001.73 2586,3014.5C 2584.7,3021.8 2580.54,3026.63 2573.5,3029C 2567.5,3029.67 2561.5,3029.67 2555.5,3029C 2400.2,3010.37 2244.86,2992.03 2089.5,2974C 2069.25,2972.78 2062.09,2962.62 2068,2943.5C 2070.77,2940.22 2073.94,2937.55 2077.5,2935.5 Z"/></g>
<g><path style="opacity:1" fill="#15162b" d="M 1462.5,2939.5 C 1481.18,2937.68 1489.68,2946.01 1488,2964.5C 1485.74,2971.1 1481.24,2975.26 1474.5,2977C 1307.16,2981.25 1139.83,2985.25 972.5,2989C 957.329,2983.15 953.496,2972.99 961,2958.5C 963.559,2955.47 966.726,2953.3 970.5,2952C 1134.65,2947.57 1298.65,2943.41 1462.5,2939.5 Z"/></g>
<g><path style="opacity:1" fill="#15162b" d="M 1466.5,2992.5 C 1477.82,2990.32 1485.98,2994.32 1491,3004.5C 1493.86,3017.97 1488.69,3026.47 1475.5,3030C 1319.53,3074.66 1163.53,3119.33 1007.5,3164C 997.306,3164.65 990.472,3160.15 987,3150.5C 984.59,3139.58 988.424,3131.75 998.5,3127C 1154.71,3082.45 1310.71,3037.62 1466.5,2992.5 Z"/></g>
<g><path style="opacity:1" fill="#15172b" d="M 5546.5,3835.5 C 5598.83,3914.82 5617.33,4001.49 5602,4095.5C 5595.15,4127.05 5584.15,4157.05 5569,4185.5C 5566.06,4192.39 5563.39,4199.39 5561,4206.5C 5557.52,4219.78 5559.52,4232.11 5567,4243.5C 5569.4,4246.4 5572.23,4248.73 5575.5,4250.5C 5571.93,4208.82 5585.26,4173.66 5615.5,4145C 5619.59,4141.91 5623.92,4139.24 5628.5,4137C 5644.51,4136.01 5652.35,4143.51 5652,4159.5C 5649.31,4166.86 5644.48,4172.36 5637.5,4176C 5613.42,4200.7 5607.42,4229.2 5619.5,4261.5C 5628.83,4262.61 5638.16,4262.61 5647.5,4261.5C 5640.26,4219.39 5652.26,4183.89 5683.5,4155C 5686.56,4152.28 5689.89,4149.94 5693.5,4148C 5713.01,4145.84 5721.17,4154.34 5718,4173.5C 5717,4175.17 5716,4176.83 5715,4178.5C 5691.79,4195.93 5681.29,4219.26 5683.5,4248.5C 5690.14,4246.05 5696.47,4242.88 5702.5,4239C 5754.86,4203.46 5795.02,4157.29 5823,4100.5C 5849.75,4043.82 5865.09,3984.15 5869,3921.5C 5868.35,3814.66 5866.85,3708 5864.5,3601.5C 5864.33,3587.16 5864.5,3572.83 5865,3558.5C 5867.17,3552.33 5871.33,3548.17 5877.5,3546C 5889.85,3544.17 5898.18,3549 5902.5,3560.5C 5903.51,3647.5 5904.68,3734.5 5906,3821.5C 5914.71,3913.1 5902.71,4001.77 5870,4087.5C 5846.61,4144.79 5812.45,4194.62 5767.5,4237C 5742.25,4259.8 5713.92,4277.8 5682.5,4291C 5645.11,4303.62 5607.78,4303.62 5570.5,4291C 5535.15,4274.8 5518.98,4247.3 5522,4208.5C 5523.71,4200.75 5525.71,4193.09 5528,4185.5C 5540.62,4160.97 5551.29,4135.64 5560,4109.5C 5576.48,4047.53 5573.48,3986.53 5551,3926.5C 5540.65,3900.12 5527.48,3875.45 5511.5,3852.5C 5444.66,3757.56 5352.66,3707.72 5235.5,3703C 5200.47,3701.41 5165.47,3699.41 5130.5,3697C 5020.62,3684.97 4927.46,3639.47 4851,3560.5C 4805.25,3510.66 4769.92,3453.99 4745,3390.5C 4723.85,3337.06 4705.52,3282.73 4690,3227.5C 4688.11,3219.9 4689.94,3213.4 4695.5,3208C 4707.81,3200.26 4717.98,3202.43 4726,3214.5C 4739.53,3262.09 4754.86,3309.09 4772,3355.5C 4790.85,3406.88 4816.18,3454.55 4848,3498.5C 4920.13,3591.5 5014.97,3645 5132.5,3659C 5170.81,3661.77 5209.14,3664.1 5247.5,3666C 5375.04,3674.41 5474.71,3730.91 5546.5,3835.5 Z"/></g>
<g><path style="opacity:1" fill="#15172b" d="M 2307.5,4433.5 C 2261.75,4484.57 2205.75,4519.73 2139.5,4539C 2126.1,4543.41 2115.27,4551.25 2107,4562.5C 2101.74,4570.86 2100.24,4579.86 2102.5,4589.5C 2139.17,4554.53 2181.83,4544.69 2230.5,4560C 2248.77,4565.69 2253.27,4576.86 2244,4593.5C 2237.96,4598.23 2231.13,4599.73 2223.5,4598C 2195.85,4586.46 2169.19,4588.46 2143.5,4604C 2134.85,4610.65 2126.85,4617.99 2119.5,4626C 2127.05,4635.22 2135.55,4643.38 2145,4650.5C 2185.71,4615.7 2230.88,4608.54 2280.5,4629C 2291.17,4639.33 2291.17,4649.67 2280.5,4660C 2276.87,4661.9 2273.04,4663.07 2269,4663.5C 2259.73,4660.29 2250.23,4657.79 2240.5,4656C 2218.47,4653.18 2198.47,4658.18 2180.5,4671C 2192.23,4675.02 2204.23,4678.02 2216.5,4680C 2264.03,4683.98 2310.69,4679.31 2356.5,4666C 2501.34,4620.44 2621.18,4538.61 2716,4420.5C 2721.39,4413.29 2726.55,4405.95 2731.5,4398.5C 2738.47,4389.24 2744.97,4379.58 2751,4369.5C 2757.29,4360.96 2765.46,4358.46 2775.5,4362C 2786.58,4368.75 2789.25,4377.91 2783.5,4389.5C 2723.86,4481.64 2647.53,4556.81 2554.5,4615C 2478.73,4664.04 2396.39,4697.04 2307.5,4714C 2271.21,4719.53 2234.88,4719.86 2198.5,4715C 2144.89,4703.97 2104.06,4675.14 2076,4628.5C 2051.01,4575.14 2064.51,4534.98 2116.5,4508C 2133.35,4501.27 2150.35,4494.94 2167.5,4489C 2199.26,4475.81 2227.59,4457.64 2252.5,4434.5C 2314.9,4376.71 2352.4,4305.37 2365,4220.5C 2370.28,4184.94 2367.94,4149.94 2358,4115.5C 2345.92,4080.02 2329.59,4046.68 2309,4015.5C 2293.33,3991.83 2277.67,3968.17 2262,3944.5C 2240.34,3911.85 2222.34,3877.18 2208,3840.5C 2190,3788.27 2187.67,3735.27 2201,3681.5C 2216.46,3623.58 2241.79,3570.58 2277,3522.5C 2338.91,3439 2416.41,3374.5 2509.5,3329C 2519.04,3326.69 2526.54,3329.53 2532,3337.5C 2536.65,3347.39 2534.81,3355.89 2526.5,3363C 2441.56,3404.6 2370.39,3463.1 2313,3538.5C 2286.5,3574.15 2265.17,3612.82 2249,3654.5C 2234.72,3692.55 2228.72,3731.88 2231,3772.5C 2236.64,3812.41 2249.64,3849.74 2270,3884.5C 2294.25,3924.01 2319.25,3963.01 2345,4001.5C 2355.8,4018.99 2365.8,4036.99 2375,4055.5C 2391.29,4088.71 2401.29,4123.71 2405,4160.5C 2407.25,4264.27 2374.75,4355.27 2307.5,4433.5 Z"/></g>
<g><path style="opacity:1" fill="#15162b" d="M 1874.5,3437.5 C 1889.49,3438.65 1896.33,3446.65 1895,3461.5C 1877.93,3496.57 1850.09,3517.07 1811.5,3523C 1771.4,3524.7 1739.9,3509.2 1717,3476.5C 1714.39,3471.62 1712.06,3466.62 1710,3461.5C 1708.1,3451.07 1711.93,3443.57 1721.5,3439C 1729.74,3437 1736.9,3438.84 1743,3444.5C 1759.91,3478.54 1786.75,3490.71 1823.5,3481C 1833.78,3476.94 1842.62,3470.77 1850,3462.5C 1854.83,3455.67 1859.67,3448.83 1864.5,3442C 1867.56,3439.63 1870.9,3438.13 1874.5,3437.5 Z"/></g>
<g><path style="opacity:1" fill="#fefefe" d="M 5864.5,3601.5 C 5866.85,3708 5868.35,3814.66 5869,3921.5C 5865.09,3984.15 5849.75,4043.82 5823,4100.5C 5795.02,4157.29 5754.86,4203.46 5702.5,4239C 5696.47,4242.88 5690.14,4246.05 5683.5,4248.5C 5681.29,4219.26 5691.79,4195.93 5715,4178.5C 5716,4176.83 5717,4175.17 5718,4173.5C 5721.17,4154.34 5713.01,4145.84 5693.5,4148C 5689.89,4149.94 5686.56,4152.28 5683.5,4155C 5652.26,4183.89 5640.26,4219.39 5647.5,4261.5C 5638.16,4262.61 5628.83,4262.61 5619.5,4261.5C 5607.42,4229.2 5613.42,4200.7 5637.5,4176C 5644.48,4172.36 5649.31,4166.86 5652,4159.5C 5652.35,4143.51 5644.51,4136.01 5628.5,4137C 5623.92,4139.24 5619.59,4141.91 5615.5,4145C 5585.26,4173.66 5571.93,4208.82 5575.5,4250.5C 5572.23,4248.73 5569.4,4246.4 5567,4243.5C 5559.52,4232.11 5557.52,4219.78 5561,4206.5C 5563.39,4199.39 5566.06,4192.39 5569,4185.5C 5584.15,4157.05 5595.15,4127.05 5602,4095.5C 5617.33,4001.49 5598.83,3914.82 5546.5,3835.5C 5665.7,3775.56 5771.7,3697.56 5864.5,3601.5 Z"/></g>
<g><path style="opacity:1" fill="#15172b" d="M 5195.5,3946.5 C 5226.45,4072.18 5210.95,4191.84 5149,4305.5C 5119.83,4356.34 5080.66,4397.84 5031.5,4430C 4988.32,4455.58 4942.66,4461.25 4894.5,4447C 4859.39,4432.2 4842.56,4405.7 4844,4367.5C 4844.83,4359.32 4846.5,4351.32 4849,4343.5C 4856.06,4326.32 4862.73,4308.99 4869,4291.5C 4881.72,4249.27 4885.05,4206.27 4879,4162.5C 4867.55,4091.95 4837.72,4030.61 4789.5,3978.5C 4805.81,3977.59 4822.15,3977.26 4838.5,3977.5C 4913.18,4073.7 4935.68,4181.04 4906,4299.5C 4900.98,4315.56 4894.98,4331.22 4888,4346.5C 4883.03,4358.04 4881.03,4370.04 4882,4382.5C 4884.11,4394.28 4890.45,4402.94 4901,4408.5C 4895.82,4366.37 4908.65,4330.87 4939.5,4302C 4943.5,4299.33 4947.5,4296.67 4951.5,4294C 4969.17,4292.01 4977.34,4299.84 4976,4317.5C 4975,4319.5 4974,4321.5 4973,4323.5C 4940.99,4347.7 4931.16,4378.87 4943.5,4417C 4952.84,4416.62 4962.17,4415.79 4971.5,4414.5C 4965.73,4371.91 4979.06,4336.74 5011.5,4309C 5022,4301.21 5031.83,4302.04 5041,4311.5C 5045.21,4317.97 5045.54,4324.64 5042,4331.5C 5035.67,4337.83 5029.33,4344.17 5023,4350.5C 5011.79,4364.97 5006.95,4381.3 5008.5,4399.5C 5053.72,4371.12 5089.55,4333.78 5116,4287.5C 5173.65,4181.39 5187.82,4069.72 5158.5,3952.5C 5170.9,3950.75 5183.23,3948.75 5195.5,3946.5 Z"/></g>
<g><path style="opacity:1" fill="#fefefe" d="M 5158.5,3952.5 C 5187.82,4069.72 5173.65,4181.39 5116,4287.5C 5089.55,4333.78 5053.72,4371.12 5008.5,4399.5C 5006.95,4381.3 5011.79,4364.97 5023,4350.5C 5029.33,4344.17 5035.67,4337.83 5042,4331.5C 5045.54,4324.64 5045.21,4317.97 5041,4311.5C 5031.83,4302.04 5022,4301.21 5011.5,4309C 4979.06,4336.74 4965.73,4371.91 4971.5,4414.5C 4962.17,4415.79 4952.84,4416.62 4943.5,4417C 4931.16,4378.87 4940.99,4347.7 4973,4323.5C 4974,4321.5 4975,4319.5 4976,4317.5C 4977.34,4299.84 4969.17,4292.01 4951.5,4294C 4947.5,4296.67 4943.5,4299.33 4939.5,4302C 4908.65,4330.87 4895.82,4366.37 4901,4408.5C 4890.45,4402.94 4884.11,4394.28 4882,4382.5C 4881.03,4370.04 4883.03,4358.04 4888,4346.5C 4894.98,4331.22 4900.98,4315.56 4906,4299.5C 4935.68,4181.04 4913.18,4073.7 4838.5,3977.5C 4897.72,3975.18 4957.05,3972.01 5016.5,3968C 5063.98,3964.09 5111.31,3958.92 5158.5,3952.5 Z"/></g>
<g><path style="opacity:1" fill="#15172b" d="M 1388.5,4250.5 C 1400.18,4255.67 1411.52,4261.34 1422.5,4267.5C 1365.5,4360.03 1283.83,4418.19 1177.5,4442C 1164.88,4443.99 1152.21,4445.66 1139.5,4447C 1126.96,4448.05 1115.29,4451.72 1104.5,4458C 1089.32,4469.2 1083.82,4484.04 1088,4502.5C 1128.62,4467.18 1173.78,4460.01 1223.5,4481C 1232.34,4488.48 1233.84,4497.32 1228,4507.5C 1222.93,4513.75 1216.43,4516.25 1208.5,4515C 1167.19,4499 1132.19,4507.83 1103.5,4541.5C 1110.07,4551.41 1117.74,4560.41 1126.5,4568.5C 1157.94,4539.22 1194.94,4528.38 1237.5,4536C 1247.41,4538.3 1256.74,4541.97 1265.5,4547C 1271.6,4555.1 1272.1,4563.6 1267,4572.5C 1262.77,4576.86 1257.6,4579.19 1251.5,4579.5C 1242.35,4576.51 1233.02,4574.01 1223.5,4572C 1199.28,4569.08 1177.78,4575.24 1159,4590.5C 1158.31,4591.33 1158.48,4592 1159.5,4592.5C 1217.1,4621.32 1278.1,4633.15 1342.5,4628C 1423.19,4621.88 1497.86,4597.55 1566.5,4555C 1647.69,4500.57 1729.02,4446.41 1810.5,4392.5C 1828.5,4395.5 1846.5,4398.5 1864.5,4401.5C 1771.74,4463.08 1679.07,4524.91 1586.5,4587C 1492.41,4645.11 1390.07,4671.11 1279.5,4665C 1226.49,4660.89 1176.83,4645.89 1130.5,4620C 1089.84,4594.33 1063.34,4558.16 1051,4511.5C 1044.26,4460.15 1065.76,4427.32 1115.5,4413C 1234.24,4404.34 1325.24,4350.17 1388.5,4250.5 Z"/></g>
<g><path style="opacity:1" fill="#fefefe" d="M 1422.5,4267.5 C 1453.9,4281.53 1485.57,4295.03 1517.5,4308C 1613.04,4344.13 1710.7,4372.3 1810.5,4392.5C 1729.02,4446.41 1647.69,4500.57 1566.5,4555C 1497.86,4597.55 1423.19,4621.88 1342.5,4628C 1278.1,4633.15 1217.1,4621.32 1159.5,4592.5C 1158.48,4592 1158.31,4591.33 1159,4590.5C 1177.78,4575.24 1199.28,4569.08 1223.5,4572C 1233.02,4574.01 1242.35,4576.51 1251.5,4579.5C 1257.6,4579.19 1262.77,4576.86 1267,4572.5C 1272.1,4563.6 1271.6,4555.1 1265.5,4547C 1256.74,4541.97 1247.41,4538.3 1237.5,4536C 1194.94,4528.38 1157.94,4539.22 1126.5,4568.5C 1117.74,4560.41 1110.07,4551.41 1103.5,4541.5C 1132.19,4507.83 1167.19,4499 1208.5,4515C 1216.43,4516.25 1222.93,4513.75 1228,4507.5C 1233.84,4497.32 1232.34,4488.48 1223.5,4481C 1173.78,4460.01 1128.62,4467.18 1088,4502.5C 1083.82,4484.04 1089.32,4469.2 1104.5,4458C 1115.29,4451.72 1126.96,4448.05 1139.5,4447C 1152.21,4445.66 1164.88,4443.99 1177.5,4442C 1283.83,4418.19 1365.5,4360.03 1422.5,4267.5 Z"/></g>
<g><path style="opacity:1" fill="#fefefe" d="M 2731.5,4398.5 C 2726.55,4405.95 2721.39,4413.29 2716,4420.5C 2621.18,4538.61 2501.34,4620.44 2356.5,4666C 2310.69,4679.31 2264.03,4683.98 2216.5,4680C 2204.23,4678.02 2192.23,4675.02 2180.5,4671C 2198.47,4658.18 2218.47,4653.18 2240.5,4656C 2250.23,4657.79 2259.73,4660.29 2269,4663.5C 2273.04,4663.07 2276.87,4661.9 2280.5,4660C 2291.17,4649.67 2291.17,4639.33 2280.5,4629C 2230.88,4608.54 2185.71,4615.7 2145,4650.5C 2135.55,4643.38 2127.05,4635.22 2119.5,4626C 2126.85,4617.99 2134.85,4610.65 2143.5,4604C 2169.19,4588.46 2195.85,4586.46 2223.5,4598C 2231.13,4599.73 2237.96,4598.23 2244,4593.5C 2253.27,4576.86 2248.77,4565.69 2230.5,4560C 2181.83,4544.69 2139.17,4554.53 2102.5,4589.5C 2100.24,4579.86 2101.74,4570.86 2107,4562.5C 2115.27,4551.25 2126.1,4543.41 2139.5,4539C 2205.75,4519.73 2261.75,4484.57 2307.5,4433.5C 2347.19,4433.18 2386.86,4432.01 2426.5,4430C 2528.63,4423.72 2630.3,4413.22 2731.5,4398.5 Z"/></g>
</svg>
