<?xml version="1.0" encoding="UTF-8"?>
<svg xmlns="http://www.w3.org/2000/svg" xmlns:xlink="http://www.w3.org/1999/xlink" width="650px" height="650px" viewBox="0 0 650 650" version="1.1">
<defs>
<filter id="alpha" filterUnits="objectBoundingBox" x="0%" y="0%" width="100%" height="100%">
  <feColorMatrix type="matrix" in="SourceGraphic" values="0 0 0 0 1 0 0 0 0 1 0 0 0 0 1 0 0 0 1 0"/>
</filter>
<mask id="mask0">
  <g filter="url(#alpha)">
<rect x="0" y="0" width="650" height="650" style="fill:rgb(0%,0%,0%);fill-opacity:0.207843;stroke:none;"/>
  </g>
</mask>
<clipPath id="clip1">
  <rect x="0" y="0" width="650" height="650"/>
</clipPath>
<g id="surface5" clip-path="url(#clip1)">
<path style=" stroke:none;fill-rule:evenodd;fill:rgb(99.607843%,99.607843%,99.607843%);fill-opacity:1;" d="M -0.0390625 -0.0390625 C 216.625 -0.0390625 433.292969 -0.0390625 649.960938 -0.0390625 C 649.960938 216.625 649.960938 433.292969 649.960938 649.960938 C 433.292969 649.960938 216.625 649.960938 -0.0390625 649.960938 C -0.0390625 433.292969 -0.0390625 216.625 -0.0390625 -0.0390625 Z M -0.0390625 -0.0390625 "/>
</g>
</defs>
<g id="surface1">
<use xlink:href="#surface5" mask="url(#mask0)"/>
<path style=" stroke:none;fill-rule:evenodd;fill:rgb(65.098039%,65.882353%,65.490196%);fill-opacity:1;" d="M 317.214844 140.363281 C 294.34375 153.304688 271.460938 166.230469 248.5625 179.132812 C 247.53125 179.695312 247.273438 180.496094 247.785156 181.539062 C 248.210938 182.097656 248.769531 182.300781 249.457031 182.148438 C 272.519531 169.164062 295.566406 156.160156 318.597656 143.136719 C 321.71875 149.835938 324.679688 156.601562 327.488281 163.4375 C 301.972656 170.851562 276.453125 178.257812 250.925781 185.65625 C 249.839844 186.1875 249.578125 186.988281 250.152344 188.0625 C 250.5625 188.570312 251.09375 188.773438 251.742188 188.671875 C 277.5 181.160156 303.265625 173.671875 329.035156 166.210938 C 332.734375 173.503906 335.941406 181.003906 338.65625 188.714844 C 309.820312 189.453125 280.984375 190.230469 252.148438 191.039062 C 251.050781 191.421875 250.683594 192.167969 251.046875 193.28125 C 251.253906 193.625 251.539062 193.882812 251.902344 194.054688 C 252.570312 194.066406 253.234375 194.082031 253.902344 194.09375 C 282.535156 193.332031 311.167969 192.570312 339.796875 191.8125 C 341.34375 196.15625 342.796875 200.53125 344.160156 204.9375 C 346.417969 212.332031 348.660156 219.726562 350.886719 227.117188 C 350.714844 227.496094 350.457031 227.820312 350.113281 228.09375 C 347.152344 231.660156 345.007812 235.683594 343.671875 240.164062 C 341.378906 248.023438 340.941406 255.988281 342.367188 264.050781 C 342.425781 264.125 342.492188 264.179688 342.570312 264.214844 C 338.71875 269.476562 335.90625 275.265625 334.132812 281.582031 C 332.085938 288.992188 330.984375 296.546875 330.828125 304.25 C 330.773438 304.929688 330.722656 305.609375 330.667969 306.289062 C 320.96875 281.78125 310.03125 257.839844 297.847656 234.453125 C 296.453125 231.851562 294.792969 229.433594 292.875 227.199219 C 290.945312 225.046875 288.59375 223.5625 285.820312 222.753906 C 282.660156 222.214844 279.835938 222.945312 277.34375 224.957031 C 275.074219 226.953125 273.375 229.359375 272.246094 232.171875 C 271.058594 235.257812 270.199219 238.4375 269.679688 241.710938 C 262.40625 239.390625 254.957031 238.535156 247.335938 239.144531 C 234.859375 240.179688 223.0625 243.574219 211.953125 249.335938 C 206.324219 252.417969 201.242188 256.238281 196.703125 260.789062 C 195.269531 257.476562 193.257812 254.554688 190.671875 252.027344 C 188.59375 250.117188 186.148438 249.003906 183.332031 248.683594 C 181.238281 248.5 179.28125 248.933594 177.460938 249.988281 C 174.96875 251.558594 172.96875 253.609375 171.46875 256.144531 C 169.859375 258.820312 168.554688 261.648438 167.554688 264.625 C 157.621094 292.597656 149.167969 320.972656 142.199219 349.746094 C 139.792969 340.824219 136.695312 332.15625 132.902344 323.734375 C 130.003906 317.414062 126.304688 311.625 121.8125 306.371094 C 117.9375 301.96875 113.359375 298.53125 108.074219 296.054688 C 106.339844 295.332031 104.574219 294.707031 102.773438 294.179688 C 101.734375 293.78125 100.960938 294.066406 100.453125 295.035156 C 100.195312 295.945312 100.480469 296.613281 101.308594 297.035156 C 106.242188 298.289062 110.671875 300.519531 114.597656 303.71875 C 118.886719 307.382812 122.488281 311.609375 125.402344 316.398438 C 128.660156 321.800781 131.40625 327.453125 133.636719 333.355469 C 136.445312 341.019531 138.890625 348.792969 140.976562 356.675781 C 141.566406 357.527344 142.3125 357.703125 143.21875 357.207031 C 143.484375 356.992188 143.6875 356.734375 143.828125 356.433594 C 151.136719 325.035156 160.242188 294.160156 171.144531 263.808594 C 172.15625 261.105469 173.484375 258.578125 175.136719 256.226562 C 176.222656 254.816406 177.511719 253.632812 179.011719 252.679688 C 181.128906 251.554688 183.304688 251.445312 185.535156 252.351562 C 187.296875 253.164062 188.804688 254.320312 190.058594 255.816406 C 191.9375 258.191406 193.417969 260.800781 194.503906 263.644531 C 194.402344 263.636719 194.332031 263.585938 194.296875 263.480469 C 182.734375 276.738281 178.003906 292.148438 180.113281 309.710938 C 180.4375 312.46875 180.847656 315.214844 181.335938 317.945312 C 183.085938 326.679688 184.746094 335.433594 186.308594 344.203125 C 188.277344 355.46875 189.746094 366.804688 190.710938 378.203125 C 191.238281 386.324219 191.726562 394.453125 192.179688 402.582031 C 192.648438 410.992188 193.792969 419.308594 195.601562 427.53125 C 198.320312 439.351562 203.484375 449.925781 211.09375 459.246094 C 213.640625 462.378906 216.398438 465.3125 219.371094 468.054688 C 219.007812 476.578125 218.574219 485.085938 218.066406 493.574219 C 216.582031 493.199219 215.085938 492.859375 213.582031 492.554688 C 209.097656 491.679688 204.613281 490.808594 200.128906 489.945312 C 195.117188 488.992188 190.226562 487.632812 185.453125 485.871094 C 174.601562 481.867188 166.296875 474.867188 160.542969 464.875 C 157.707031 459.832031 155.480469 454.53125 153.855469 448.972656 C 151.726562 441.4375 150.230469 433.773438 149.371094 425.980469 C 148.976562 422.617188 148.625 419.246094 148.3125 415.871094 C 147.683594 408.175781 147.003906 400.484375 146.273438 392.796875 C 145.667969 386.691406 144.769531 380.632812 143.582031 374.613281 C 142.550781 369.472656 141 364.5 138.9375 359.691406 C 136.128906 353.328125 132.066406 347.90625 126.746094 343.425781 C 121.917969 339.625 116.644531 336.527344 110.929688 334.132812 C 108.707031 333.160156 106.449219 332.277344 104.160156 331.480469 C 102.148438 312.433594 99.582031 293.464844 96.457031 274.570312 C 95.460938 268.847656 94.511719 263.113281 93.601562 257.367188 C 93.558594 256.988281 93.464844 256.632812 93.316406 256.304688 C 121.0625 240.964844 148.8125 225.625 176.566406 210.28125 C 177.507812 209.4375 177.535156 208.566406 176.644531 207.671875 C 175.910156 207.265625 175.203125 207.320312 174.527344 207.832031 C 147.304688 222.925781 120.070312 237.996094 92.828125 253.046875 C 92.261719 248.832031 91.703125 244.621094 91.15625 240.40625 C 90.652344 236.125 90.296875 231.832031 90.097656 227.523438 C 90.101562 227.238281 90.035156 226.996094 89.894531 226.789062 C 117.839844 219.648438 145.804688 212.511719 173.792969 205.386719 C 175.058594 205.148438 175.5625 204.398438 175.300781 203.144531 C 175.117188 202.714844 174.804688 202.429688 174.363281 202.289062 C 173.984375 202.234375 173.601562 202.234375 173.222656 202.289062 C 145.488281 209.417969 117.738281 216.496094 89.972656 223.527344 C 89.988281 222.332031 89.972656 221.136719 89.933594 219.941406 C 89.222656 213.328125 88.773438 206.699219 88.589844 200.046875 C 88.097656 200.046875 87.609375 200.046875 87.121094 200.046875 C 115.453125 199.507812 143.800781 199.003906 172.160156 198.539062 C 173.597656 198.570312 174.234375 197.878906 174.078125 196.460938 C 173.90625 196.097656 173.648438 195.8125 173.304688 195.601562 C 171.921875 195.507812 170.535156 195.46875 169.144531 195.480469 C 142.265625 195.949219 115.386719 196.410156 88.507812 196.867188 C 88.382812 180.914062 89.617188 165.070312 92.214844 149.332031 C 94.488281 135.933594 97.261719 122.644531 100.53125 109.460938 C 101.085938 107.484375 101.984375 105.691406 103.222656 104.078125 C 105.648438 101.507812 108.515625 100.867188 111.824219 102.164062 C 113.550781 102.910156 115.097656 103.917969 116.472656 105.179688 C 117.773438 106.398438 118.980469 107.6875 120.101562 109.054688 C 125.621094 116.285156 131.179688 123.488281 136.777344 130.660156 C 145.429688 124.15625 154.835938 118.910156 164.988281 114.925781 C 179.839844 118.535156 192.546875 125.820312 203.105469 136.777344 C 203.402344 137.128906 203.703125 137.484375 204 137.835938 C 202.425781 133.003906 200.46875 128.332031 198.132812 123.8125 C 194.800781 117.425781 190.140625 112.234375 184.148438 108.238281 C 186.164062 107.632812 188.203125 107.089844 190.261719 106.609375 C 192.792969 107.574219 195.15625 108.835938 197.355469 110.398438 C 200.117188 112.453125 202.6875 114.75 205.0625 117.289062 C 206.367188 118.8125 207.671875 120.332031 208.976562 121.855469 C 212.699219 126.71875 216.230469 131.71875 219.574219 136.855469 C 219.488281 134.234375 219.105469 131.652344 218.433594 129.109375 C 216.953125 123.015625 214.96875 117.089844 212.480469 111.335938 C 211.195312 108.398438 209.550781 105.695312 207.546875 103.222656 C 207.648438 103.203125 207.730469 103.164062 207.792969 103.101562 C 209.527344 102.863281 211.269531 102.644531 213.011719 102.449219 C 213.214844 102.433594 213.402344 102.472656 213.582031 102.570312 C 217.476562 105.929688 221.242188 109.449219 224.875 113.128906 C 227.578125 116.050781 229.972656 119.203125 232.050781 122.589844 C 233.113281 124.414062 233.953125 126.34375 234.578125 128.378906 C 235.234375 130.707031 236.019531 132.992188 236.941406 135.226562 C 237.28125 132.65625 237.390625 130.074219 237.269531 127.480469 C 236.976562 121.070312 236.027344 114.765625 234.414062 108.5625 C 233.726562 106.164062 232.871094 103.824219 231.847656 101.550781 C 237.5 101.648438 243.113281 102.167969 248.683594 103.101562 C 250.640625 94.347656 252.597656 85.597656 254.554688 76.847656 C 255.234375 73.953125 256.378906 71.261719 257.976562 68.773438 C 260.878906 64.75 264.503906 63.921875 268.863281 66.289062 C 270.195312 67.210938 271.402344 68.285156 272.492188 69.507812 C 287.5 88.203125 300.597656 108.207031 311.792969 129.519531 C 313.644531 133.117188 315.453125 136.730469 317.214844 140.363281 Z M 317.214844 140.363281 "/>
<path style=" stroke:none;fill-rule:evenodd;fill:rgb(7.843137%,8.627451%,16.862745%);fill-opacity:1;" d="M 267.3125 78.234375 C 268.757812 78.113281 270.035156 78.507812 271.144531 79.414062 C 271.902344 80.089844 272.570312 80.835938 273.144531 81.65625 C 278.179688 89.472656 283.234375 97.273438 288.308594 105.058594 C 288.769531 105.875 288.648438 106.597656 287.941406 107.21875 C 287.195312 107.648438 286.503906 107.582031 285.863281 107.015625 C 280.78125 99.160156 275.699219 91.304688 270.617188 83.453125 C 270.105469 82.710938 269.492188 82.074219 268.78125 81.535156 C 268.113281 81.171875 267.558594 81.292969 267.109375 81.902344 C 266.691406 82.601562 266.339844 83.335938 266.050781 84.105469 C 263.398438 91.105469 260.925781 98.171875 258.628906 105.304688 C 258.332031 106.273438 258.0625 107.253906 257.816406 108.238281 C 257.328125 109.03125 256.632812 109.289062 255.734375 109.011719 C 255.066406 108.613281 254.78125 108.027344 254.878906 107.261719 C 256.304688 102.253906 257.90625 97.308594 259.691406 92.421875 C 261.0625 88.523438 262.527344 84.664062 264.09375 80.84375 C 264.796875 79.5 265.871094 78.628906 267.3125 78.234375 Z M 267.3125 78.234375 "/>
<path style=" stroke:none;fill-rule:evenodd;fill:rgb(72.941176%,73.72549%,72.54902%);fill-opacity:1;" d="M 231.847656 101.550781 C 232.871094 103.824219 233.726562 106.164062 234.414062 108.5625 C 236.027344 114.765625 236.976562 121.070312 237.269531 127.480469 C 237.390625 130.074219 237.28125 132.65625 236.941406 135.226562 C 236.019531 132.992188 235.234375 130.707031 234.578125 128.378906 C 233.953125 126.34375 233.113281 124.414062 232.050781 122.589844 C 229.972656 119.203125 227.578125 116.050781 224.875 113.128906 C 221.242188 109.449219 217.476562 105.929688 213.582031 102.570312 C 213.402344 102.472656 213.214844 102.433594 213.011719 102.449219 C 219.261719 101.714844 225.539062 101.414062 231.847656 101.550781 Z M 231.847656 101.550781 "/>
<path style=" stroke:none;fill-rule:evenodd;fill:rgb(72.54902%,73.333333%,72.54902%);fill-opacity:1;" d="M 207.792969 103.101562 C 207.730469 103.164062 207.648438 103.203125 207.546875 103.222656 C 209.550781 105.695312 211.195312 108.398438 212.480469 111.335938 C 214.96875 117.089844 216.953125 123.015625 218.433594 129.109375 C 219.105469 131.652344 219.488281 134.234375 219.574219 136.855469 C 216.230469 131.71875 212.699219 126.71875 208.976562 121.855469 C 207.671875 120.332031 206.367188 118.8125 205.0625 117.289062 C 202.6875 114.75 200.117188 112.453125 197.355469 110.398438 C 195.15625 108.835938 192.792969 107.574219 190.261719 106.609375 C 196.03125 105.117188 201.875 103.949219 207.792969 103.101562 Z M 207.792969 103.101562 "/>
<path style=" stroke:none;fill-rule:evenodd;fill:rgb(72.54902%,73.333333%,72.54902%);fill-opacity:1;" d="M 184.148438 108.238281 C 190.140625 112.234375 194.800781 117.425781 198.132812 123.8125 C 200.46875 128.332031 202.425781 133.003906 204 137.835938 C 203.703125 137.484375 203.402344 137.128906 203.105469 136.777344 C 192.546875 125.820312 179.839844 118.535156 164.988281 114.925781 C 171.226562 112.308594 177.613281 110.082031 184.148438 108.238281 Z M 184.148438 108.238281 "/>
<path style=" stroke:none;fill-rule:evenodd;fill:rgb(7.843137%,8.627451%,16.862745%);fill-opacity:1;" d="M 110.847656 112.234375 C 112.167969 112.140625 113.363281 112.480469 114.433594 113.253906 C 114.910156 113.675781 115.386719 114.09375 115.863281 114.515625 C 120.628906 119.796875 125.304688 125.152344 129.886719 130.578125 C 131.039062 132.015625 132.152344 133.484375 133.230469 134.980469 C 133.445312 136.421875 132.835938 137.113281 131.394531 137.0625 C 131.113281 136.988281 130.867188 136.851562 130.660156 136.652344 C 128.675781 133.988281 126.59375 131.390625 124.421875 128.867188 C 121.261719 125.238281 118.082031 121.621094 114.882812 118.023438 C 114.191406 117.222656 113.441406 116.472656 112.640625 115.78125 C 111.867188 115.113281 111.171875 115.183594 110.5625 115.984375 C 110.136719 116.71875 109.835938 117.507812 109.664062 118.347656 C 107.855469 127.425781 106.035156 136.503906 104.203125 145.582031 C 103.894531 146.570312 103.226562 146.964844 102.203125 146.765625 C 101.386719 146.417969 101.046875 145.804688 101.183594 144.929688 C 103.019531 135.710938 104.871094 126.5 106.730469 117.289062 C 107.03125 116.003906 107.578125 114.835938 108.359375 113.78125 C 109.046875 113.023438 109.878906 112.507812 110.847656 112.234375 Z M 110.847656 112.234375 "/>
<path style=" stroke:none;fill-rule:evenodd;fill:rgb(7.843137%,8.627451%,16.862745%);fill-opacity:1;" d="M 318.597656 143.136719 C 295.566406 156.160156 272.519531 169.164062 249.457031 182.148438 C 248.769531 182.300781 248.210938 182.097656 247.785156 181.539062 C 247.273438 180.496094 247.53125 179.695312 248.5625 179.132812 C 271.460938 166.230469 294.34375 153.304688 317.214844 140.363281 C 323.019531 137.074219 328.832031 133.796875 334.660156 130.539062 C 336.289062 130.378906 336.925781 131.097656 336.578125 132.699219 C 336.457031 132.898438 336.308594 133.078125 336.128906 133.230469 C 330.285156 136.53125 324.441406 139.832031 318.597656 143.136719 Z M 318.597656 143.136719 "/>
<path style=" stroke:none;fill-rule:evenodd;fill:rgb(7.843137%,8.627451%,16.862745%);fill-opacity:1;" d="M 240.242188 156.914062 C 241.738281 156.894531 243.234375 156.9375 244.726562 157.039062 C 245.714844 157.339844 246.109375 158.003906 245.910156 159.035156 C 245.667969 159.726562 245.175781 160.082031 244.441406 160.09375 C 237.113281 159.621094 230.769531 161.863281 225.40625 166.820312 C 224.667969 167.585938 223.960938 168.375 223.285156 169.1875 C 222.210938 169.753906 221.40625 169.496094 220.878906 168.410156 C 220.824219 168.085938 220.824219 167.757812 220.878906 167.433594 C 221.03125 167.0625 221.246094 166.738281 221.53125 166.453125 C 226.515625 160.84375 232.753906 157.664062 240.242188 156.914062 Z M 240.242188 156.914062 "/>
<path style=" stroke:none;fill-rule:evenodd;fill:rgb(8.235294%,9.019608%,16.862745%);fill-opacity:1;" d="M 329.035156 166.210938 C 303.265625 173.671875 277.5 181.160156 251.742188 188.671875 C 251.09375 188.773438 250.5625 188.570312 250.152344 188.0625 C 249.578125 186.988281 249.839844 186.1875 250.925781 185.65625 C 276.453125 178.257812 301.972656 170.851562 327.488281 163.4375 C 334.777344 161.355469 342.0625 159.25 349.339844 157.117188 C 350.324219 156.925781 350.988281 157.292969 351.335938 158.21875 C 351.453125 159.011719 351.167969 159.59375 350.480469 159.972656 C 343.335938 162.066406 336.1875 164.144531 329.035156 166.210938 Z M 329.035156 166.210938 "/>
<path style=" stroke:none;fill-rule:evenodd;fill:rgb(7.843137%,8.627451%,16.862745%);fill-opacity:1;" d="M 183.167969 169.308594 C 188.039062 169.039062 192.660156 169.976562 197.03125 172.121094 C 197.898438 172.964844 197.898438 173.804688 197.03125 174.648438 C 196.542969 174.957031 196.023438 175.011719 195.480469 174.8125 C 188.828125 171.761719 182.113281 171.625 175.34375 174.402344 C 174.480469 174.804688 173.636719 175.238281 172.8125 175.707031 C 172.070312 175.980469 171.429688 175.832031 170.898438 175.261719 C 170.335938 174.171875 170.59375 173.34375 171.671875 172.773438 C 175.265625 170.796875 179.097656 169.640625 183.167969 169.308594 Z M 183.167969 169.308594 "/>
<path style=" stroke:none;fill-rule:evenodd;fill:rgb(7.843137%,8.627451%,16.862745%);fill-opacity:1;" d="M 213.417969 181.703125 C 214.96875 181.53125 216.4375 181.789062 217.820312 182.476562 C 219.144531 183.660156 219.539062 185.113281 219.003906 186.839844 C 218.441406 188.261719 217.65625 189.539062 216.640625 190.671875 C 216.585938 190.753906 216.585938 190.832031 216.640625 190.914062 C 219.964844 195.328125 223.226562 199.785156 226.421875 204.285156 C 226.542969 205.445312 226.027344 206.097656 224.875 206.242188 C 224.332031 206.191406 223.898438 205.945312 223.570312 205.511719 C 220.828125 201.773438 218.070312 198.050781 215.292969 194.339844 C 214.53125 199.117188 213.785156 203.902344 213.050781 208.691406 C 212.578125 209.761719 211.804688 210.046875 210.726562 209.546875 C 210.226562 209.183594 210.011719 208.695312 210.074219 208.078125 C 210.816406 202.785156 211.601562 197.5 212.441406 192.21875 C 212.414062 192.136719 212.386719 192.054688 212.359375 191.976562 C 210.640625 191.246094 209.132812 190.214844 207.832031 188.875 C 206.175781 186.804688 206.410156 184.96875 208.527344 183.375 C 210.039062 182.449219 211.667969 181.890625 213.417969 181.703125 Z M 213.417969 181.703125 "/>
<path style=" stroke:none;fill-rule:evenodd;fill:rgb(8.627451%,9.411765%,17.647059%);fill-opacity:1;" d="M 339.796875 191.8125 C 311.167969 192.570312 282.535156 193.332031 253.902344 194.09375 C 253.234375 194.082031 252.570312 194.066406 251.902344 194.054688 C 251.539062 193.882812 251.253906 193.625 251.046875 193.28125 C 250.683594 192.167969 251.050781 191.421875 252.148438 191.039062 C 280.984375 190.230469 309.820312 189.453125 338.65625 188.714844 C 343.386719 188.582031 348.117188 188.449219 352.84375 188.304688 C 354.273438 188.203125 354.96875 188.855469 354.921875 190.261719 C 354.703125 190.863281 354.28125 191.230469 353.660156 191.363281 C 349.027344 191.511719 344.40625 191.660156 339.796875 191.8125 Z M 339.796875 191.8125 "/>
<path style=" stroke:none;fill-rule:evenodd;fill:rgb(8.627451%,9.411765%,17.254902%);fill-opacity:1;" d="M 87.121094 200.046875 C 82.527344 200.144531 77.933594 200.214844 73.339844 200.25 C 72.34375 199.890625 71.976562 199.199219 72.242188 198.171875 C 72.449219 197.71875 72.789062 197.40625 73.257812 197.234375 C 78.355469 197.125 83.4375 197 88.507812 196.867188 C 115.386719 196.410156 142.265625 195.949219 169.144531 195.480469 C 170.535156 195.46875 171.921875 195.507812 173.304688 195.601562 C 173.648438 195.8125 173.90625 196.097656 174.078125 196.460938 C 174.234375 197.878906 173.597656 198.570312 172.160156 198.539062 C 143.800781 199.003906 115.453125 199.507812 87.121094 200.046875 Z M 87.121094 200.046875 "/>
<path style=" stroke:none;fill-rule:evenodd;fill:rgb(8.235294%,9.019608%,17.254902%);fill-opacity:1;" d="M 89.894531 226.789062 C 84.886719 228.027344 79.886719 229.292969 74.890625 230.582031 C 73.8125 230.671875 73.1875 230.183594 73.015625 229.113281 C 73.070312 228.320312 73.480469 227.804688 74.238281 227.566406 C 79.496094 226.230469 84.742188 224.886719 89.972656 223.527344 C 117.738281 216.496094 145.488281 209.417969 173.222656 202.289062 C 173.601562 202.234375 173.984375 202.234375 174.363281 202.289062 C 174.804688 202.429688 175.117188 202.714844 175.300781 203.144531 C 175.5625 204.398438 175.058594 205.148438 173.792969 205.386719 C 145.804688 212.511719 117.839844 219.648438 89.894531 226.789062 Z M 89.894531 226.789062 "/>
<path style=" stroke:none;fill-rule:evenodd;fill:rgb(8.235294%,8.627451%,16.862745%);fill-opacity:1;" d="M 93.316406 256.304688 C 91.453125 257.34375 89.578125 258.363281 87.691406 259.363281 C 86.800781 259.46875 86.191406 259.101562 85.855469 258.261719 C 85.683594 257.5625 85.886719 257.007812 86.46875 256.59375 C 88.578125 255.390625 90.699219 254.207031 92.828125 253.046875 C 120.070312 237.996094 147.304688 222.925781 174.527344 207.832031 C 175.203125 207.320312 175.910156 207.265625 176.644531 207.671875 C 177.535156 208.566406 177.507812 209.4375 176.566406 210.28125 C 148.8125 225.625 121.0625 240.964844 93.316406 256.304688 Z M 93.316406 256.304688 "/>
<path style=" stroke:none;fill-rule:evenodd;fill:rgb(8.235294%,9.019608%,16.862745%);fill-opacity:1;" d="M 330.667969 306.289062 C 330.691406 306.351562 330.730469 306.40625 330.789062 306.449219 C 330.828125 305.71875 330.84375 304.984375 330.828125 304.25 C 330.984375 296.546875 332.085938 288.992188 334.132812 281.582031 C 335.90625 275.265625 338.71875 269.476562 342.570312 264.214844 C 346.453125 259.027344 351.398438 255.238281 357.410156 252.839844 C 358.808594 252.609375 359.5 253.195312 359.488281 254.59375 C 359.386719 255.019531 359.15625 255.363281 358.796875 255.613281 C 352.320312 258.191406 347.210938 262.417969 343.46875 268.292969 C 340.800781 272.417969 338.746094 276.847656 337.3125 281.582031 C 334.96875 289.667969 333.8125 297.933594 333.847656 306.371094 C 333.925781 309.632812 334.046875 312.894531 334.214844 316.152344 C 333.800781 317.042969 333.109375 317.382812 332.132812 317.171875 C 331.800781 317.027344 331.539062 316.796875 331.359375 316.480469 C 320.660156 288.585938 308.402344 261.40625 294.585938 234.945312 C 293.183594 232.339844 291.402344 230.019531 289.246094 227.972656 C 285.15625 224.648438 281.335938 224.9375 277.792969 228.828125 C 275.996094 231.171875 274.71875 233.78125 273.957031 236.65625 C 273.4375 238.742188 272.988281 240.835938 272.613281 242.933594 C 271.363281 250.980469 271.214844 259.050781 272.164062 267.152344 C 273.394531 276.582031 275.484375 285.820312 278.441406 294.871094 C 281.613281 304.410156 285.117188 313.8125 288.960938 323.082031 C 289.082031 323.886719 288.796875 324.496094 288.105469 324.917969 C 287.175781 325.207031 286.480469 324.921875 286.027344 324.0625 C 281.984375 314.296875 278.316406 304.402344 275.019531 294.382812 C 273.390625 289.15625 272.007812 283.855469 270.859375 278.484375 C 269.980469 274 269.300781 269.488281 268.820312 264.949219 C 268.128906 257.164062 268.417969 249.417969 269.679688 241.710938 C 270.199219 238.4375 271.058594 235.257812 272.246094 232.171875 C 273.375 229.359375 275.074219 226.953125 277.34375 224.957031 C 279.835938 222.945312 282.660156 222.214844 285.820312 222.753906 C 288.59375 223.5625 290.945312 225.046875 292.875 227.199219 C 294.792969 229.433594 296.453125 231.851562 297.847656 234.453125 C 310.03125 257.839844 320.96875 281.78125 330.667969 306.289062 Z M 330.667969 306.289062 "/>
<path style=" stroke:none;fill-rule:evenodd;fill:rgb(7.843137%,8.627451%,16.862745%);fill-opacity:1;" d="M 232.824219 225.730469 C 234.621094 225.722656 235.257812 226.589844 234.742188 228.339844 C 233.949219 231.40625 232.195312 233.757812 229.480469 235.394531 C 226.113281 237.394531 222.5 238.070312 218.636719 237.429688 C 216.648438 237 214.976562 236.035156 213.621094 234.535156 C 213.242188 233.726562 213.390625 233.03125 214.070312 232.457031 C 214.667969 232.082031 215.265625 232.082031 215.863281 232.457031 C 217.09375 233.710938 218.589844 234.417969 220.347656 234.578125 C 223.289062 234.738281 225.980469 234.003906 228.421875 232.375 C 230.496094 230.90625 231.703125 228.90625 232.050781 226.382812 C 232.277344 226.117188 232.535156 225.898438 232.824219 225.730469 Z M 232.824219 225.730469 "/>
<path style=" stroke:none;fill-rule:evenodd;fill:rgb(72.941176%,73.72549%,72.54902%);fill-opacity:1;" d="M 350.886719 227.117188 C 358.570312 251.617188 368.503906 275.179688 380.6875 297.808594 C 386.730469 308.453125 392.332031 319.351562 397.484375 330.503906 C 406.410156 350.003906 412.644531 370.335938 416.199219 391.492188 C 416.125 391.433594 416.097656 391.351562 416.117188 391.246094 C 410.210938 391.554688 404.585938 390.453125 399.238281 387.945312 C 395.089844 385.941406 391.257812 383.46875 387.742188 380.527344 C 380.503906 374.425781 374.78125 367.15625 370.578125 358.714844 C 367.4375 351.890625 365.425781 344.742188 364.542969 337.269531 C 364.082031 333.75 363.753906 330.21875 363.566406 326.671875 C 363.453125 322.945312 363.316406 319.222656 363.160156 315.5 C 362.761719 308.113281 360.777344 301.183594 357.207031 294.710938 C 356.390625 293.242188 355.574219 291.773438 354.761719 290.308594 C 352.675781 286.867188 350.609375 283.417969 348.5625 279.953125 C 346.929688 277.121094 345.515625 274.183594 344.324219 271.144531 C 343.945312 270.21875 343.660156 269.269531 343.46875 268.292969 C 347.210938 262.417969 352.320312 258.191406 358.796875 255.613281 C 359.15625 255.363281 359.386719 255.019531 359.488281 254.59375 C 359.5 253.195312 358.808594 252.609375 357.410156 252.839844 C 351.398438 255.238281 346.453125 259.027344 342.570312 264.214844 C 342.492188 264.179688 342.425781 264.125 342.367188 264.050781 C 340.941406 255.988281 341.378906 248.023438 343.671875 240.164062 C 345.007812 235.683594 347.152344 231.660156 350.113281 228.09375 C 350.457031 227.820312 350.714844 227.496094 350.886719 227.117188 Z M 350.886719 227.117188 "/>
<path style=" stroke:none;fill-rule:evenodd;fill:rgb(72.54902%,73.333333%,72.156863%);fill-opacity:1;" d="M 269.679688 241.710938 C 268.417969 249.417969 268.128906 257.164062 268.820312 264.949219 C 269.300781 269.488281 269.980469 274 270.859375 278.484375 C 272.007812 283.855469 273.390625 289.15625 275.019531 294.382812 C 278.316406 304.402344 281.984375 314.296875 286.027344 324.0625 C 286.480469 324.921875 287.175781 325.207031 288.105469 324.917969 C 288.796875 324.496094 289.082031 323.886719 288.960938 323.082031 C 285.117188 313.8125 281.613281 304.410156 278.441406 294.871094 C 275.484375 285.820312 273.394531 276.582031 272.164062 267.152344 C 271.214844 259.050781 271.363281 250.980469 272.613281 242.933594 C 272.664062 242.925781 272.703125 242.898438 272.734375 242.851562 C 279.253906 245.613281 285.027344 249.460938 290.0625 254.390625 C 297.515625 261.800781 303.238281 270.402344 307.226562 280.195312 C 307.839844 281.683594 308.4375 283.179688 309.019531 284.679688 C 311.644531 292.148438 314.253906 299.625 316.847656 307.101562 C 320.902344 317.792969 325.765625 328.09375 331.441406 338.003906 C 336.203125 345.675781 340.414062 353.667969 344.078125 361.976562 C 349.625 374.976562 352.804688 388.539062 353.617188 402.664062 C 353.796875 406.101562 353.78125 409.523438 353.578125 412.9375 C 351.964844 409.597656 350.265625 406.308594 348.480469 403.070312 C 346.9375 400.410156 345.171875 397.910156 343.183594 395.570312 C 341.632812 393.867188 339.90625 392.382812 338.003906 391.125 C 333.632812 388.503906 329.09375 388.179688 324.386719 390.148438 C 321.320312 391.777344 319.132812 394.207031 317.824219 397.445312 C 316.878906 399.835938 316.253906 402.308594 315.949219 404.863281 C 315.484375 409.726562 315.484375 414.59375 315.949219 419.457031 C 317.433594 432.65625 320.398438 445.511719 324.835938 458.023438 C 326.136719 461.632812 327.507812 465.21875 328.953125 468.789062 C 328.851562 469.097656 328.660156 469.355469 328.382812 469.5625 C 318.683594 478.664062 307.242188 484.480469 294.058594 487.011719 C 284.855469 488.972656 275.558594 489.636719 266.171875 489.007812 C 266.195312 488.878906 266.167969 488.769531 266.089844 488.683594 C 264.746094 475.199219 261.90625 462.046875 257.570312 449.21875 C 255.925781 444.484375 253.859375 439.945312 251.375 435.601562 C 249.714844 432.800781 247.691406 430.289062 245.300781 428.0625 C 240.285156 423.890625 234.902344 423.375 229.15625 426.511719 C 226.015625 428.566406 223.773438 431.351562 222.429688 434.867188 C 221.324219 437.792969 220.589844 440.808594 220.226562 443.917969 C 220.042969 445.464844 219.90625 447.011719 219.820312 448.566406 C 219.703125 455.066406 219.554688 461.5625 219.371094 468.054688 C 216.398438 465.3125 213.640625 462.378906 211.09375 459.246094 C 203.484375 449.925781 198.320312 439.351562 195.601562 427.53125 C 193.792969 419.308594 192.648438 410.992188 192.179688 402.582031 C 191.726562 394.453125 191.238281 386.324219 190.710938 378.203125 C 189.746094 366.804688 188.277344 355.46875 186.308594 344.203125 C 184.746094 335.433594 183.085938 326.679688 181.335938 317.945312 C 180.847656 315.214844 180.4375 312.46875 180.113281 309.710938 C 178.003906 292.148438 182.734375 276.738281 194.296875 263.480469 C 194.332031 263.585938 194.402344 263.636719 194.503906 263.644531 C 197.441406 271.226562 199.246094 279.082031 199.925781 287.207031 C 200.597656 295.617188 200.488281 304.011719 199.597656 312.402344 C 199.308594 314.796875 199.011719 317.1875 198.703125 319.578125 C 197.542969 327.074219 196.101562 334.523438 194.378906 341.917969 C 193.15625 347.003906 191.90625 352.085938 190.628906 357.164062 C 190.523438 358.609375 191.191406 359.25 192.628906 359.082031 C 192.984375 358.9375 193.269531 358.707031 193.484375 358.390625 C 195.902344 349.121094 198.078125 339.800781 200.007812 330.421875 C 201.199219 323.988281 202.148438 317.519531 202.859375 311.015625 C 203.398438 304.996094 203.589844 298.960938 203.429688 292.914062 C 203.140625 283.390625 201.453125 274.121094 198.375 265.113281 C 197.859375 263.652344 197.300781 262.214844 196.703125 260.789062 C 201.242188 256.238281 206.324219 252.417969 211.953125 249.335938 C 223.0625 243.574219 234.859375 240.179688 247.335938 239.144531 C 254.957031 238.535156 262.40625 239.390625 269.679688 241.710938 Z M 269.679688 241.710938 "/>
<path style=" stroke:none;fill-rule:evenodd;fill:rgb(8.235294%,9.019608%,16.862745%);fill-opacity:1;" d="M 196.703125 260.789062 C 197.300781 262.214844 197.859375 263.652344 198.375 265.113281 C 201.453125 274.121094 203.140625 283.390625 203.429688 292.914062 C 203.589844 298.960938 203.398438 304.996094 202.859375 311.015625 C 202.148438 317.519531 201.199219 323.988281 200.007812 330.421875 C 198.078125 339.800781 195.902344 349.121094 193.484375 358.390625 C 193.269531 358.707031 192.984375 358.9375 192.628906 359.082031 C 191.191406 359.25 190.523438 358.609375 190.628906 357.164062 C 191.90625 352.085938 193.15625 347.003906 194.378906 341.917969 C 196.101562 334.523438 197.542969 327.074219 198.703125 319.578125 C 199.011719 317.1875 199.308594 314.796875 199.597656 312.402344 C 200.488281 304.011719 200.597656 295.617188 199.925781 287.207031 C 199.246094 279.082031 197.441406 271.226562 194.503906 263.644531 C 193.417969 260.800781 191.9375 258.191406 190.058594 255.816406 C 188.804688 254.320312 187.296875 253.164062 185.535156 252.351562 C 183.304688 251.445312 181.128906 251.554688 179.011719 252.679688 C 177.511719 253.632812 176.222656 254.816406 175.136719 256.226562 C 173.484375 258.578125 172.15625 261.105469 171.144531 263.808594 C 160.242188 294.160156 151.136719 325.035156 143.828125 356.433594 C 143.6875 356.734375 143.484375 356.992188 143.21875 357.207031 C 142.3125 357.703125 141.566406 357.527344 140.976562 356.675781 C 138.890625 348.792969 136.445312 341.019531 133.636719 333.355469 C 131.40625 327.453125 128.660156 321.800781 125.402344 316.398438 C 122.488281 311.609375 118.886719 307.382812 114.597656 303.71875 C 110.671875 300.519531 106.242188 298.289062 101.308594 297.035156 C 100.480469 296.613281 100.195312 295.945312 100.453125 295.035156 C 100.960938 294.066406 101.734375 293.78125 102.773438 294.179688 C 104.574219 294.707031 106.339844 295.332031 108.074219 296.054688 C 113.359375 298.53125 117.9375 301.96875 121.8125 306.371094 C 126.304688 311.625 130.003906 317.414062 132.902344 323.734375 C 136.695312 332.15625 139.792969 340.824219 142.199219 349.746094 C 149.167969 320.972656 157.621094 292.597656 167.554688 264.625 C 168.554688 261.648438 169.859375 258.820312 171.46875 256.144531 C 172.96875 253.609375 174.96875 251.558594 177.460938 249.988281 C 179.28125 248.933594 181.238281 248.5 183.332031 248.683594 C 186.148438 249.003906 188.59375 250.117188 190.671875 252.027344 C 193.257812 254.554688 195.269531 257.476562 196.703125 260.789062 Z M 196.703125 260.789062 "/>
<path style=" stroke:none;fill-rule:evenodd;fill:rgb(8.235294%,9.019608%,16.862745%);fill-opacity:1;" d="M 355.128906 559.375 C 356.058594 558.550781 357.066406 557.816406 358.144531 557.171875 C 364.636719 559.25 371.296875 560.105469 378.121094 559.742188 C 386.433594 559.289062 394.503906 557.660156 402.335938 554.847656 C 414.722656 550.300781 426.109375 544.050781 436.5 536.09375 C 454.914062 521.921875 468.816406 504.214844 478.203125 482.976562 C 481.5625 475.398438 484.636719 467.707031 487.417969 459.898438 C 491.242188 448.847656 495.265625 437.867188 499.484375 426.960938 C 503.3125 417.378906 507.933594 408.21875 513.347656 399.484375 C 517.402344 393.058594 522.050781 387.082031 527.289062 381.542969 C 533.703125 374.832031 541.054688 369.410156 549.34375 365.277344 C 551.246094 364.394531 553.175781 363.582031 555.132812 362.832031 C 558.046875 361.871094 560.957031 360.890625 563.859375 359.898438 C 566.3125 359.023438 568.542969 357.773438 570.542969 356.148438 C 573.359375 353.476562 574.746094 350.1875 574.703125 346.28125 C 574.644531 341.898438 573.164062 338.078125 570.257812 334.824219 C 567.449219 331.800781 564.148438 329.476562 560.351562 327.855469 C 551.390625 324.132812 542.121094 323.128906 532.546875 324.835938 C 525.488281 326.15625 518.828125 328.574219 512.570312 332.09375 C 502.941406 337.519531 494.800781 344.683594 488.152344 353.578125 C 483.164062 360.371094 478.894531 367.628906 475.351562 375.347656 C 471.527344 383.910156 468.265625 392.6875 465.566406 401.683594 C 462.390625 412.625 459.347656 423.605469 456.433594 434.625 C 453.84375 444.03125 450.828125 453.300781 447.382812 462.429688 C 443.839844 471.691406 439.355469 480.441406 433.929688 488.683594 C 427.679688 497.875 420.03125 505.71875 410.980469 512.207031 C 404.980469 516.441406 398.457031 519.660156 391.410156 521.867188 C 392.324219 520.417969 393.273438 519.007812 394.265625 517.628906 C 398.785156 515.9375 403.054688 513.777344 407.066406 511.144531 C 417.261719 504.238281 425.726562 495.636719 432.464844 485.339844 C 437.363281 477.527344 441.464844 469.289062 444.777344 460.632812 C 447.949219 452.167969 450.75 443.582031 453.171875 434.867188 C 455.214844 427.460938 457.226562 420.042969 459.207031 412.609375 C 461.6875 403.316406 464.597656 394.160156 467.929688 385.132812 C 471.421875 375.761719 475.800781 366.847656 481.058594 358.390625 C 484.949219 352.292969 489.472656 346.679688 494.632812 341.550781 C 503.15625 333.402344 513.046875 327.449219 524.3125 323.695312 C 531.488281 321.429688 538.824219 320.589844 546.328125 321.167969 C 552.96875 321.777344 559.21875 323.652344 565.082031 326.792969 C 569.285156 329.09375 572.640625 332.285156 575.152344 336.375 C 577.703125 340.914062 578.410156 345.722656 577.269531 350.804688 C 576.003906 355.195312 573.382812 358.496094 569.402344 360.710938 C 567.980469 361.476562 566.511719 362.15625 565 362.75 C 562.179688 363.71875 559.355469 364.667969 556.519531 365.605469 C 548.296875 368.703125 540.929688 373.160156 534.421875 378.976562 C 526.980469 385.792969 520.636719 393.46875 515.386719 402.011719 C 510.304688 410.320312 505.957031 419.019531 502.339844 428.101562 C 501.398438 430.460938 500.476562 432.824219 499.566406 435.195312 C 496.296875 444.085938 493.089844 453 489.945312 461.9375 C 486.867188 470.609375 483.386719 479.117188 479.507812 487.460938 C 468.667969 510.394531 452.757812 529 431.769531 543.269531 C 422.949219 549.214844 413.519531 554.027344 403.476562 557.703125 C 395.066406 560.734375 386.394531 562.445312 377.46875 562.839844 C 369.785156 563.140625 362.339844 561.988281 355.128906 559.375 Z M 355.128906 559.375 "/>
<path style=" stroke:none;fill-rule:evenodd;fill:rgb(99.607843%,99.607843%,99.607843%);fill-opacity:1;" d="M 358.144531 557.171875 C 368.261719 549.402344 377.273438 540.488281 385.171875 530.429688 C 387.332031 527.628906 389.414062 524.777344 391.410156 521.867188 C 398.457031 519.660156 404.980469 516.441406 410.980469 512.207031 C 420.03125 505.71875 427.679688 497.875 433.929688 488.683594 C 439.355469 480.441406 443.839844 471.691406 447.382812 462.429688 C 450.828125 453.300781 453.84375 444.03125 456.433594 434.625 C 459.347656 423.605469 462.390625 412.625 465.566406 401.683594 C 468.265625 392.6875 471.527344 383.910156 475.351562 375.347656 C 478.894531 367.628906 483.164062 360.371094 488.152344 353.578125 C 494.800781 344.683594 502.941406 337.519531 512.570312 332.09375 C 518.828125 328.574219 525.488281 326.15625 532.546875 324.835938 C 542.121094 323.128906 551.390625 324.132812 560.351562 327.855469 C 564.148438 329.476562 567.449219 331.800781 570.257812 334.824219 C 573.164062 338.078125 574.644531 341.898438 574.703125 346.28125 C 574.746094 350.1875 573.359375 353.476562 570.542969 356.148438 C 568.542969 357.773438 566.3125 359.023438 563.859375 359.898438 C 560.957031 360.890625 558.046875 361.871094 555.132812 362.832031 C 553.175781 363.582031 551.246094 364.394531 549.34375 365.277344 C 541.054688 369.410156 533.703125 374.832031 527.289062 381.542969 C 522.050781 387.082031 517.402344 393.058594 513.347656 399.484375 C 507.933594 408.21875 503.3125 417.378906 499.484375 426.960938 C 495.265625 437.867188 491.242188 448.847656 487.417969 459.898438 C 484.636719 467.707031 481.5625 475.398438 478.203125 482.976562 C 468.816406 504.214844 454.914062 521.921875 436.5 536.09375 C 426.109375 544.050781 414.722656 550.300781 402.335938 554.847656 C 394.503906 557.660156 386.433594 559.289062 378.121094 559.742188 C 371.296875 560.105469 364.636719 559.25 358.144531 557.171875 Z M 358.144531 557.171875 "/>
<path style=" stroke:none;fill-rule:evenodd;fill:rgb(72.54902%,73.333333%,72.54902%);fill-opacity:1;" d="M 104.160156 331.480469 C 106.449219 332.277344 108.707031 333.160156 110.929688 334.132812 C 116.644531 336.527344 121.917969 339.625 126.746094 343.425781 C 132.066406 347.90625 136.128906 353.328125 138.9375 359.691406 C 141 364.5 142.550781 369.472656 143.582031 374.613281 C 144.769531 380.632812 145.667969 386.691406 146.273438 392.796875 C 147.003906 400.484375 147.683594 408.175781 148.3125 415.871094 C 148.625 419.246094 148.976562 422.617188 149.371094 425.980469 C 150.230469 433.773438 151.726562 441.4375 153.855469 448.972656 C 155.480469 454.53125 157.707031 459.832031 160.542969 464.875 C 166.296875 474.867188 174.601562 481.867188 185.453125 485.871094 C 190.226562 487.632812 195.117188 488.992188 200.128906 489.945312 C 204.613281 490.808594 209.097656 491.679688 213.582031 492.554688 C 215.085938 492.859375 216.582031 493.199219 218.066406 493.574219 C 217.785156 498.496094 217.472656 503.414062 217.128906 508.332031 C 216.089844 514.894531 214.839844 521.414062 213.378906 527.902344 C 213.117188 528.109375 212.859375 528.097656 212.601562 527.859375 C 210.105469 523.9375 207.699219 519.957031 205.386719 515.914062 C 201.730469 510.027344 197.285156 504.765625 192.054688 500.136719 C 183.859375 492.859375 174.457031 487.75 163.84375 484.808594 C 160.09375 483.890625 156.289062 483.511719 152.429688 483.667969 C 146.738281 483.933594 141.65625 485.808594 137.183594 489.292969 C 136.417969 489.894531 136.242188 490.644531 136.652344 491.535156 C 137.121094 492.152344 137.734375 492.355469 138.488281 492.148438 C 142.371094 489.023438 146.800781 487.230469 151.777344 486.765625 C 156.535156 486.53125 161.183594 487.132812 165.71875 488.558594 C 174.964844 491.574219 183.171875 496.304688 190.34375 502.746094 C 193.949219 506.023438 197.195312 509.597656 200.085938 513.46875 C 200.90625 514.644531 201.695312 515.839844 202.453125 517.054688 C 204.75 520.996094 207.085938 524.910156 209.464844 528.796875 C 210.945312 531.164062 212.96875 531.777344 215.539062 530.632812 C 215.804688 530.421875 216.007812 530.164062 216.148438 529.859375 C 217.636719 523.148438 218.941406 516.410156 220.0625 509.636719 C 220.296875 508.066406 220.460938 506.492188 220.554688 504.90625 C 220.695312 501.507812 220.875 498.109375 221.082031 494.714844 C 221.160156 494.628906 221.1875 494.519531 221.164062 494.390625 C 236.929688 498.402344 248.277344 507.75 255.207031 522.4375 C 260.714844 534.65625 261.53125 547.183594 257.652344 560.027344 C 254.753906 569.191406 249.847656 577.058594 242.933594 583.628906 C 242.980469 583.660156 243.007812 583.703125 243.015625 583.753906 C 228.398438 582.136719 214.425781 578.234375 201.105469 572.050781 C 181.707031 562.957031 164.816406 550.441406 150.433594 534.503906 C 140.722656 523.703125 132.542969 511.824219 125.890625 498.875 C 120.207031 487.148438 116.046875 474.890625 113.414062 462.101562 C 110.925781 449.472656 109.347656 436.726562 108.6875 423.863281 C 108.359375 418.210938 108.117188 412.558594 107.953125 406.902344 C 107.679688 394.480469 107.351562 382.058594 106.972656 369.640625 C 106.363281 356.898438 105.425781 344.179688 104.160156 331.480469 Z M 104.160156 331.480469 "/>
<path style=" stroke:none;fill-rule:evenodd;fill:rgb(8.235294%,9.019608%,16.862745%);fill-opacity:1;" d="M 353.578125 412.9375 C 356.011719 417.71875 358.496094 422.476562 361.039062 427.203125 C 366.105469 436.417969 371.214844 445.605469 376.367188 454.761719 C 380.273438 460.625 384.433594 466.308594 388.84375 471.804688 C 389.078125 471.929688 389.265625 471.875 389.414062 471.640625 C 389.507812 471.347656 389.589844 471.046875 389.65625 470.746094 C 390.113281 466.652344 390.46875 462.546875 390.71875 458.433594 C 392.246094 444.113281 397.515625 431.390625 406.535156 420.273438 C 409.105469 417.132812 411.972656 414.292969 415.136719 411.753906 C 415.550781 411.421875 415.984375 411.125 416.441406 410.855469 C 417.941406 410.644531 418.609375 411.285156 418.441406 412.773438 C 418.304688 413.152344 418.074219 413.464844 417.746094 413.710938 C 414.09375 416.519531 410.847656 419.742188 408.003906 423.371094 C 398.421875 435.859375 393.503906 450.019531 393.246094 465.851562 C 393.058594 467.953125 392.816406 470.046875 392.511719 472.128906 C 392.203125 473.253906 391.535156 474.082031 390.515625 474.617188 C 390.058594 474.796875 389.59375 474.960938 389.128906 475.105469 C 388.691406 475.160156 388.257812 475.160156 387.824219 475.105469 C 387.324219 474.796875 386.902344 474.402344 386.558594 473.925781 C 382.265625 468.488281 378.164062 462.917969 374.246094 457.210938 C 367.003906 444.542969 359.949219 431.769531 353.089844 418.886719 C 351.230469 415.167969 349.367188 411.445312 347.503906 407.71875 C 345.660156 404.082031 343.429688 400.710938 340.816406 397.605469 C 339.539062 396.246094 338.136719 395.035156 336.617188 393.980469 C 333.050781 391.753906 329.324219 391.453125 325.449219 393.082031 C 323.292969 394.335938 321.730469 396.117188 320.761719 398.421875 C 319.566406 401.402344 318.914062 404.5 318.804688 407.71875 C 318.570312 411.859375 318.679688 415.988281 319.128906 420.109375 C 321.089844 436.136719 325.179688 451.601562 331.402344 466.503906 C 335.863281 477.359375 341.039062 487.847656 346.933594 497.976562 C 355.476562 512.496094 365.097656 526.25 375.796875 539.234375 C 375.957031 540.675781 375.320312 541.34375 373.878906 541.230469 C 373.699219 541.1875 373.535156 541.105469 373.390625 540.988281 C 357.683594 522.269531 344.488281 501.84375 333.804688 479.714844 C 332.117188 476.09375 330.503906 472.453125 328.953125 468.789062 C 327.507812 465.21875 326.136719 461.632812 324.835938 458.023438 C 320.398438 445.511719 317.433594 432.65625 315.949219 419.457031 C 315.484375 414.59375 315.484375 409.726562 315.949219 404.863281 C 316.253906 402.308594 316.878906 399.835938 317.824219 397.445312 C 319.132812 394.207031 321.320312 391.777344 324.386719 390.148438 C 329.09375 388.179688 333.632812 388.503906 338.003906 391.125 C 339.90625 392.382812 341.632812 393.867188 343.183594 395.570312 C 345.171875 397.910156 346.9375 400.410156 348.480469 403.070312 C 350.265625 406.308594 351.964844 409.597656 353.578125 412.9375 Z M 353.578125 412.9375 "/>
<path style=" stroke:none;fill-rule:evenodd;fill:rgb(72.54902%,73.333333%,72.156863%);fill-opacity:1;" d="M 353.089844 418.886719 C 351.335938 435.152344 345.371094 449.609375 335.191406 462.265625 C 333.945312 463.699219 332.683594 465.113281 331.402344 466.503906 C 325.179688 451.601562 321.089844 436.136719 319.128906 420.109375 C 318.679688 415.988281 318.570312 411.859375 318.804688 407.71875 C 318.914062 404.5 319.566406 401.402344 320.761719 398.421875 C 321.730469 396.117188 323.292969 394.335938 325.449219 393.082031 C 329.324219 391.453125 333.050781 391.753906 336.617188 393.980469 C 338.136719 395.035156 339.539062 396.246094 340.816406 397.605469 C 343.429688 400.710938 345.660156 404.082031 347.503906 407.71875 C 349.367188 411.445312 351.230469 415.167969 353.089844 418.886719 Z M 353.089844 418.886719 "/>
<path style=" stroke:none;fill-rule:evenodd;fill:rgb(65.098039%,65.882353%,65.490196%);fill-opacity:1;" d="M 343.46875 268.292969 C 343.660156 269.269531 343.945312 270.21875 344.324219 271.144531 C 345.515625 274.183594 346.929688 277.121094 348.5625 279.953125 C 350.609375 283.417969 352.675781 286.867188 354.761719 290.308594 C 355.574219 291.773438 356.390625 293.242188 357.207031 294.710938 C 360.777344 301.183594 362.761719 308.113281 363.160156 315.5 C 363.316406 319.222656 363.453125 322.945312 363.566406 326.671875 C 363.753906 330.21875 364.082031 333.75 364.542969 337.269531 C 365.425781 344.742188 367.4375 351.890625 370.578125 358.714844 C 374.78125 367.15625 380.503906 374.425781 387.742188 380.527344 C 391.257812 383.46875 395.089844 385.941406 399.238281 387.945312 C 404.585938 390.453125 410.210938 391.554688 416.117188 391.246094 C 416.097656 391.351562 416.125 391.433594 416.199219 391.492188 C 419.667969 411.976562 420.0625 432.523438 417.378906 453.132812 C 414.707031 472.960938 408.621094 491.660156 399.117188 509.230469 C 397.535156 512.058594 395.890625 514.84375 394.183594 517.585938 C 394.203125 517.621094 394.226562 517.632812 394.265625 517.628906 C 393.273438 519.007812 392.324219 520.417969 391.410156 521.867188 C 389.414062 524.777344 387.332031 527.628906 385.171875 530.429688 C 377.273438 540.488281 368.261719 549.402344 358.144531 557.171875 C 357.066406 557.816406 356.058594 558.550781 355.128906 559.375 C 348.640625 563.882812 341.792969 567.835938 334.582031 571.238281 C 327.480469 574.484375 320.140625 577.0625 312.566406 578.984375 C 294.609375 583.492188 276.375 585.460938 257.855469 584.894531 C 258.175781 584.550781 258.378906 584.140625 258.46875 583.671875 C 262.3125 567.855469 264.949219 551.820312 266.375 535.566406 C 267.382812 523.292969 267.574219 511.011719 266.945312 498.710938 C 266.683594 495.367188 266.398438 492.023438 266.089844 488.683594 C 266.167969 488.769531 266.195312 488.878906 266.171875 489.007812 C 275.558594 489.636719 284.855469 488.972656 294.058594 487.011719 C 307.242188 484.480469 318.683594 478.664062 328.382812 469.5625 C 328.660156 469.355469 328.851562 469.097656 328.953125 468.789062 C 330.503906 472.453125 332.117188 476.09375 333.804688 479.714844 C 344.488281 501.84375 357.683594 522.269531 373.390625 540.988281 C 373.535156 541.105469 373.699219 541.1875 373.878906 541.230469 C 375.320312 541.34375 375.957031 540.675781 375.796875 539.234375 C 365.097656 526.25 355.476562 512.496094 346.933594 497.976562 C 341.039062 487.847656 335.863281 477.359375 331.402344 466.503906 C 332.683594 465.113281 333.945312 463.699219 335.191406 462.265625 C 345.371094 449.609375 351.335938 435.152344 353.089844 418.886719 C 359.949219 431.769531 367.003906 444.542969 374.246094 457.210938 C 378.164062 462.917969 382.265625 468.488281 386.558594 473.925781 C 386.902344 474.402344 387.324219 474.796875 387.824219 475.105469 C 388.257812 475.160156 388.691406 475.160156 389.128906 475.105469 C 389.59375 474.960938 390.058594 474.796875 390.515625 474.617188 C 391.535156 474.082031 392.203125 473.253906 392.511719 472.128906 C 392.816406 470.046875 393.058594 467.953125 393.246094 465.851562 C 393.503906 450.019531 398.421875 435.859375 408.003906 423.371094 C 410.847656 419.742188 414.09375 416.519531 417.746094 413.710938 C 418.074219 413.464844 418.304688 413.152344 418.441406 412.773438 C 418.609375 411.285156 417.941406 410.644531 416.441406 410.855469 C 415.984375 411.125 415.550781 411.421875 415.136719 411.753906 C 411.972656 414.292969 409.105469 417.132812 406.535156 420.273438 C 397.515625 431.390625 392.246094 444.113281 390.71875 458.433594 C 390.46875 462.546875 390.113281 466.652344 389.65625 470.746094 C 389.589844 471.046875 389.507812 471.347656 389.414062 471.640625 C 389.265625 471.875 389.078125 471.929688 388.84375 471.804688 C 384.433594 466.308594 380.273438 460.625 376.367188 454.761719 C 371.214844 445.605469 366.105469 436.417969 361.039062 427.203125 C 358.496094 422.476562 356.011719 417.71875 353.578125 412.9375 C 353.78125 409.523438 353.796875 406.101562 353.617188 402.664062 C 352.804688 388.539062 349.625 374.976562 344.078125 361.976562 C 340.414062 353.667969 336.203125 345.675781 331.441406 338.003906 C 325.765625 328.09375 320.902344 317.792969 316.847656 307.101562 C 314.253906 299.625 311.644531 292.148438 309.019531 284.679688 C 308.4375 283.179688 307.839844 281.683594 307.226562 280.195312 C 303.238281 270.402344 297.515625 261.800781 290.0625 254.390625 C 285.027344 249.460938 279.253906 245.613281 272.734375 242.851562 C 272.703125 242.898438 272.664062 242.925781 272.613281 242.933594 C 272.988281 240.835938 273.4375 238.742188 273.957031 236.65625 C 274.71875 233.78125 275.996094 231.171875 277.792969 228.828125 C 281.335938 224.9375 285.15625 224.648438 289.246094 227.972656 C 291.402344 230.019531 293.183594 232.339844 294.585938 234.945312 C 308.402344 261.40625 320.660156 288.585938 331.359375 316.480469 C 331.539062 316.796875 331.800781 317.027344 332.132812 317.171875 C 333.109375 317.382812 333.800781 317.042969 334.214844 316.152344 C 334.046875 312.894531 333.925781 309.632812 333.847656 306.371094 C 333.8125 297.933594 334.96875 289.667969 337.3125 281.582031 C 338.746094 276.847656 340.800781 272.417969 343.46875 268.292969 Z M 343.46875 268.292969 "/>
<path style=" stroke:none;fill-rule:evenodd;fill:rgb(38.823529%,39.607843%,44.705882%);fill-opacity:1;" d="M 330.828125 304.25 C 330.84375 304.984375 330.828125 305.71875 330.789062 306.449219 C 330.730469 306.40625 330.691406 306.351562 330.667969 306.289062 C 330.722656 305.609375 330.773438 304.929688 330.828125 304.25 Z M 330.828125 304.25 "/>
<path style=" stroke:none;fill-rule:evenodd;fill:rgb(8.235294%,9.019608%,17.254902%);fill-opacity:1;" d="M 266.089844 488.683594 C 266.398438 492.023438 266.683594 495.367188 266.945312 498.710938 C 267.574219 511.011719 267.382812 523.292969 266.375 535.566406 C 264.949219 551.820312 262.3125 567.855469 258.46875 583.671875 C 258.378906 584.140625 258.175781 584.550781 257.855469 584.894531 C 257.125 585.355469 256.421875 585.324219 255.734375 584.8125 C 255.347656 584.339844 255.226562 583.796875 255.367188 583.183594 C 260.480469 562.398438 263.417969 541.308594 264.175781 519.910156 C 264.496094 509.46875 264.101562 499.058594 262.992188 488.683594 C 261.695312 476.113281 259.097656 463.832031 255.207031 451.828125 C 253.796875 447.628906 252.082031 443.550781 250.070312 439.597656 C 248.796875 437.160156 247.304688 434.878906 245.585938 432.75 C 244.085938 430.894531 242.277344 429.441406 240.164062 428.386719 C 237.089844 427.203125 234.101562 427.394531 231.195312 428.957031 C 229.277344 430.113281 227.742188 431.648438 226.585938 433.5625 C 225.183594 436.085938 224.234375 438.777344 223.734375 441.636719 C 223.160156 445.0625 222.863281 448.515625 222.835938 451.992188 C 222.796875 458.273438 222.648438 464.550781 222.386719 470.824219 C 222.046875 478.796875 221.613281 486.761719 221.082031 494.714844 C 220.875 498.109375 220.695312 501.507812 220.554688 504.90625 C 220.460938 506.492188 220.296875 508.066406 220.0625 509.636719 C 218.941406 516.410156 217.636719 523.148438 216.148438 529.859375 C 216.007812 530.164062 215.804688 530.421875 215.539062 530.632812 C 212.96875 531.777344 210.945312 531.164062 209.464844 528.796875 C 207.085938 524.910156 204.75 520.996094 202.453125 517.054688 C 201.695312 515.839844 200.90625 514.644531 200.085938 513.46875 C 197.195312 509.597656 193.949219 506.023438 190.34375 502.746094 C 183.171875 496.304688 174.964844 491.574219 165.71875 488.558594 C 161.183594 487.132812 156.535156 486.53125 151.777344 486.765625 C 146.800781 487.230469 142.371094 489.023438 138.488281 492.148438 C 137.734375 492.355469 137.121094 492.152344 136.652344 491.535156 C 136.242188 490.644531 136.417969 489.894531 137.183594 489.292969 C 141.65625 485.808594 146.738281 483.933594 152.429688 483.667969 C 156.289062 483.511719 160.09375 483.890625 163.84375 484.808594 C 174.457031 487.75 183.859375 492.859375 192.054688 500.136719 C 197.285156 504.765625 201.730469 510.027344 205.386719 515.914062 C 207.699219 519.957031 210.105469 523.9375 212.601562 527.859375 C 212.859375 528.097656 213.117188 528.109375 213.378906 527.902344 C 214.839844 521.414062 216.089844 514.894531 217.128906 508.332031 C 217.472656 503.414062 217.785156 498.496094 218.066406 493.574219 C 218.574219 485.085938 219.007812 476.578125 219.371094 468.054688 C 219.554688 461.5625 219.703125 455.066406 219.820312 448.566406 C 219.90625 447.011719 220.042969 445.464844 220.226562 443.917969 C 220.589844 440.808594 221.324219 437.792969 222.429688 434.867188 C 223.773438 431.351562 226.015625 428.566406 229.15625 426.511719 C 234.902344 423.375 240.285156 423.890625 245.300781 428.0625 C 247.691406 430.289062 249.714844 432.800781 251.375 435.601562 C 253.859375 439.945312 255.925781 444.484375 257.570312 449.21875 C 261.90625 462.046875 264.746094 475.199219 266.089844 488.683594 Z M 266.089844 488.683594 "/>
<path style=" stroke:none;fill-rule:evenodd;fill:rgb(72.54902%,73.333333%,72.156863%);fill-opacity:1;" d="M 262.992188 488.683594 C 255.679688 487.941406 248.667969 486.078125 241.957031 483.097656 C 234.847656 479.886719 228.324219 475.796875 222.386719 470.824219 C 222.648438 464.550781 222.796875 458.273438 222.835938 451.992188 C 222.863281 448.515625 223.160156 445.0625 223.734375 441.636719 C 224.234375 438.777344 225.183594 436.085938 226.585938 433.5625 C 227.742188 431.648438 229.277344 430.113281 231.195312 428.957031 C 234.101562 427.394531 237.089844 427.203125 240.164062 428.386719 C 242.277344 429.441406 244.085938 430.894531 245.585938 432.75 C 247.304688 434.878906 248.796875 437.160156 250.070312 439.597656 C 252.082031 443.550781 253.796875 447.628906 255.207031 451.828125 C 259.097656 463.832031 261.695312 476.113281 262.992188 488.683594 Z M 262.992188 488.683594 "/>
<path style=" stroke:none;fill-rule:evenodd;fill:rgb(65.098039%,65.882353%,65.490196%);fill-opacity:1;" d="M 222.386719 470.824219 C 228.324219 475.796875 234.847656 479.886719 241.957031 483.097656 C 248.667969 486.078125 255.679688 487.941406 262.992188 488.683594 C 264.101562 499.058594 264.496094 509.46875 264.175781 519.910156 C 263.417969 541.308594 260.480469 562.398438 255.367188 583.183594 C 255.226562 583.796875 255.347656 584.339844 255.734375 584.8125 C 251.476562 584.675781 247.238281 584.320312 243.015625 583.753906 C 243.007812 583.703125 242.980469 583.660156 242.933594 583.628906 C 249.847656 577.058594 254.753906 569.191406 257.652344 560.027344 C 261.53125 547.183594 260.714844 534.65625 255.207031 522.4375 C 248.277344 507.75 236.929688 498.402344 221.164062 494.390625 C 221.1875 494.519531 221.160156 494.628906 221.082031 494.714844 C 221.613281 486.761719 222.046875 478.796875 222.386719 470.824219 Z M 222.386719 470.824219 "/>
</g>
</svg>
