<?xml version="1.0" encoding="UTF-8"?>
<svg xmlns="http://www.w3.org/2000/svg" xmlns:xlink="http://www.w3.org/1999/xlink" width="500px" height="500px" viewBox="0 0 500 500" version="1.1">
<defs>
<filter id="alpha" filterUnits="objectBoundingBox" x="0%" y="0%" width="100%" height="100%">
  <feColorMatrix type="matrix" in="SourceGraphic" values="0 0 0 0 1 0 0 0 0 1 0 0 0 0 1 0 0 0 1 0"/>
</filter>
<mask id="mask0">
  <g filter="url(#alpha)">
<rect x="0" y="0" width="500" height="500" style="fill:rgb(0%,0%,0%);fill-opacity:0.12549;stroke:none;"/>
  </g>
</mask>
<clipPath id="clip1">
  <rect x="0" y="0" width="500" height="500"/>
</clipPath>
<g id="surface5" clip-path="url(#clip1)">
<path style=" stroke:none;fill-rule:evenodd;fill:rgb(99.607843%,99.607843%,99.607843%);fill-opacity:1;" d="M -0.03125 -0.03125 C 166.636719 -0.03125 333.300781 -0.03125 499.96875 -0.03125 C 499.96875 166.636719 499.96875 333.300781 499.96875 499.96875 C 333.300781 499.96875 166.636719 499.96875 -0.03125 499.96875 C -0.03125 333.300781 -0.03125 166.636719 -0.03125 -0.03125 Z M -0.03125 -0.03125 "/>
</g>
<mask id="mask1">
  <g filter="url(#alpha)">
<rect x="0" y="0" width="500" height="500" style="fill:rgb(0%,0%,0%);fill-opacity:0.188235;stroke:none;"/>
  </g>
</mask>
<clipPath id="clip2">
  <rect x="0" y="0" width="500" height="500"/>
</clipPath>
<g id="surface8" clip-path="url(#clip2)">
<path style=" stroke:none;fill-rule:evenodd;fill:rgb(68.235294%,59.607843%,50.588235%);fill-opacity:1;" d="M 360.792969 337.964844 C 360.875 338.820312 360.9375 339.675781 360.980469 340.535156 C 361.109375 347.945312 359.929688 355.136719 357.4375 362.109375 C 355.757812 366.722656 353.722656 371.132812 351.324219 375.34375 C 350.613281 376.433594 349.921875 377.542969 349.253906 378.667969 C 344.421875 386.066406 338.714844 392.765625 332.132812 398.769531 C 325.027344 405.238281 317.273438 410.789062 308.863281 415.421875 C 308.683594 413.722656 308.296875 412.070312 307.703125 410.46875 C 307.390625 409.621094 307.058594 408.785156 306.699219 407.960938 C 305.867188 406.136719 305.039062 404.320312 304.222656 402.503906 C 313.628906 399.273438 322.242188 394.621094 330.0625 388.546875 C 335.554688 384.226562 340.207031 379.15625 344.015625 373.339844 C 348.464844 366.328125 350.992188 358.679688 351.605469 350.382812 C 352.050781 342.828125 350.527344 335.699219 347.027344 328.996094 C 346.695312 328.375 346.183594 328.136719 345.492188 328.273438 C 344.859375 328.542969 344.597656 329.011719 344.707031 329.683594 C 348.027344 335.929688 349.53125 342.597656 349.222656 349.691406 C 348.824219 357.144531 346.730469 364.085938 342.949219 370.515625 C 339.710938 375.867188 335.710938 380.601562 330.941406 384.722656 C 324.179688 390.4375 316.671875 394.996094 308.421875 398.394531 C 306.289062 399.257812 304.136719 400.074219 301.964844 400.839844 C 301.507812 401.207031 301.351562 401.675781 301.492188 402.25 C 302.640625 404.796875 303.789062 407.347656 304.941406 409.902344 C 305.882812 412.089844 306.414062 414.367188 306.542969 416.738281 C 294.066406 423.214844 280.894531 427.582031 267.027344 429.847656 C 265.222656 428.226562 264.085938 426.21875 263.609375 423.828125 C 263.488281 422.03125 263.636719 420.253906 264.050781 418.496094 C 264.433594 417.015625 264.8125 415.53125 265.179688 414.042969 C 267.101562 405.265625 269.003906 396.484375 270.886719 387.699219 C 271.789062 383.566406 272.957031 379.511719 274.398438 375.53125 C 276.371094 370.289062 278.589844 365.144531 281.046875 360.105469 C 283.941406 354.304688 286.804688 348.492188 289.640625 342.667969 C 292.082031 337.59375 294.195312 332.386719 295.972656 327.050781 C 297.582031 322.089844 298.582031 317.011719 298.984375 311.808594 C 299.335938 306.421875 298.855469 301.113281 297.542969 295.878906 C 297.199219 295.285156 296.6875 295.066406 296.003906 295.222656 C 295.5 295.429688 295.25 295.808594 295.253906 296.351562 C 296.417969 301.3125 296.867188 306.339844 296.601562 311.433594 C 296.234375 316.128906 295.378906 320.726562 294.027344 325.230469 C 292.613281 329.707031 290.941406 334.078125 289.011719 338.339844 C 285.636719 345.488281 282.167969 352.597656 278.601562 359.664062 C 276.285156 364.441406 274.195312 369.3125 272.328125 374.277344 C 270.984375 377.957031 269.855469 381.699219 268.941406 385.503906 C 266.863281 395.015625 264.792969 404.527344 262.730469 414.042969 C 262.347656 415.4375 261.992188 416.835938 261.664062 418.246094 C 261.226562 420.058594 261.078125 421.898438 261.226562 423.765625 C 261.535156 426.242188 262.507812 428.417969 264.144531 430.289062 C 253.171875 431.746094 242.195312 431.78125 231.214844 430.382812 C 229.640625 430.171875 228.070312 429.917969 226.511719 429.628906 C 225.257812 429.597656 224.003906 429.585938 222.75 429.597656 C 222.75 429.703125 222.75 429.804688 222.75 429.910156 C 222.707031 429.796875 222.6875 429.671875 222.6875 429.535156 C 225.527344 379.253906 228.335938 328.976562 231.121094 278.695312 C 231.164062 278.214844 231.164062 277.734375 231.121094 277.25 C 230.839844 276.550781 230.328125 276.289062 229.585938 276.46875 C 228.9375 276.765625 228.65625 277.277344 228.738281 278.003906 C 225.972656 328.539062 223.160156 379.066406 220.300781 429.597656 C 217.5625 429.597656 214.824219 429.585938 212.085938 429.566406 C 201.023438 431.480469 189.898438 431.910156 178.71875 430.851562 C 179.597656 429.761719 180.320312 428.570312 180.882812 427.277344 C 181.582031 425.480469 181.832031 423.621094 181.636719 421.695312 C 181.550781 420.933594 181.425781 420.183594 181.257812 419.4375 C 180.683594 417.289062 180.054688 415.15625 179.378906 413.039062 C 176.953125 404.046875 174.503906 395.054688 172.039062 386.070312 C 170.214844 379.78125 168.105469 373.59375 165.703125 367.503906 C 163.148438 361.050781 160.554688 354.613281 157.929688 348.1875 C 154.984375 340.941406 152.410156 333.558594 150.214844 326.046875 C 148.859375 321.078125 147.878906 316.042969 147.265625 310.933594 C 146.765625 306.101562 146.746094 301.269531 147.203125 296.445312 C 147.398438 294.582031 147.660156 292.730469 147.988281 290.894531 C 147.855469 290.074219 147.375 289.695312 146.542969 289.765625 C 146.074219 289.898438 145.769531 290.203125 145.632812 290.671875 C 144.476562 297.070312 144.203125 303.507812 144.820312 309.992188 C 145.511719 316.171875 146.703125 322.257812 148.394531 328.242188 C 150.363281 334.828125 152.621094 341.308594 155.167969 347.6875 C 158.113281 354.90625 161.015625 362.140625 163.886719 369.386719 C 166.027344 374.960938 167.953125 380.628906 169.65625 386.382812 C 172.222656 395.746094 174.773438 405.113281 177.308594 414.480469 C 177.988281 416.460938 178.574219 418.46875 179.0625 420.503906 C 179.753906 423.730469 179.0625 426.613281 176.996094 429.160156 C 176.636719 429.625 176.25 430.066406 175.835938 430.476562 C 161.097656 428.707031 147.089844 424.503906 133.8125 417.867188 C 133.808594 416.183594 134.027344 414.53125 134.46875 412.914062 C 134.863281 411.644531 135.347656 410.410156 135.914062 409.214844 C 137.09375 406.917969 138.222656 404.597656 139.300781 402.25 C 139.472656 401.542969 139.230469 401.027344 138.578125 400.714844 C 127.90625 397.480469 118.101562 392.566406 109.164062 385.976562 C 104.539062 382.480469 100.449219 378.433594 96.902344 373.839844 C 92.191406 367.652344 89.242188 360.691406 88.058594 352.953125 C 87.109375 345.761719 88.175781 338.902344 91.257812 332.382812 C 91.714844 331.507812 92.175781 330.628906 92.636719 329.746094 C 92.789062 329.0625 92.550781 328.570312 91.914062 328.273438 C 91.378906 328.136719 90.929688 328.269531 90.566406 328.679688 C 86.667969 335.386719 84.953125 342.621094 85.425781 350.382812 C 86.179688 359.378906 89.230469 367.488281 94.582031 374.71875 C 98.699219 380.109375 103.496094 384.804688 108.976562 388.796875 C 115.015625 393.136719 121.496094 396.734375 128.417969 399.585938 C 131.089844 400.667969 133.789062 401.683594 136.507812 402.628906 C 135.121094 405.320312 133.835938 408.058594 132.652344 410.84375 C 131.917969 412.71875 131.53125 414.664062 131.492188 416.675781 C 117.363281 409.296875 105.183594 399.449219 94.957031 387.136719 C 90.308594 381.421875 86.398438 375.210938 83.230469 368.507812 C 80.375 362.398438 78.472656 356 77.519531 349.316406 C 76.597656 342.355469 77.078125 335.5 78.964844 328.746094 C 79.539062 326.765625 80.167969 324.800781 80.84375 322.847656 C 82.3125 318.949219 83.753906 315.039062 85.171875 311.121094 C 85.214844 310.679688 85.214844 310.242188 85.171875 309.804688 C 84.597656 301.179688 84.390625 292.542969 84.546875 283.898438 C 84.707031 275.839844 85.085938 267.792969 85.675781 259.753906 C 86.695312 246.628906 87.867188 233.523438 89.1875 220.429688 C 90.40625 208.550781 92.058594 196.738281 94.140625 184.992188 C 96.289062 173.207031 99.152344 161.601562 102.734375 150.183594 C 104.347656 145.203125 106.132812 140.289062 108.097656 135.441406 C 108.035156 135.402344 107.972656 135.359375 107.910156 135.316406 C 112.09375 125.335938 116.769531 115.589844 121.925781 106.089844 C 127.910156 94.980469 134.410156 84.210938 141.433594 73.789062 C 144.863281 68.75 148.519531 63.878906 152.410156 59.175781 C 154.652344 56.472656 157.109375 53.972656 159.777344 51.679688 C 162.816406 49.351562 165.828125 49.390625 168.808594 51.804688 C 170.21875 53.070312 171.421875 54.503906 172.414062 56.101562 C 176.949219 64.355469 181.101562 72.800781 184.867188 81.441406 C 185.011719 81.460938 185.160156 81.484375 185.304688 81.503906 C 205.269531 79.617188 225.257812 79.355469 245.265625 80.71875 C 248.675781 80.976562 252.082031 81.246094 255.488281 81.535156 C 259.078125 73.363281 262.976562 65.347656 267.183594 57.484375 C 268.246094 55.519531 269.574219 53.753906 271.167969 52.183594 C 272.382812 51.054688 273.804688 50.320312 275.433594 49.988281 C 276.765625 49.851562 278.019531 50.105469 279.195312 50.738281 C 279.605469 50.976562 280 51.226562 280.386719 51.492188 C 282.25 53.019531 283.996094 54.683594 285.625 56.480469 C 289.535156 60.871094 293.171875 65.472656 296.539062 70.277344 C 309.480469 88.960938 320.667969 108.738281 330.09375 129.609375 C 330.933594 131.542969 331.738281 133.484375 332.507812 135.441406 C 332.402344 135.441406 332.296875 135.441406 332.195312 135.441406 C 337.253906 148.667969 341.320312 162.195312 344.394531 176.023438 C 348.152344 193.273438 350.746094 210.710938 352.171875 228.332031 C 353.445312 244.171875 354.15625 260.039062 354.300781 275.933594 C 354.398438 284.296875 354.316406 292.660156 354.050781 301.023438 C 353.871094 304.953125 353.679688 308.886719 353.488281 312.8125 C 354.621094 315.894531 355.769531 318.964844 356.9375 322.035156 C 358.355469 325.839844 359.460938 329.726562 360.261719 333.699219 C 360.507812 335.113281 360.6875 336.535156 360.792969 337.964844 Z M 360.792969 337.964844 "/>
</g>
</defs>
<g id="surface1">
<use xlink:href="#surface5" mask="url(#mask0)"/>
<use xlink:href="#surface8" mask="url(#mask1)"/>
<path style=" stroke:none;fill-rule:evenodd;fill:rgb(8.235294%,8.627451%,16.862745%);fill-opacity:1;" d="M 163.289062 61.683594 C 164.679688 61.5625 165.933594 61.90625 167.054688 62.71875 C 168.445312 63.902344 169.5 65.332031 170.222656 67.015625 C 173.175781 73.625 175.507812 80.449219 177.214844 87.492188 C 177.09375 88.527344 176.527344 88.921875 175.519531 88.683594 C 175.28125 88.527344 175.082031 88.328125 174.925781 88.089844 C 173.230469 81.269531 170.972656 74.640625 168.152344 68.207031 C 167.550781 66.769531 166.660156 65.546875 165.484375 64.539062 C 164.304688 63.832031 163.195312 63.9375 162.160156 64.851562 C 161.382812 65.667969 160.703125 66.554688 160.121094 67.515625 C 156.980469 72.550781 154.847656 77.984375 153.726562 83.824219 C 153.457031 84.539062 152.945312 84.820312 152.1875 84.671875 C 151.59375 84.386719 151.332031 83.917969 151.40625 83.261719 C 152.78125 76.222656 155.542969 69.804688 159.683594 64.003906 C 160.429688 63.132812 161.320312 62.453125 162.347656 61.96875 C 162.671875 61.875 162.984375 61.78125 163.289062 61.683594 Z M 163.289062 61.683594 "/>
<path style=" stroke:none;fill-rule:evenodd;fill:rgb(8.235294%,8.627451%,16.862745%);fill-opacity:1;" d="M 277 61.683594 C 278.355469 61.566406 279.585938 61.890625 280.703125 62.65625 C 281.316406 63.191406 281.894531 63.765625 282.425781 64.382812 C 286.394531 70.097656 289.050781 76.386719 290.390625 83.261719 C 290.472656 83.949219 290.1875 84.417969 289.542969 84.671875 C 288.8125 84.800781 288.320312 84.519531 288.070312 83.824219 C 286.902344 77.785156 284.664062 72.183594 281.359375 67.015625 C 280.839844 66.117188 280.179688 65.335938 279.382812 64.664062 C 278.386719 63.929688 277.363281 63.886719 276.3125 64.539062 C 275.160156 65.507812 274.292969 66.6875 273.707031 68.082031 C 270.855469 74.554688 268.574219 81.222656 266.871094 88.089844 C 266.507812 88.71875 265.972656 88.917969 265.273438 88.683594 C 264.84375 88.445312 264.613281 88.078125 264.582031 87.585938 C 266.214844 80.757812 268.441406 74.128906 271.261719 67.707031 C 271.984375 65.898438 273.039062 64.320312 274.429688 62.96875 C 275.1875 62.339844 276.046875 61.910156 277 61.683594 Z M 277 61.683594 "/>
<path style=" stroke:none;fill-rule:evenodd;fill:rgb(8.235294%,8.627451%,16.862745%);fill-opacity:1;" d="M 206.753906 84.828125 C 206.945312 84.816406 207.132812 84.828125 207.320312 84.859375 C 212.777344 87.078125 216.636719 90.914062 218.890625 96.367188 C 220.085938 99.265625 220.546875 102.277344 220.269531 105.398438 C 219.859375 106.238281 219.246094 106.4375 218.421875 105.996094 C 218.058594 105.695312 217.890625 105.308594 217.917969 104.835938 C 218.09375 100.582031 216.933594 96.734375 214.4375 93.296875 C 212.375 90.441406 209.710938 88.359375 206.441406 87.054688 C 205.878906 86.613281 205.742188 86.058594 206.035156 85.394531 C 206.234375 85.140625 206.472656 84.949219 206.753906 84.828125 Z M 206.753906 84.828125 "/>
<path style=" stroke:none;fill-rule:evenodd;fill:rgb(8.235294%,8.627451%,16.862745%);fill-opacity:1;" d="M 216.726562 84.828125 C 216.984375 84.8125 217.234375 84.84375 217.480469 84.921875 C 222.027344 86.8125 225.488281 89.917969 227.859375 94.234375 C 229.800781 97.765625 230.574219 101.527344 230.179688 105.527344 C 229.816406 106.15625 229.28125 106.355469 228.582031 106.121094 C 228.179688 105.90625 227.949219 105.570312 227.890625 105.117188 C 228.078125 99.011719 225.882812 93.953125 221.304688 89.941406 C 219.832031 88.722656 218.203125 87.761719 216.414062 87.054688 C 215.929688 86.707031 215.75 86.238281 215.878906 85.644531 C 216.074219 85.269531 216.355469 85 216.726562 84.828125 Z M 216.726562 84.828125 "/>
<path style=" stroke:none;fill-rule:evenodd;fill:rgb(7.843137%,8.627451%,16.862745%);fill-opacity:1;" d="M 225.320312 84.828125 C 225.699219 84.792969 226.054688 84.867188 226.386719 85.046875 C 231.625 87.402344 235.335938 91.238281 237.519531 96.558594 C 238.632812 99.382812 239.070312 102.308594 238.835938 105.335938 C 238.566406 106.050781 238.054688 106.335938 237.300781 106.183594 C 236.929688 106 236.667969 105.71875 236.515625 105.335938 C 236.710938 99.195312 234.523438 94.082031 229.960938 90.003906 C 228.441406 88.730469 226.746094 87.726562 224.878906 86.992188 C 224.4375 86.558594 224.324219 86.046875 224.535156 85.457031 C 224.734375 85.164062 224.996094 84.953125 225.320312 84.828125 Z M 225.320312 84.828125 "/>
<path style=" stroke:none;fill-rule:evenodd;fill:rgb(8.235294%,9.019608%,17.254902%);fill-opacity:1;" d="M 349.253906 378.667969 C 349.921875 377.542969 350.613281 376.433594 351.324219 375.34375 C 359.992188 372.234375 368.394531 368.523438 376.535156 364.210938 C 383.429688 360.515625 389.785156 356.0625 395.601562 350.851562 C 402.28125 344.703125 407.789062 337.667969 412.128906 329.746094 C 416.441406 321.277344 419.265625 312.328125 420.597656 302.902344 C 421.726562 294.90625 422.019531 286.878906 421.476562 278.820312 C 420.6875 267.597656 418.621094 256.625 415.265625 245.890625 C 414.125 242.257812 412.933594 238.640625 411.691406 235.042969 C 409.433594 228.640625 407.175781 222.246094 404.917969 215.847656 C 402.074219 207.824219 399.523438 199.714844 397.265625 191.515625 C 395.152344 183.582031 393.667969 175.535156 392.8125 167.367188 C 392.429688 163.445312 392.304688 159.515625 392.4375 155.574219 C 392.558594 151.015625 394.386719 147.328125 397.925781 144.503906 C 400.117188 142.917969 402.398438 141.457031 404.761719 140.117188 C 411.136719 136.238281 413.992188 130.5625 413.320312 123.085938 C 412.542969 118.488281 410.191406 114.941406 406.265625 112.457031 C 401.554688 109.542969 396.558594 108.914062 391.277344 110.574219 C 388.375 111.703125 385.78125 113.3125 383.5 115.402344 C 378.4375 120.308594 374.703125 126.089844 372.304688 132.746094 C 370.078125 139.074219 368.863281 145.597656 368.664062 152.3125 C 368.507812 158.152344 368.820312 163.964844 369.605469 169.75 C 370.300781 174.664062 371.21875 179.535156 372.367188 184.363281 C 373.027344 186.980469 373.695312 189.59375 374.371094 192.203125 C 377.320312 202.546875 380.390625 212.855469 383.59375 223.125 C 385.679688 230.03125 387.582031 236.992188 389.300781 244.011719 C 391.136719 251.609375 392.433594 259.304688 393.1875 267.089844 C 394.335938 279.0625 393.457031 290.875 390.554688 302.527344 C 389.445312 306.796875 388.023438 310.957031 386.289062 315.007812 C 381.054688 326.695312 372.617188 335.203125 360.980469 340.535156 C 360.9375 339.675781 360.875 338.820312 360.792969 337.964844 C 371.585938 332.746094 379.414062 324.652344 384.28125 313.691406 C 388.183594 304.269531 390.441406 294.464844 391.054688 284.277344 C 391.503906 276.597656 391.214844 268.945312 390.179688 261.320312 C 389.390625 255.554688 388.300781 249.847656 386.917969 244.199219 C 385.308594 237.652344 383.527344 231.152344 381.585938 224.691406 C 379.160156 216.753906 376.757812 208.808594 374.371094 200.859375 C 372.769531 195.371094 371.285156 189.851562 369.917969 184.300781 C 368.105469 176.730469 366.933594 169.058594 366.40625 161.285156 C 365.933594 153.917969 366.433594 146.621094 367.914062 139.394531 C 369.550781 131.707031 372.730469 124.742188 377.445312 118.507812 C 380.15625 114.917969 383.449219 112 387.324219 109.757812 C 392.886719 106.796875 398.59375 106.480469 404.445312 108.820312 C 409.332031 110.839844 412.773438 114.300781 414.765625 119.199219 C 416.515625 124.546875 416.078125 129.710938 413.445312 134.691406 C 411.886719 137.464844 409.765625 139.710938 407.082031 141.433594 C 405.480469 142.429688 403.871094 143.414062 402.25 144.378906 C 400.90625 145.222656 399.628906 146.164062 398.425781 147.203125 C 396.550781 148.996094 395.414062 151.179688 395.007812 153.757812 C 394.738281 155.902344 394.652344 158.054688 394.757812 160.21875 C 395.042969 168.175781 396.066406 176.035156 397.828125 183.800781 C 399.535156 191.191406 401.585938 198.484375 403.976562 205.6875 C 405.15625 209.207031 406.347656 212.71875 407.550781 216.226562 C 409.855469 222.675781 412.132812 229.136719 414.386719 235.605469 C 416.492188 241.660156 418.351562 247.785156 419.96875 253.984375 C 422.351562 263.582031 423.710938 273.324219 424.046875 283.210938 C 424.441406 293.953125 423.25 304.511719 420.472656 314.882812 C 418.058594 323.828125 414.167969 332.042969 408.804688 339.53125 C 403.183594 347.308594 396.464844 353.964844 388.640625 359.507812 C 383.136719 363.351562 377.324219 366.714844 371.207031 369.605469 C 364.023438 372.957031 356.707031 375.976562 349.253906 378.667969 Z M 349.253906 378.667969 "/>
<path style=" stroke:none;fill-rule:evenodd;fill:rgb(99.607843%,99.607843%,99.607843%);fill-opacity:1;" d="M 351.324219 375.34375 C 353.722656 371.132812 355.757812 366.722656 357.4375 362.109375 C 359.929688 355.136719 361.109375 347.945312 360.980469 340.535156 C 372.617188 335.203125 381.054688 326.695312 386.289062 315.007812 C 388.023438 310.957031 389.445312 306.796875 390.554688 302.527344 C 393.457031 290.875 394.335938 279.0625 393.1875 267.089844 C 392.433594 259.304688 391.136719 251.609375 389.300781 244.011719 C 387.582031 236.992188 385.679688 230.03125 383.59375 223.125 C 380.390625 212.855469 377.320312 202.546875 374.371094 192.203125 C 373.695312 189.59375 373.027344 186.980469 372.367188 184.363281 C 371.21875 179.535156 370.300781 174.664062 369.605469 169.75 C 368.820312 163.964844 368.507812 158.152344 368.664062 152.3125 C 368.863281 145.597656 370.078125 139.074219 372.304688 132.746094 C 374.703125 126.089844 378.4375 120.308594 383.5 115.402344 C 385.78125 113.3125 388.375 111.703125 391.277344 110.574219 C 396.558594 108.914062 401.554688 109.542969 406.265625 112.457031 C 410.191406 114.941406 412.542969 118.488281 413.320312 123.085938 C 413.992188 130.5625 411.136719 136.238281 404.761719 140.117188 C 402.398438 141.457031 400.117188 142.917969 397.925781 144.503906 C 394.386719 147.328125 392.558594 151.015625 392.4375 155.574219 C 392.304688 159.515625 392.429688 163.445312 392.8125 167.367188 C 393.667969 175.535156 395.152344 183.582031 397.265625 191.515625 C 399.523438 199.714844 402.074219 207.824219 404.917969 215.847656 C 407.175781 222.246094 409.433594 228.640625 411.691406 235.042969 C 412.933594 238.640625 414.125 242.257812 415.265625 245.890625 C 418.621094 256.625 420.6875 267.597656 421.476562 278.820312 C 422.019531 286.878906 421.726562 294.90625 420.597656 302.902344 C 419.265625 312.328125 416.441406 321.277344 412.128906 329.746094 C 407.789062 337.667969 402.28125 344.703125 395.601562 350.851562 C 389.785156 356.0625 383.429688 360.515625 376.535156 364.210938 C 368.394531 368.523438 359.992188 372.234375 351.324219 375.34375 Z M 351.324219 375.34375 "/>
<path style=" stroke:none;fill-rule:evenodd;fill:rgb(7.843137%,8.627451%,16.862745%);fill-opacity:1;" d="M 208.511719 122.835938 C 210.640625 122.90625 212.082031 123.941406 212.839844 125.941406 C 213.5 128.121094 213.039062 130.023438 211.457031 131.648438 C 210.371094 132.539062 209.140625 132.832031 207.757812 132.527344 C 205.863281 131.78125 204.785156 130.390625 204.527344 128.355469 C 204.34375 126.285156 205.085938 124.644531 206.753906 123.433594 C 207.308594 123.113281 207.894531 122.914062 208.511719 122.835938 Z M 208.511719 122.835938 "/>
<path style=" stroke:none;fill-rule:evenodd;fill:rgb(7.843137%,8.627451%,16.862745%);fill-opacity:1;" d="M 241.25 122.835938 C 243.230469 122.820312 244.664062 123.699219 245.546875 125.46875 C 246.332031 127.445312 246.125 129.308594 244.917969 131.050781 C 243.5625 132.597656 241.921875 133.003906 239.996094 132.277344 C 238.5625 131.46875 237.714844 130.246094 237.457031 128.605469 C 237.183594 126.582031 237.820312 124.921875 239.367188 123.621094 C 239.949219 123.230469 240.574219 122.96875 241.25 122.835938 Z M 241.25 122.835938 "/>
<path style=" stroke:none;fill-rule:evenodd;fill:rgb(8.235294%,8.627451%,16.862745%);fill-opacity:1;" d="M 196.65625 171.445312 C 194.632812 173.738281 192.292969 175.632812 189.632812 177.121094 C 188.464844 177.375 187.910156 176.902344 187.96875 175.707031 C 188.058594 175.441406 188.214844 175.222656 188.441406 175.050781 C 192.234375 172.980469 195.179688 170.066406 197.285156 166.300781 C 200.78125 159.960938 200.789062 153.605469 197.316406 147.234375 C 195.15625 143.539062 192.21875 140.632812 188.503906 138.515625 C 188.152344 138.144531 188.039062 137.707031 188.160156 137.199219 C 188.453125 136.617188 188.925781 136.378906 189.570312 136.476562 C 194.820312 139.347656 198.574219 143.558594 200.828125 149.117188 C 203.070312 155.21875 202.695312 161.15625 199.699219 166.929688 C 198.824219 168.535156 197.808594 170.039062 196.65625 171.445312 Z M 196.65625 171.445312 "/>
<path style=" stroke:none;fill-rule:evenodd;fill:rgb(8.235294%,8.627451%,16.862745%);fill-opacity:1;" d="M 251.851562 159.527344 C 252.519531 163.523438 254.183594 167.035156 256.835938 170.0625 C 258.625 172.105469 260.703125 173.765625 263.078125 175.050781 C 263.722656 175.675781 263.742188 176.324219 263.140625 176.996094 C 262.789062 177.195312 262.410156 177.257812 262.011719 177.183594 C 257.628906 174.742188 254.230469 171.324219 251.820312 166.929688 C 251.378906 166.074219 250.992188 165.195312 250.660156 164.292969 C 248.582031 158.765625 248.761719 153.308594 251.191406 147.925781 C 253.292969 143.523438 256.375 139.980469 260.441406 137.292969 C 260.914062 137.003906 261.394531 136.734375 261.886719 136.476562 C 262.996094 136.398438 263.488281 136.910156 263.359375 138.015625 C 263.289062 138.1875 263.195312 138.34375 263.078125 138.484375 C 257.707031 141.542969 254.097656 146.027344 252.257812 151.9375 C 251.5625 154.4375 251.425781 156.96875 251.851562 159.527344 Z M 251.851562 159.527344 "/>
<path style=" stroke:none;fill-rule:evenodd;fill:rgb(7.843137%,8.627451%,16.862745%);fill-opacity:1;" d="M 224.378906 137.511719 C 226.074219 137.449219 227.703125 137.730469 229.269531 138.359375 C 230.839844 139.207031 231.457031 140.511719 231.121094 142.277344 C 230.878906 143.222656 230.441406 144.058594 229.804688 144.789062 C 228.851562 145.796875 227.824219 146.714844 226.730469 147.546875 C 226.027344 149.660156 226.027344 151.773438 226.730469 153.882812 C 227.351562 155.382812 228.449219 156.355469 230.023438 156.796875 C 232.996094 157.488281 235.753906 157.007812 238.304688 155.355469 C 238.734375 155.03125 239.101562 154.644531 239.402344 154.195312 C 239.617188 153.683594 239.804688 153.160156 239.964844 152.628906 C 240.441406 152.085938 240.996094 151.992188 241.625 152.347656 C 242.132812 152.800781 242.269531 153.355469 242.035156 154.007812 C 241.863281 154.640625 241.59375 155.226562 241.21875 155.765625 C 239.75 157.496094 237.902344 158.617188 235.667969 159.121094 C 234.011719 159.46875 232.339844 159.554688 230.652344 159.371094 C 228.207031 159.058594 226.328125 157.878906 225.007812 155.828125 C 223.644531 157.929688 221.699219 159.113281 219.171875 159.371094 C 215.992188 159.785156 213.0625 159.117188 210.394531 157.363281 C 209.347656 156.613281 208.585938 155.640625 208.101562 154.445312 C 207.910156 153.960938 207.847656 153.460938 207.914062 152.941406 C 208.464844 152.019531 209.15625 151.894531 209.984375 152.566406 C 210.03125 152.679688 210.09375 152.785156 210.171875 152.878906 C 210.304688 153.84375 210.753906 154.625 211.523438 155.230469 C 213.828125 156.839844 216.378906 157.421875 219.171875 156.988281 C 221.078125 156.730469 222.425781 155.738281 223.21875 154.007812 C 224.015625 151.722656 223.996094 149.445312 223.15625 147.171875 C 221.769531 146.1875 220.597656 144.996094 219.644531 143.597656 C 218.972656 142.566406 218.785156 141.457031 219.078125 140.273438 C 219.71875 139.046875 220.710938 138.261719 222.058594 137.921875 C 222.828125 137.71875 223.601562 137.582031 224.378906 137.511719 Z M 224.378906 137.511719 "/>
<path style=" stroke:none;fill-rule:evenodd;fill:rgb(8.235294%,8.627451%,16.862745%);fill-opacity:1;" d="M 173.640625 149.679688 C 178.777344 150.328125 183.921875 150.957031 189.066406 151.5625 C 189.628906 151.648438 190.191406 151.722656 190.761719 151.78125 C 191.566406 152.109375 191.820312 152.683594 191.515625 153.507812 C 191.148438 154.035156 190.648438 154.230469 190.007812 154.101562 C 183.195312 153.242188 176.378906 152.417969 169.5625 151.625 C 157.589844 150.113281 145.609375 148.640625 133.625 147.203125 C 132.957031 147.066406 132.578125 146.660156 132.496094 145.980469 C 132.6875 145.046875 133.253906 144.679688 134.1875 144.882812 C 147.339844 146.492188 160.488281 148.09375 173.640625 149.679688 Z M 173.640625 149.679688 "/>
<path style=" stroke:none;fill-rule:evenodd;fill:rgb(8.235294%,8.627451%,16.862745%);fill-opacity:1;" d="M 278.316406 151.6875 C 271.648438 152.488281 264.976562 153.300781 258.308594 154.132812 C 257.457031 154.039062 257.058594 153.558594 257.117188 152.691406 C 257.359375 152.007812 257.839844 151.675781 258.5625 151.6875 C 263.785156 151.039062 269.011719 150.410156 274.242188 149.804688 C 287.601562 148.171875 300.960938 146.53125 314.320312 144.882812 C 314.742188 144.828125 315.160156 144.847656 315.574219 144.945312 C 316.222656 145.375 316.378906 145.953125 316.042969 146.667969 C 315.820312 146.984375 315.519531 147.164062 315.132812 147.203125 C 302.859375 148.6875 290.589844 150.183594 278.316406 151.6875 Z M 278.316406 151.6875 "/>
<path style=" stroke:none;fill-rule:evenodd;fill:rgb(83.921569%,68.235294%,49.803922%);fill-opacity:1;" d="M 189.066406 151.5625 C 183.921875 150.957031 178.777344 150.328125 173.640625 149.679688 C 178.484375 148.101562 183.191406 148.46875 187.75 150.777344 C 188.195312 151.039062 188.632812 151.300781 189.066406 151.5625 Z M 189.066406 151.5625 "/>
<path style=" stroke:none;fill-rule:evenodd;fill:rgb(84.705882%,69.019608%,49.803922%);fill-opacity:1;" d="M 274.242188 149.804688 C 269.011719 150.410156 263.785156 151.039062 258.5625 151.6875 C 258.859375 151.429688 259.214844 151.1875 259.628906 150.964844 C 264.199219 148.535156 268.96875 148.074219 273.925781 149.585938 C 274.070312 149.621094 274.175781 149.695312 274.242188 149.804688 Z M 274.242188 149.804688 "/>
<path style=" stroke:none;fill-rule:evenodd;fill:rgb(84.705882%,69.019608%,49.803922%);fill-opacity:1;" d="M 169.5625 151.625 C 176.378906 152.417969 183.195312 153.242188 190.007812 154.101562 C 190.648438 154.230469 191.148438 154.035156 191.515625 153.507812 C 191.90625 153.804688 192.273438 154.136719 192.613281 154.507812 C 195.625 157.851562 197.183594 161.78125 197.285156 166.300781 C 195.179688 170.066406 192.234375 172.980469 188.441406 175.050781 C 188.214844 175.222656 188.058594 175.441406 187.96875 175.707031 C 187.910156 176.902344 188.464844 177.375 189.632812 177.121094 C 192.292969 175.632812 194.632812 173.738281 196.65625 171.445312 C 195.011719 177.023438 191.519531 180.964844 186.183594 183.265625 C 180.835938 185.324219 175.628906 185.011719 170.566406 182.324219 C 165.128906 179.035156 162.097656 174.214844 161.472656 167.867188 C 170.730469 166.53125 179.992188 165.207031 189.257812 163.886719 C 189.828125 163.710938 190.144531 163.324219 190.195312 162.726562 C 190.023438 161.78125 189.460938 161.394531 188.503906 161.566406 C 179.492188 162.867188 170.484375 164.152344 161.472656 165.421875 C 162.03125 159.539062 164.726562 154.941406 169.5625 151.625 Z M 169.5625 151.625 "/>
<path style=" stroke:none;fill-rule:evenodd;fill:rgb(84.705882%,69.019608%,49.803922%);fill-opacity:1;" d="M 278.316406 151.6875 C 282.410156 154.519531 284.972656 158.386719 286 163.289062 C 286.125 163.953125 286.199219 164.621094 286.21875 165.296875 C 277.519531 164.074219 268.824219 162.828125 260.128906 161.566406 C 259.242188 161.433594 258.71875 161.8125 258.5625 162.695312 C 258.605469 163.304688 258.917969 163.703125 259.503906 163.886719 C 268.417969 165.171875 277.324219 166.457031 286.21875 167.742188 C 285.691406 174.121094 282.703125 178.960938 277.25 182.261719 C 272.039062 185.066406 266.6875 185.359375 261.195312 183.140625 C 255.34375 180.378906 251.820312 175.808594 250.628906 169.4375 C 250.378906 167.808594 250.347656 166.179688 250.53125 164.542969 C 250.539062 164.429688 250.582031 164.347656 250.660156 164.292969 C 250.992188 165.195312 251.378906 166.074219 251.820312 166.929688 C 254.230469 171.324219 257.628906 174.742188 262.011719 177.183594 C 262.410156 177.257812 262.789062 177.195312 263.140625 176.996094 C 263.742188 176.324219 263.722656 175.675781 263.078125 175.050781 C 260.703125 173.765625 258.625 172.105469 256.835938 170.0625 C 254.183594 167.035156 252.519531 163.523438 251.851562 159.527344 C 253.078125 156.847656 254.832031 154.566406 257.117188 152.691406 C 257.058594 153.558594 257.457031 154.039062 258.308594 154.132812 C 264.976562 153.300781 271.648438 152.488281 278.316406 151.6875 Z M 278.316406 151.6875 "/>
<path style=" stroke:none;fill-rule:evenodd;fill:rgb(8.235294%,8.627451%,16.862745%);fill-opacity:1;" d="M 161.472656 167.867188 C 152.269531 169.164062 143.070312 170.480469 133.875 171.820312 C 132.835938 171.5625 132.511719 170.9375 132.902344 169.9375 C 133.125 169.625 133.429688 169.445312 133.8125 169.40625 C 143.042969 168.085938 152.261719 166.757812 161.472656 165.421875 C 170.484375 164.152344 179.492188 162.867188 188.503906 161.566406 C 189.460938 161.394531 190.023438 161.78125 190.195312 162.726562 C 190.144531 163.324219 189.828125 163.710938 189.257812 163.886719 C 179.992188 165.207031 170.730469 166.53125 161.472656 167.867188 Z M 161.472656 167.867188 "/>
<path style=" stroke:none;fill-rule:evenodd;fill:rgb(8.235294%,8.627451%,16.862745%);fill-opacity:1;" d="M 286.21875 165.296875 C 295.878906 166.683594 305.535156 168.074219 315.195312 169.46875 C 316.023438 169.832031 316.242188 170.429688 315.855469 171.253906 C 315.585938 171.609375 315.234375 171.796875 314.789062 171.820312 C 305.265625 170.445312 295.746094 169.085938 286.21875 167.742188 C 277.324219 166.457031 268.417969 165.171875 259.503906 163.886719 C 258.917969 163.703125 258.605469 163.304688 258.5625 162.695312 C 258.71875 161.8125 259.242188 161.433594 260.128906 161.566406 C 268.824219 162.828125 277.519531 164.074219 286.21875 165.296875 Z M 286.21875 165.296875 "/>
<path style=" stroke:none;fill-rule:evenodd;fill:rgb(8.235294%,8.627451%,16.862745%);fill-opacity:1;" d="M 231.65625 190.636719 C 232.730469 190.617188 233.203125 191.136719 233.066406 192.203125 C 232.417969 193.585938 231.382812 194.554688 229.960938 195.121094 C 227.195312 196.136719 224.582031 195.84375 222.121094 194.242188 C 221.492188 193.78125 221 193.207031 220.648438 192.515625 C 220.511719 191.441406 220.980469 190.929688 222.058594 190.980469 C 222.210938 191.027344 222.359375 191.089844 222.496094 191.167969 C 223.28125 192.332031 224.367188 193.023438 225.757812 193.238281 C 227.128906 193.484375 228.425781 193.273438 229.648438 192.613281 C 229.988281 192.398438 230.292969 192.136719 230.558594 191.828125 C 230.714844 191.496094 230.914062 191.195312 231.152344 190.917969 C 231.316406 190.804688 231.484375 190.710938 231.65625 190.636719 Z M 231.65625 190.636719 "/>
<path style=" stroke:none;fill-rule:evenodd;fill:rgb(8.235294%,9.019608%,17.254902%);fill-opacity:1;" d="M 222.75 429.910156 C 223.023438 433.097656 223.578125 436.234375 224.410156 439.320312 C 224.992188 441.277344 225.933594 443.035156 227.234375 444.585938 C 229.496094 446.90625 232.160156 447.523438 235.230469 446.4375 C 237.222656 445.617188 238.40625 444.144531 238.773438 442.015625 C 239.175781 441.3125 239.753906 441.132812 240.496094 441.484375 C 241.011719 441.917969 241.210938 442.472656 241.09375 443.144531 C 241.992188 445.109375 243.359375 446.667969 245.203125 447.816406 C 247.207031 448.933594 249.277344 449.082031 251.410156 448.257812 C 253.628906 447.132812 254.757812 445.324219 254.796875 442.832031 C 254.773438 442.308594 254.761719 441.785156 254.765625 441.261719 C 255.175781 440.425781 255.792969 440.226562 256.617188 440.667969 C 256.898438 440.90625 257.078125 441.210938 257.148438 441.578125 C 258.386719 442.8125 259.796875 443.808594 261.382812 444.554688 C 263.855469 445.449219 266.089844 445.050781 268.09375 443.363281 C 269.238281 442.191406 269.824219 440.78125 269.851562 439.128906 C 269.808594 437.488281 269.273438 436.023438 268.25 434.742188 C 266.9375 433.207031 265.566406 431.722656 264.144531 430.289062 C 262.507812 428.417969 261.535156 426.242188 261.226562 423.765625 C 261.078125 421.898438 261.226562 420.058594 261.664062 418.246094 C 261.992188 416.835938 262.347656 415.4375 262.730469 414.042969 C 264.792969 404.527344 266.863281 395.015625 268.941406 385.503906 C 269.855469 381.699219 270.984375 377.957031 272.328125 374.277344 C 274.195312 369.3125 276.285156 364.441406 278.601562 359.664062 C 282.167969 352.597656 285.636719 345.488281 289.011719 338.339844 C 290.941406 334.078125 292.613281 329.707031 294.027344 325.230469 C 295.378906 320.726562 296.234375 316.128906 296.601562 311.433594 C 296.867188 306.339844 296.417969 301.3125 295.253906 296.351562 C 295.25 295.808594 295.5 295.429688 296.003906 295.222656 C 296.6875 295.066406 297.199219 295.285156 297.542969 295.878906 C 298.855469 301.113281 299.335938 306.421875 298.984375 311.808594 C 298.582031 317.011719 297.582031 322.089844 295.972656 327.050781 C 294.195312 332.386719 292.082031 337.59375 289.640625 342.667969 C 286.804688 348.492188 283.941406 354.304688 281.046875 360.105469 C 278.589844 365.144531 276.371094 370.289062 274.398438 375.53125 C 272.957031 379.511719 271.789062 383.566406 270.886719 387.699219 C 269.003906 396.484375 267.101562 405.265625 265.179688 414.042969 C 264.8125 415.53125 264.433594 417.015625 264.050781 418.496094 C 263.636719 420.253906 263.488281 422.03125 263.609375 423.828125 C 264.085938 426.21875 265.222656 428.226562 267.027344 429.847656 C 267.777344 430.671875 268.542969 431.488281 269.316406 432.292969 C 270.148438 433.222656 270.835938 434.246094 271.386719 435.367188 C 271.648438 435.921875 271.847656 436.496094 271.984375 437.09375 C 278.132812 436.867188 284.152344 435.886719 290.046875 434.144531 C 294.007812 432.945312 297.625 431.105469 300.898438 428.625 C 302.53125 427.347656 303.921875 425.851562 305.066406 424.140625 C 305.996094 422.511719 306.5 420.753906 306.574219 418.871094 C 306.621094 418.160156 306.613281 417.449219 306.542969 416.738281 C 306.414062 414.367188 305.882812 412.089844 304.941406 409.902344 C 303.789062 407.347656 302.640625 404.796875 301.492188 402.25 C 301.351562 401.675781 301.507812 401.207031 301.964844 400.839844 C 304.136719 400.074219 306.289062 399.257812 308.421875 398.394531 C 316.671875 394.996094 324.179688 390.4375 330.941406 384.722656 C 335.710938 380.601562 339.710938 375.867188 342.949219 370.515625 C 346.730469 364.085938 348.824219 357.144531 349.222656 349.691406 C 349.53125 342.597656 348.027344 335.929688 344.707031 329.683594 C 344.597656 329.011719 344.859375 328.542969 345.492188 328.273438 C 346.183594 328.136719 346.695312 328.375 347.027344 328.996094 C 350.527344 335.699219 352.050781 342.828125 351.605469 350.382812 C 350.992188 358.679688 348.464844 366.328125 344.015625 373.339844 C 340.207031 379.15625 335.554688 384.226562 330.0625 388.546875 C 322.242188 394.621094 313.628906 399.273438 304.222656 402.503906 C 305.039062 404.320312 305.867188 406.136719 306.699219 407.960938 C 307.058594 408.785156 307.390625 409.621094 307.703125 410.46875 C 308.296875 412.070312 308.683594 413.722656 308.863281 415.421875 C 309 417.417969 308.929688 419.402344 308.644531 421.382812 C 308.164062 423.574219 307.199219 425.519531 305.757812 427.214844 C 303.3125 429.988281 300.4375 432.195312 297.132812 433.832031 C 293.332031 435.667969 289.359375 437.007812 285.21875 437.84375 C 280.90625 438.707031 276.558594 439.261719 272.171875 439.507812 C 271.808594 443.605469 269.636719 446.164062 265.648438 447.191406 C 263.140625 447.652344 260.820312 447.195312 258.6875 445.808594 C 258.128906 445.429688 257.574219 445.042969 257.023438 444.648438 C 255.875 448.769531 253.15625 450.941406 248.871094 451.171875 C 246.722656 451.175781 244.789062 450.535156 243.070312 449.261719 C 241.808594 448.253906 240.710938 447.09375 239.777344 445.777344 C 238.246094 447.804688 236.210938 448.964844 233.660156 449.261719 C 229.847656 449.574219 226.824219 448.183594 224.597656 445.089844 C 223.140625 442.878906 222.125 440.476562 221.558594 437.875 C 220.949219 440.28125 219.894531 442.453125 218.390625 444.398438 C 216.042969 446.972656 213.125 448.050781 209.640625 447.628906 C 207.464844 447.261719 205.667969 446.246094 204.246094 444.585938 C 203.902344 445.066406 203.558594 445.546875 203.210938 446.03125 C 201.660156 448.128906 199.625 449.519531 197.097656 450.199219 C 193.898438 450.878906 191.148438 450.074219 188.847656 447.785156 C 187.953125 446.789062 187.3125 445.636719 186.933594 444.335938 C 185.816406 445.34375 184.5625 446.148438 183.171875 446.75 C 180.011719 447.914062 177.082031 447.496094 174.390625 445.496094 C 172.601562 443.929688 171.640625 441.957031 171.507812 439.570312 C 165.605469 439.277344 159.773438 438.492188 154.007812 437.21875 C 149.621094 436.207031 145.460938 434.621094 141.527344 432.449219 C 138.652344 430.832031 136.152344 428.75 134.03125 426.210938 C 131.972656 423.367188 131.125 420.191406 131.492188 416.675781 C 131.53125 414.664062 131.917969 412.71875 132.652344 410.84375 C 133.835938 408.058594 135.121094 405.320312 136.507812 402.628906 C 133.789062 401.683594 131.089844 400.667969 128.417969 399.585938 C 121.496094 396.734375 115.015625 393.136719 108.976562 388.796875 C 103.496094 384.804688 98.699219 380.109375 94.582031 374.71875 C 89.230469 367.488281 86.179688 359.378906 85.425781 350.382812 C 84.953125 342.621094 86.667969 335.386719 90.566406 328.679688 C 90.929688 328.269531 91.378906 328.136719 91.914062 328.273438 C 92.550781 328.570312 92.789062 329.0625 92.636719 329.746094 C 92.175781 330.628906 91.714844 331.507812 91.257812 332.382812 C 88.175781 338.902344 87.109375 345.761719 88.058594 352.953125 C 89.242188 360.691406 92.191406 367.652344 96.902344 373.839844 C 100.449219 378.433594 104.539062 382.480469 109.164062 385.976562 C 118.101562 392.566406 127.90625 397.480469 138.578125 400.714844 C 139.230469 401.027344 139.472656 401.542969 139.300781 402.25 C 138.222656 404.597656 137.09375 406.917969 135.914062 409.214844 C 135.347656 410.410156 134.863281 411.644531 134.46875 412.914062 C 134.027344 414.53125 133.808594 416.183594 133.8125 417.867188 C 133.695312 420.765625 134.582031 423.292969 136.476562 425.457031 C 139.429688 428.535156 142.890625 430.863281 146.859375 432.449219 C 149.761719 433.636719 152.753906 434.554688 155.828125 435.210938 C 161.066406 436.277344 166.355469 436.914062 171.695312 437.125 C 171.996094 435.980469 172.464844 434.914062 173.105469 433.925781 C 173.957031 432.730469 174.867188 431.578125 175.835938 430.476562 C 176.25 430.066406 176.636719 429.625 176.996094 429.160156 C 179.0625 426.613281 179.753906 423.730469 179.0625 420.503906 C 178.574219 418.46875 177.988281 416.460938 177.308594 414.480469 C 174.773438 405.113281 172.222656 395.746094 169.65625 386.382812 C 167.953125 380.628906 166.027344 374.960938 163.886719 369.386719 C 161.015625 362.140625 158.113281 354.90625 155.167969 347.6875 C 152.621094 341.308594 150.363281 334.828125 148.394531 328.242188 C 146.703125 322.257812 145.511719 316.171875 144.820312 309.992188 C 144.203125 303.507812 144.476562 297.070312 145.632812 290.671875 C 145.769531 290.203125 146.074219 289.898438 146.542969 289.765625 C 147.375 289.695312 147.855469 290.074219 147.988281 290.894531 C 147.660156 292.730469 147.398438 294.582031 147.203125 296.445312 C 146.746094 301.269531 146.765625 306.101562 147.265625 310.933594 C 147.878906 316.042969 148.859375 321.078125 150.214844 326.046875 C 152.410156 333.558594 154.984375 340.941406 157.929688 348.1875 C 160.554688 354.613281 163.148438 361.050781 165.703125 367.503906 C 168.105469 373.59375 170.214844 379.78125 172.039062 386.070312 C 174.503906 395.054688 176.953125 404.046875 179.378906 413.039062 C 180.054688 415.15625 180.683594 417.289062 181.257812 419.4375 C 181.425781 420.183594 181.550781 420.933594 181.636719 421.695312 C 181.832031 423.621094 181.582031 425.480469 180.882812 427.277344 C 180.320312 428.570312 179.597656 429.761719 178.71875 430.851562 C 177.480469 432.164062 176.320312 433.542969 175.238281 434.992188 C 173.699219 437.203125 173.46875 439.542969 174.546875 442.015625 C 175.738281 443.964844 177.484375 444.96875 179.785156 445.027344 C 181.304688 444.996094 182.683594 444.546875 183.925781 443.679688 C 184.867188 443.03125 185.734375 442.289062 186.527344 441.453125 C 186.683594 441.144531 186.828125 440.832031 186.96875 440.511719 C 187.429688 440.042969 187.964844 439.949219 188.566406 440.226562 C 188.769531 440.390625 188.925781 440.589844 189.035156 440.824219 C 188.835938 442.691406 189.277344 444.386719 190.355469 445.90625 C 192.328125 447.992188 194.679688 448.566406 197.410156 447.628906 C 198.898438 447.027344 200.140625 446.097656 201.140625 444.839844 C 201.773438 444.050781 202.296875 443.195312 202.710938 442.265625 C 202.863281 441.933594 202.894531 441.585938 202.804688 441.230469 C 202.9375 440.367188 203.441406 440.011719 204.308594 440.164062 C 204.675781 440.261719 204.9375 440.480469 205.09375 440.824219 C 205.59375 442.976562 206.898438 444.386719 209.011719 445.058594 C 212.914062 445.921875 215.832031 444.617188 217.761719 441.136719 C 218.710938 439.25 219.359375 437.265625 219.707031 435.179688 C 220.003906 433.328125 220.203125 431.46875 220.300781 429.597656 C 223.160156 379.066406 225.972656 328.539062 228.738281 278.003906 C 228.65625 277.277344 228.9375 276.765625 229.585938 276.46875 C 230.328125 276.289062 230.839844 276.550781 231.121094 277.25 C 231.164062 277.734375 231.164062 278.214844 231.121094 278.695312 C 228.335938 328.976562 225.527344 379.253906 222.6875 429.535156 C 222.6875 429.671875 222.707031 429.796875 222.75 429.910156 Z M 222.75 429.910156 "/>
<path style=" stroke:none;fill-rule:evenodd;fill:rgb(99.607843%,99.607843%,99.607843%);fill-opacity:1;" d="M 306.542969 416.738281 C 306.613281 417.449219 306.621094 418.160156 306.574219 418.871094 C 306.5 420.753906 305.996094 422.511719 305.066406 424.140625 C 303.921875 425.851562 302.53125 427.347656 300.898438 428.625 C 297.625 431.105469 294.007812 432.945312 290.046875 434.144531 C 284.152344 435.886719 278.132812 436.867188 271.984375 437.09375 C 271.847656 436.496094 271.648438 435.921875 271.386719 435.367188 C 270.835938 434.246094 270.148438 433.222656 269.316406 432.292969 C 268.542969 431.488281 267.777344 430.671875 267.027344 429.847656 C 280.894531 427.582031 294.066406 423.214844 306.542969 416.738281 Z M 306.542969 416.738281 "/>
<path style=" stroke:none;fill-rule:evenodd;fill:rgb(99.607843%,99.607843%,99.607843%);fill-opacity:1;" d="M 133.8125 417.867188 C 147.089844 424.503906 161.097656 428.707031 175.835938 430.476562 C 174.867188 431.578125 173.957031 432.730469 173.105469 433.925781 C 172.464844 434.914062 171.996094 435.980469 171.695312 437.125 C 166.355469 436.914062 161.066406 436.277344 155.828125 435.210938 C 152.753906 434.554688 149.761719 433.636719 146.859375 432.449219 C 142.890625 430.863281 139.429688 428.535156 136.476562 425.457031 C 134.582031 423.292969 133.695312 420.765625 133.8125 417.867188 Z M 133.8125 417.867188 "/>
<path style=" stroke:none;fill-rule:evenodd;fill:rgb(99.607843%,99.607843%,99.607843%);fill-opacity:1;" d="M 220.300781 429.597656 C 220.203125 431.46875 220.003906 433.328125 219.707031 435.179688 C 219.359375 437.265625 218.710938 439.25 217.761719 441.136719 C 215.832031 444.617188 212.914062 445.921875 209.011719 445.058594 C 206.898438 444.386719 205.59375 442.976562 205.09375 440.824219 C 204.9375 440.480469 204.675781 440.261719 204.308594 440.164062 C 203.441406 440.011719 202.9375 440.367188 202.804688 441.230469 C 202.894531 441.585938 202.863281 441.933594 202.710938 442.265625 C 202.296875 443.195312 201.773438 444.050781 201.140625 444.839844 C 200.140625 446.097656 198.898438 447.027344 197.410156 447.628906 C 194.679688 448.566406 192.328125 447.992188 190.355469 445.90625 C 189.277344 444.386719 188.835938 442.691406 189.035156 440.824219 C 188.925781 440.589844 188.769531 440.390625 188.566406 440.226562 C 187.964844 439.949219 187.429688 440.042969 186.96875 440.511719 C 186.828125 440.832031 186.683594 441.144531 186.527344 441.453125 C 185.734375 442.289062 184.867188 443.03125 183.925781 443.679688 C 182.683594 444.546875 181.304688 444.996094 179.785156 445.027344 C 177.484375 444.96875 175.738281 443.964844 174.546875 442.015625 C 173.46875 439.542969 173.699219 437.203125 175.238281 434.992188 C 176.320312 433.542969 177.480469 432.164062 178.71875 430.851562 C 189.898438 431.910156 201.023438 431.480469 212.085938 429.566406 C 214.824219 429.585938 217.5625 429.597656 220.300781 429.597656 Z M 220.300781 429.597656 "/>
<path style=" stroke:none;fill-rule:evenodd;fill:rgb(99.607843%,99.607843%,99.607843%);fill-opacity:1;" d="M 264.144531 430.289062 C 265.566406 431.722656 266.9375 433.207031 268.25 434.742188 C 269.273438 436.023438 269.808594 437.488281 269.851562 439.128906 C 269.824219 440.78125 269.238281 442.191406 268.09375 443.363281 C 266.089844 445.050781 263.855469 445.449219 261.382812 444.554688 C 259.796875 443.808594 258.386719 442.8125 257.148438 441.578125 C 257.078125 441.210938 256.898438 440.90625 256.617188 440.667969 C 255.792969 440.226562 255.175781 440.425781 254.765625 441.261719 C 254.761719 441.785156 254.773438 442.308594 254.796875 442.832031 C 254.757812 445.324219 253.628906 447.132812 251.410156 448.257812 C 249.277344 449.082031 247.207031 448.933594 245.203125 447.816406 C 243.359375 446.667969 241.992188 445.109375 241.09375 443.144531 C 241.210938 442.472656 241.011719 441.917969 240.496094 441.484375 C 239.753906 441.132812 239.175781 441.3125 238.773438 442.015625 C 238.40625 444.144531 237.222656 445.617188 235.230469 446.4375 C 232.160156 447.523438 229.496094 446.90625 227.234375 444.585938 C 225.933594 443.035156 224.992188 441.277344 224.410156 439.320312 C 223.578125 436.234375 223.023438 433.097656 222.75 429.910156 C 222.75 429.804688 222.75 429.703125 222.75 429.597656 C 224.003906 429.585938 225.257812 429.597656 226.511719 429.628906 C 228.070312 429.917969 229.640625 430.171875 231.214844 430.382812 C 242.195312 431.78125 253.171875 431.746094 264.144531 430.289062 Z M 264.144531 430.289062 "/>
</g>
</svg>
